SplineFontDB: 3.2
FontName: Caladea-Bold
FullName: Caladea Bold
FamilyName: Caladea
Weight: Bold
Copyright: Copyright 2012 The Caladea Project Authors \\(https://github.com/huertatipografica/Caladea\\)
Version: 001.001
ItalicAngle: 0
UnderlinePosition: -204.8
UnderlineWidth: 102.4
Ascent: 1638
Descent: 410
InvalidEm: 0
sfntRevision: 0x00010041
LayerCount: 2
Layer: 0 0 "Back" 1
Layer: 1 0 "Fore" 0
XUID: [1021 282 2012869056 11536162]
StyleMap: 0x0020
FSType: 0
OS2Version: 4
OS2_WeightWidthSlopeOnly: 0
OS2_UseTypoMetrics: 1
CreationTime: 1576713534
ModificationTime: 1719082755
PfmFamily: 17
TTFWeight: 700
TTFWidth: 5
LineGap: 0
VLineGap: 0
Panose: 2 4 8 3 5 4 6 3 2 4
OS2TypoAscent: 1843
OS2TypoAOffset: 0
OS2TypoDescent: -512
OS2TypoDOffset: 0
OS2TypoLinegap: 0
OS2WinAscent: 2150
OS2WinAOffset: 0
OS2WinDescent: 512
OS2WinDOffset: 0
HheadAscent: 1843
HheadAOffset: 0
HheadDescent: -512
HheadDOffset: 0
OS2SubXSize: 1331
OS2SubYSize: 1229
OS2SubXOff: 0
OS2SubYOff: 205
OS2SupXSize: 1331
OS2SupYSize: 1229
OS2SupXOff: 0
OS2SupYOff: 717
OS2StrikeYSize: 102
OS2StrikeYPos: 594
OS2CapHeight: 1366
OS2XHeight: 991
OS2Vendor: 'HT  '
OS2CodePages: 20000093.00000000
OS2UnicodeRanges: 00000007.00000000.00000000.00000000
Lookup: 1 0 0 "'aalt' Access All Alternates in Latin lookup 0" { "'aalt' Access All Alternates in Latin lookup 0 subtable"  } ['aalt' ('DFLT' <'dflt' > 'latn' <'AZE ' 'CAT ' 'CRT ' 'KAZ ' 'MOL ' 'ROM ' 'TAT ' 'TRK ' 'dflt' > ) ]
Lookup: 6 0 0 "'ccmp' Glyph Composition/Decomposition in Latin lookup 1" { "'ccmp' Glyph Composition/Decomposition in Latin lookup 1 contextual 0"  "'ccmp' Glyph Composition/Decomposition in Latin lookup 1 contextual 1"  "'ccmp' Glyph Composition/Decomposition in Latin lookup 1 contextual 2"  "'ccmp' Glyph Composition/Decomposition in Latin lookup 1 contextual 3"  } ['ccmp' ('DFLT' <'dflt' > 'latn' <'AZE ' 'CAT ' 'CRT ' 'KAZ ' 'MOL ' 'ROM ' 'TAT ' 'TRK ' 'dflt' > ) ]

StartChar: .notdef
Encoding: 65536 -1 0
Width: 1263
GlyphClass: 1
Flags: HMW
HStem: 123 74<246 1018 246 1120> 1169 74<246 246 246 1018>
VStem: 143 102<197 1169 197 1243 197 1243> 1018 102<197 1169 1169 1169>
LayerCount: 2
Fore
SplineSet
1120 1243 m 1
 1120 123 l 1
 143 123 l 1
 143 1243 l 1
 1120 1243 l 1
246 1169 m 1
 246 197 l 1
 1018 197 l 1
 1018 1169 l 1
 246 1169 l 1
389 389 m 1
 575 690 l 1
 391 977 l 1
 504 975 l 1
 637 768 l 1
 766 975 l 1
 844 977 l 1
 676 707 l 1
 879 389 l 1
 766 391 l 1
 614 629 l 1
 467 389 l 1
 389 389 l 1
EndSplineSet
EndChar

StartChar: A
Encoding: 65 65 5
Width: 1337
GlyphClass: 2
Flags: HMW
HStem: 0 82<-8 4 4 4 4 455> 426 129<434 768 434 811 389 768> 1325 41G<565 778 778 778>
VStem: -8 1352<0 82>
AnchorPoint: "Anchor-3" 672 1366 basechar 0
AnchorPoint: "Anchor-2" 1317 0 basechar 0
LayerCount: 2
Fore
SplineSet
-8 0 m 1
 4 82 l 1
 74 84 121 108 133 143 c 2
 565 1366 l 1
 778 1366 l 1
 1214 164 l 2
 1230 119 1267 96 1343 82 c 1
 1333 0 l 1
 772 0 l 1
 784 82 l 1
 841 90 887 106 907 133 c 1
 811 426 l 1
 389 426 l 1
 291 143 l 1
 330 110 395 90 465 82 c 1
 455 0 l 1
 -8 0 l 1
434 555 m 1
 768 555 l 1
 608 1047 l 1
 434 555 l 1
EndSplineSet
Substitution2: "Single Substitution lookup 12 subtable" ordfeminine
Substitution2: "'aalt' Access All Alternates in Latin lookup 0 subtable" ordfeminine
EndChar

StartChar: B
Encoding: 66 66 6
Width: 1298
GlyphClass: 1
Flags: HMW
HStem: 0 127<605 692> 655 129<487 598 487 600> 1241 125<594 647 647 703> 1286 80<61 647>
VStem: 186 301<145 655 133 784 784 1221 1221 1221> 881 317<951 1093> 918 328<295 468 265 473>
LayerCount: 2
Fore
SplineSet
61 0 m 1xea
 70 84 l 1
 121 94 149 108 186 145 c 1
 186 1221 l 1
 161 1246 124 1266 61 1286 c 1xda
 70 1366 l 1
 647 1366 l 2
 1005 1366 1198 1247 1198 1026 c 0xec
 1198 876 1112 778 948 735 c 1
 1138 678 1245 551 1245 385 c 0
 1245 145 1036 0 692 0 c 2
 61 0 l 1xea
487 784 m 1
 600 784 l 2
 786 784 881 864 881 1022 c 0
 881 1163 787 1241 621 1241 c 0
 568 1241 528 1239 487 1233 c 1xec
 487 784 l 1
627 127 m 0xea
 828 127 918 207 918 383 c 0
 918 563 809 655 598 655 c 2
 487 655 l 1
 487 133 l 1
 540 129 584 127 627 127 c 0xea
EndSplineSet
EndChar

StartChar: C
Encoding: 67 67 7
Width: 1128
GlyphClass: 2
Flags: HMW
HStem: -20 139<594 718> 1272 109<549 673>
VStem: 51 338<513 888 513 902> 770 289<1119 1178>
AnchorPoint: "Anchor-4" 623 0 basechar 0
AnchorPoint: "Anchor-3" 602 1366 basechar 0
LayerCount: 2
Fore
SplineSet
641 -20 m 0
 256 -20 51 215 51 666 c 0
 51 1139 252 1380 639 1380 c 0
 887 1380 1059 1270 1059 1110 c 0
 1059 1012 987 934 895 934 c 0
 829 934 764 973 737 1028 c 1
 757 1063 770 1102 770 1137 c 0
 770 1219 715 1272 631 1272 c 0
 467 1272 389 1075 389 700 c 0
 389 325 480 119 709 119 c 0
 818 119 926 172 1020 272 c 1
 1087 207 l 1
 958 64 795 -20 641 -20 c 0
EndSplineSet
EndChar

StartChar: D
Encoding: 68 68 8
Width: 1359
GlyphClass: 2
Flags: HMW
HStem: 0 127<61 715> 1239 127<487 508 508 573 487 487> 1286 80<61 508>
VStem: 184 303<143 1223 1223 1223> 987 322<490 879>
AnchorPoint: "Anchor-3" 639 1366 basechar 0
LayerCount: 2
Fore
SplineSet
61 0 m 1xd8
 70 84 l 1
 119 94 147 108 184 143 c 1
 184 1223 l 1
 159 1246 120 1266 61 1286 c 1xb8
 70 1366 l 1
 508 1366 l 2
 1069 1366 1309 1157 1309 682 c 0
 1309 207 1067 0 496 0 c 2
 61 0 l 1xd8
567 127 m 0
 862 127 987 297 987 684 c 0
 987 1073 868 1239 573 1239 c 2
 487 1239 l 1xd8
 487 135 l 1
 512 129 530 127 567 127 c 0
EndSplineSet
EndChar

StartChar: E
Encoding: 69 69 9
Width: 1144
GlyphClass: 2
Flags: HMW
HStem: 0 84<61 70 70 70 70 1073> 0 127<487 846 487 1073> 0 393<1011 1037 1011 1073> 643 120 1014 352<975 1000> 1241 125<487 831 487 487> 1290 76<61 1063>
VStem: 186 301<135 651 756 1231 1231 1231> 793 106<483 907 483 907>
AnchorPoint: "Anchor-3" 612 1366 basechar 0
AnchorPoint: "Anchor-2" 993 0 basechar 0
LayerCount: 2
Fore
SplineSet
61 0 m 1x5580
 70 84 l 1
 113 90 166 112 186 135 c 1
 186 1231 l 1
 153 1260 110 1280 61 1290 c 1x9380
 68 1366 l 1
 1063 1366 l 1x5580
 1071 1028 l 1
 1044 1020 1016 1014 985 1014 c 0
 965 1014 943 1018 920 1022 c 1x5980
 897 1126 872 1186 831 1241 c 1
 487 1241 l 1
 487 756 l 1
 678 770 l 2
 727 774 773 827 793 907 c 1
 899 907 l 1
 899 483 l 1
 793 483 l 1
 754 594 723 631 676 635 c 2
 487 651 l 1
 487 127 l 1
 846 127 l 1x5580
 889 190 922 276 942 387 c 1
 971 391 995 393 1026 393 c 0
 1049 393 1071 391 1094 387 c 1x3580
 1073 0 l 1
 61 0 l 1x5580
EndSplineSet
EndChar

StartChar: F
Encoding: 70 70 10
Width: 1093
GlyphClass: 1
Flags: HMW
HStem: 0 84<61 70 70 70 70 627> 643 120 1016 350<970 994> 1241 125<487 821 487 487> 1290 76<61 1044>
VStem: 186 301<145 651 756 1231 1231 1231> 793 106<483 907 483 907>
LayerCount: 2
Fore
SplineSet
61 0 m 1xd6
 70 84 l 1
 113 90 166 112 186 135 c 1
 186 1231 l 1
 153 1260 110 1280 61 1290 c 1xce
 68 1366 l 1
 1044 1366 l 1xd6
 1063 1028 l 1
 1034 1020 1008 1016 981 1016 c 0
 958 1016 934 1018 909 1022 c 1xe6
 886 1126 862 1186 821 1241 c 1
 487 1241 l 1
 487 756 l 1
 678 770 l 2
 727 774 773 827 793 907 c 1
 899 907 l 1
 899 483 l 1
 793 483 l 1
 754 594 723 631 676 635 c 2
 487 651 l 1
 487 145 l 1
 518 116 571 94 641 80 c 1
 627 0 l 1
 61 0 l 1xd6
EndSplineSet
EndChar

StartChar: G
Encoding: 71 71 11
Width: 1200
GlyphClass: 2
Flags: HMW
HStem: -20 139<593 730> 598 90 1272 109<565 719>
VStem: 51 317<502 889 502 901> 834 287<1116 1178> 838 301<147 518 518 518>
AnchorPoint: "Anchor-5" 633 0 basechar 0
AnchorPoint: "Anchor-3" 653 1366 basechar 0
LayerCount: 2
Fore
SplineSet
641 -20 m 0xf4
 254 -20 51 217 51 666 c 0
 51 1137 262 1380 670 1380 c 0
 936 1380 1120 1270 1120 1110 c 0
 1120 1012 1048 934 956 934 c 0
 890 934 826 973 799 1028 c 1
 822 1065 834 1100 834 1133 c 0xf8
 834 1223 777 1272 662 1272 c 0
 469 1272 369 1077 369 700 c 0
 369 303 478 119 709 119 c 0
 754 119 797 129 838 147 c 1
 838 518 l 1
 805 563 746 594 678 598 c 1
 688 680 l 1
 1139 696 l 1
 1139 135 l 1
 1002 37 819 -20 641 -20 c 0xf4
EndSplineSet
EndChar

StartChar: H
Encoding: 72 72 12
Width: 1472
GlyphClass: 2
Flags: HMW
HStem: 0 84<61 70 70 70 70 627> 635 129<487 956 487 956> 1221 145<186 186 487 487 956 956 1257 1257> 1282 84<629 629> 1286 80<61 641 1382 1382>
VStem: 186 301<145 635 764 1221> 956 301<145 635 635 635 764 1221 145 1221>
AnchorPoint: "Anchor-3" 731 1366 basechar 0
LayerCount: 2
Fore
SplineSet
61 0 m 1xd6
 70 84 l 1
 123 94 149 108 186 145 c 1
 186 1221 l 1xe6
 155 1248 114 1268 61 1286 c 1xce
 70 1366 l 1
 641 1366 l 1
 629 1282 l 1xd6
 563 1270 528 1256 487 1221 c 1
 487 764 l 1
 956 764 l 1
 956 1221 l 1xe6
 915 1256 881 1270 815 1282 c 1
 825 1366 l 1
 1395 1366 l 1xd6
 1382 1286 l 1xce
 1331 1270 1290 1250 1257 1221 c 1xe6
 1257 145 l 1
 1288 116 1341 94 1411 80 c 1
 1397 0 l 1
 831 0 l 1
 840 84 l 1
 893 94 919 108 956 145 c 1
 956 635 l 1
 487 635 l 1
 487 145 l 1
 518 116 571 94 641 80 c 1
 627 0 l 1
 61 0 l 1xd6
EndSplineSet
EndChar

StartChar: I
Encoding: 73 73 13
Width: 733
GlyphClass: 2
Flags: HMW
HStem: 0 84<61 70 70 70 70 657> 1282 84<61 672 659 659>
VStem: 217 301<145 1221 145 1221>
AnchorPoint: "Anchor-3" 369 1366 basechar 0
AnchorPoint: "Anchor-2" 356 0 basechar 0
LayerCount: 2
Fore
SplineSet
61 0 m 1
 70 84 l 1
 136 94 178 112 217 145 c 1
 217 1221 l 1
 188 1250 118 1274 61 1282 c 1
 72 1366 l 1
 672 1366 l 1
 659 1282 l 1
 593 1270 559 1256 518 1221 c 1
 518 145 l 1
 549 116 602 98 672 84 c 1
 657 0 l 1
 61 0 l 1
EndSplineSet
EndChar

StartChar: J
Encoding: 74 74 14
Width: 696
GlyphClass: 2
Flags: HMW
HStem: -446 43G<31 31> 1282 84<41 651 639 639>
VStem: 197 301<2 33 33 1221>
AnchorPoint: "Anchor-3" 348 1366 basechar 0
LayerCount: 2
Fore
SplineSet
31 -446 m 1
 -12 -334 l 1
 90 -281 197 -195 197 2 c 2
 197 1221 l 1
 168 1250 98 1274 41 1282 c 1
 51 1366 l 1
 651 1366 l 1
 639 1282 l 1
 573 1270 539 1256 498 1221 c 1
 498 33 l 2
 498 -243 314 -374 31 -446 c 1
EndSplineSet
EndChar

StartChar: K
Encoding: 75 75 15
Width: 1392
GlyphClass: 2
Flags: HMW
HStem: 0 84<61 70 70 70 70 627> 1282 84<629 629> 1286 80<61 641 858 886 1346 1346>
VStem: 186 301<145 1221 145 1221>
AnchorPoint: "Anchor-5" 676 0 basechar 0
LayerCount: 2
Fore
SplineSet
61 0 m 1xb0
 70 84 l 1
 123 94 149 108 186 145 c 1
 186 1221 l 1
 155 1248 114 1268 61 1286 c 1
 70 1366 l 1
 641 1366 l 1xb0
 629 1282 l 1
 563 1270 528 1256 487 1221 c 1xd0
 487 145 l 1
 518 116 571 94 641 80 c 1
 627 0 l 1
 61 0 l 1xb0
911 0 m 1
 909 47 901 78 874 119 c 2
 516 713 l 1
 946 1190 l 2
 958 1204 965 1219 965 1231 c 0
 965 1268 913 1286 858 1286 c 1
 846 1366 l 1
 1358 1366 l 1
 1346 1286 l 1
 1262 1280 1206 1253 1165 1206 c 2
 813 815 l 1
 1202 178 l 2
 1231 133 1291 104 1393 84 c 1
 1378 0 l 1
 911 0 l 1
EndSplineSet
EndChar

StartChar: L
Encoding: 76 76 16
Width: 1107
GlyphClass: 2
Flags: HMW
HStem: 0 84<63 72 72 72 72 1075> 0 127<489 848 489 1075> 0 393<1014 1039 1014 1075> 1282 84<61 643 631 631>
VStem: 188 301<135 1221 127 1221>
AnchorPoint: "Anchor-5" 569 0 basechar 0
AnchorPoint: "Anchor-3" 344 1366 basechar 0
LayerCount: 2
Fore
SplineSet
63 0 m 1x58
 72 84 l 1
 115 90 168 112 188 135 c 1x98
 188 1221 l 1
 157 1248 114 1264 61 1282 c 1
 72 1366 l 1
 643 1366 l 1
 631 1282 l 1
 565 1270 530 1256 489 1221 c 1
 489 127 l 1
 848 127 l 1x58
 891 190 924 276 944 387 c 1
 971 391 999 393 1028 393 c 0
 1051 393 1073 391 1096 387 c 1x38
 1075 0 l 1
 63 0 l 1x58
EndSplineSet
EndChar

StartChar: M
Encoding: 77 77 17
Width: 1730
GlyphClass: 1
Flags: HMW
HStem: 0 84<61 70 70 70 70 504> 1286 80<61 532 1640 1640>
VStem: 186 178<145 985 145 1221> 1223 293<145 1040 1040 1040>
LayerCount: 2
Fore
SplineSet
61 0 m 1
 70 84 l 1
 123 94 149 108 186 145 c 1
 186 1221 l 1
 155 1248 114 1268 61 1286 c 1
 70 1366 l 1
 532 1366 l 1
 866 444 l 1
 1153 1366 l 1
 1653 1366 l 1
 1640 1286 l 1
 1589 1270 1549 1250 1516 1221 c 1
 1516 145 l 1
 1547 116 1599 94 1669 80 c 1
 1655 0 l 1
 1100 0 l 1
 1108 84 l 1
 1161 94 1188 108 1223 145 c 1
 1223 1040 l 1
 1221 1040 l 1
 889 0 l 1
 731 0 l 1
 367 985 l 1
 365 985 l 1
 365 145 l 1
 396 116 448 94 518 80 c 1
 504 0 l 1
 61 0 l 1
EndSplineSet
EndChar

StartChar: N
Encoding: 78 78 18
Width: 1404
GlyphClass: 2
Flags: HMW
HStem: 0 84<61 70 70 70 70 504> 1221 145<186 186 1038 1038 1217 1217> 1282 84 1286 80<61 473 1341 1341>
VStem: 186 178<145 942 145 1221> 1038 178<375 1221 0 1221>
AnchorPoint: "Anchor-5" 723 0 basechar 0
AnchorPoint: "Anchor-3" 705 1366 basechar 0
LayerCount: 2
Fore
SplineSet
61 0 m 1x9c
 70 84 l 1
 123 94 149 108 186 145 c 1
 186 1221 l 1xcc
 155 1248 114 1268 61 1286 c 1
 70 1366 l 1
 473 1366 l 1x9c
 1038 375 l 1
 1038 1221 l 1xcc
 997 1256 963 1270 897 1282 c 1xac
 907 1366 l 1
 1354 1366 l 1
 1341 1286 l 1x9c
 1290 1270 1250 1250 1217 1221 c 1xcc
 1217 0 l 1
 905 0 l 1
 365 942 l 1
 365 145 l 1
 396 116 448 94 518 80 c 1
 504 0 l 1
 61 0 l 1x9c
EndSplineSet
EndChar

StartChar: O
Encoding: 79 79 19
Width: 1325
GlyphClass: 2
Flags: HMW
HStem: -20 119<566 760 566 867> 1270 119<566 760>
VStem: 51 338<477 893 477 914> 934 340<477 893>
AnchorPoint: "Anchor-3" 664 1366 basechar 0
LayerCount: 2
Fore
SplineSet
664 -20 m 0
 258 -20 51 227 51 686 c 0
 51 1143 258 1389 664 1389 c 0
 1072 1389 1274 1143 1274 686 c 0
 1274 227 1072 -20 664 -20 c 0
664 98 m 0
 857 98 934 268 934 686 c 0
 934 1100 857 1270 664 1270 c 0
 469 1270 389 1100 389 686 c 0
 389 268 469 98 664 98 c 0
EndSplineSet
Substitution2: "Single Substitution lookup 12 subtable" ordmasculine
Substitution2: "'aalt' Access All Alternates in Latin lookup 0 subtable" ordmasculine
EndChar

StartChar: P
Encoding: 80 80 20
Width: 1214
GlyphClass: 1
Flags: HMW
HStem: 0 84<61 70 70 70 70 627> 573 129<598 621 621 700 487 800> 1241 125<592 647 647 697> 1286 80<61 647>
VStem: 186 301<145 580 702 1221 1221 1221> 864 317<889 1064>
LayerCount: 2
Fore
SplineSet
61 0 m 1xec
 70 84 l 1
 121 94 149 108 186 145 c 1
 186 1221 l 1
 159 1246 120 1266 61 1286 c 1xdc
 70 1366 l 1
 647 1366 l 2
 1003 1366 1182 1239 1182 985 c 0
 1182 719 980 573 618 573 c 0
 577 573 516 578 487 580 c 1
 487 145 l 1
 516 116 569 94 641 80 c 1
 627 0 l 1
 61 0 l 1xec
487 702 m 1
 621 702 l 2
 781 702 864 797 864 981 c 0
 864 1147 775 1241 621 1241 c 0
 564 1241 526 1239 487 1233 c 1xec
 487 702 l 1
EndSplineSet
EndChar

StartChar: Q
Encoding: 81 81 21
Width: 1325
GlyphClass: 1
Flags: HMW
HStem: -8 43G -8 106 1270 119<566 760>
VStem: 51 338<480 893 477 914> 934 340<486 893>
LayerCount: 2
Fore
SplineSet
1059 -356 m 1xb8
 776 -313 637 -172 545 -12 c 1
 217 31 51 274 51 686 c 0
 51 1143 258 1389 664 1389 c 0
 1072 1389 1274 1143 1274 686 c 0
 1274 287 1120 47 813 -8 c 1
 858 -133 954 -234 1083 -283 c 0
 1085 -289 1085 -293 1085 -299 c 0
 1085 -322 1073 -348 1059 -356 c 1xb8
664 98 m 0x78
 857 98 934 268 934 686 c 0
 934 1100 857 1270 664 1270 c 0
 469 1270 389 1100 389 686 c 0
 389 268 469 98 664 98 c 0x78
EndSplineSet
EndChar

StartChar: R
Encoding: 82 82 22
Width: 1310
GlyphClass: 2
Flags: HMW
HStem: 0 84<61 70 70 70 70 627> 616 127 1241 125<592 647 647 694> 1286 80<61 647>
VStem: 186 301<145 618 743 1221 1221 1221> 854 317<919 1078>
AnchorPoint: "Anchor-5" 725 0 basechar 0
AnchorPoint: "Anchor-3" 621 1366 basechar 0
LayerCount: 2
Fore
SplineSet
61 0 m 1xec
 70 84 l 1
 121 94 149 108 186 145 c 1
 186 1221 l 1
 159 1246 120 1266 61 1286 c 1xdc
 70 1366 l 1
 647 1366 l 2
 997 1366 1171 1248 1171 1006 c 0
 1171 832 1079 712 905 655 c 1
 942 630 981 590 1012 520 c 2
 1165 156 l 2
 1183 113 1237 96 1290 84 c 1
 1276 0 l 1
 903 0 l 1
 705 535 l 2
 689 580 650 612 580 614 c 2
 487 618 l 1
 487 145 l 1
 516 116 569 94 641 80 c 1
 627 0 l 1
 61 0 l 1xec
487 743 m 1
 621 743 l 2
 775 743 854 829 854 1001 c 0
 854 1155 768 1241 621 1241 c 0
 564 1241 526 1239 487 1233 c 1xec
 487 743 l 1
EndSplineSet
EndChar

StartChar: S
Encoding: 83 83 23
Width: 968
GlyphClass: 2
Flags: HMW
HStem: -14 113<423 509 423 610> 1272 111<436 549>
VStem: 29 186<90 436 401 436> 31 272<1048 1115> 647 291<269 367> 674 238<1128 1187>
AnchorPoint: "Anchor-5" 467 0 basechar 0
AnchorPoint: "Anchor-4" 498 0 basechar 0
AnchorPoint: "Anchor-3" 477 1366 basechar 0
LayerCount: 2
Fore
SplineSet
469 -14 m 0xd8
 315 -14 158 22 29 90 c 1
 29 401 l 1
 215 436 l 1
 223 321 252 186 281 133 c 1
 340 110 396 98 451 98 c 0
 568 98 647 174 647 303 c 0xe8
 647 430 565 512 391 586 c 0
 123 701 31 799 31 1008 c 0
 31 1223 225 1382 489 1382 c 0
 722 1382 911 1263 911 1116 c 0
 911 1024 858 965 778 965 c 0
 727 965 678 983 623 1026 c 1
 656 1063 674 1108 674 1149 c 0xd4
 674 1225 605 1272 494 1272 c 0
 379 1272 303 1206 303 1108 c 0
 303 987 365 921 584 825 c 0
 836 714 938 602 938 397 c 0
 938 141 752 -14 469 -14 c 0xd8
EndSplineSet
EndChar

StartChar: T
Encoding: 84 84 24
Width: 1202
GlyphClass: 2
Flags: HMW
HStem: 0 84<295 303 303 303 303 891> 983 391<25 104> 1239 135 1241 133
VStem: 25 141<989 989> 451 301<145 1239 1239 1239> 1036 141<989 989>
AnchorPoint: "Anchor-5" 604 0 basechar 0
AnchorPoint: "Anchor-3" 604 1366 basechar 0
LayerCount: 2
Fore
SplineSet
295 0 m 1x9e
 303 84 l 1
 366 92 410 110 451 145 c 1
 451 1239 l 1
 371 1237 303 1231 244 1227 c 1xae
 201 1168 168 1069 166 989 c 1
 141 985 117 983 92 983 c 0
 69 983 48 985 25 989 c 1xce
 25 1374 l 1
 25 1374 326 1366 600 1366 c 0
 766 1366 1149 1372 1178 1374 c 1x9e
 1178 989 l 1
 1155 985 1133 983 1110 983 c 0
 1085 983 1061 985 1036 989 c 1xce
 1026 1081 998 1170 963 1225 c 1
 902 1233 832 1239 752 1241 c 1
 752 145 l 1
 781 118 829 98 905 84 c 1
 891 0 l 1
 295 0 l 1x9e
EndSplineSet
EndChar

StartChar: U
Encoding: 85 85 25
Width: 1423
GlyphClass: 2
Flags: HMW
HStem: -14 137<681 883 681 908> 1221 145<193 193 494 494 1239 1239> 1282 84<37 647 635 635> 1286 80<1374 1374>
VStem: 193 301<426 1221> 1044 195<457 461 461 1221>
AnchorPoint: "Anchor-3" 764 1366 basechar 0
AnchorPoint: "Anchor-2" 879 0 basechar 0
LayerCount: 2
Fore
SplineSet
737 -14 m 0xac
 372 -14 193 131 193 426 c 2
 193 1221 l 1
 166 1248 98 1272 37 1282 c 1
 47 1366 l 1
 647 1366 l 1
 635 1282 l 1
 565 1268 533 1254 494 1221 c 1
 494 426 l 2
 494 227 581 123 780 123 c 0
 985 123 1044 271 1044 457 c 2
 1044 1225 l 1
 1005 1256 952 1268 889 1282 c 1
 899 1366 l 1
 1386 1366 l 1xac
 1374 1286 l 1x9c
 1315 1268 1272 1248 1239 1221 c 1xcc
 1239 461 l 2
 1239 144 1079 -14 737 -14 c 0xac
EndSplineSet
EndChar

StartChar: V
Encoding: 86 86 26
Width: 1294
GlyphClass: 1
Flags: HMW
HStem: 0 43G<502 502 502 709> 1284 82<-12 559 547 547 1288 1288>
VStem: -12 1311<1284 1366>
LayerCount: 2
Fore
SplineSet
502 0 m 1
 121 1194 l 2
 107 1239 62 1272 -12 1284 c 1
 -2 1366 l 1
 559 1366 l 1
 547 1284 l 1
 492 1282 451 1270 420 1239 c 1
 698 379 l 1
 997 1223 l 1
 960 1256 899 1276 836 1284 c 1
 846 1366 l 1
 1298 1366 l 1
 1288 1284 l 1
 1216 1282 1167 1256 1153 1217 c 2
 709 0 l 1
 502 0 l 1
EndSplineSet
EndChar

StartChar: W
Encoding: 87 87 27
Width: 1964
GlyphClass: 2
Flags: HMW
HStem: 0 43G<465 465 465 672 1219 1219 1219 1425> 1284 82<-8 563 551 551 1962 1962>
VStem: -8 1980<1284 1366>
AnchorPoint: "Anchor-3" 1044 1366 basechar 0
LayerCount: 2
Fore
SplineSet
465 0 m 1
 121 1194 l 2
 107 1247 62 1268 -8 1284 c 1
 2 1366 l 1
 563 1366 l 1
 551 1284 l 1
 496 1282 455 1270 422 1239 c 1
 662 379 l 1
 952 1366 l 1
 1133 1366 l 1
 1415 379 l 1
 1673 1221 l 1
 1636 1256 1572 1276 1509 1284 c 1
 1520 1366 l 1
 1972 1366 l 1
 1962 1284 l 1
 1896 1282 1843 1260 1831 1221 c 2
 1425 0 l 1
 1219 0 l 1
 956 881 l 1
 672 0 l 1
 465 0 l 1
EndSplineSet
EndChar

StartChar: X
Encoding: 88 88 28
Width: 1261
GlyphClass: 1
Flags: HMW
HStem: 0 82<4 14 14 14 14 457> 1278 82<762 1225 1214 1214> 1284 82<14 586 573 573>
VStem: 4 1253<0 82>
LayerCount: 2
Fore
SplineSet
4 0 m 1xb0
 14 82 l 1
 67 84 118 98 141 133 c 2
 487 645 l 1
 125 1227 l 2
 107 1256 73 1272 14 1284 c 1
 25 1366 l 1
 586 1366 l 1
 573 1284 l 1
 522 1282 488 1270 459 1241 c 1xb0
 680 885 l 1
 903 1219 l 1
 870 1252 817 1270 762 1278 c 1
 772 1360 l 1
 1225 1360 l 1
 1214 1278 l 1
 1144 1274 1105 1256 1085 1227 c 2xd0
 764 748 l 1
 1153 125 l 1
 1182 98 1220 88 1257 82 c 1
 1247 0 l 1
 686 0 l 1
 698 82 l 1
 747 84 784 96 813 125 c 1
 573 508 l 1
 326 139 l 1
 359 108 412 90 467 82 c 1
 457 0 l 1
 4 0 l 1xb0
EndSplineSet
EndChar

StartChar: Y
Encoding: 89 89 29
Width: 1202
GlyphClass: 2
Flags: HMW
HStem: 0 84<303 311 311 311 311 868> 1284 82<-12 553 541 541 1202 1202>
VStem: 428 301<145 549 145 551 145 551>
AnchorPoint: "Anchor-3" 643 1366 basechar 0
LayerCount: 2
Fore
SplineSet
303 0 m 1
 311 84 l 1
 354 90 408 112 428 135 c 1
 428 551 l 1
 117 1204 l 2
 97 1247 58 1270 -12 1284 c 1
 -2 1366 l 1
 553 1366 l 1
 541 1284 l 1
 486 1282 445 1270 414 1239 c 1
 657 731 l 1
 907 1223 l 1
 870 1256 806 1276 743 1284 c 1
 754 1366 l 1
 1212 1366 l 1
 1202 1284 l 1
 1132 1282 1089 1260 1073 1229 c 2
 729 549 l 1
 729 145 l 1
 760 116 813 94 883 80 c 1
 868 0 l 1
 303 0 l 1
EndSplineSet
EndChar

StartChar: Z
Encoding: 90 90 30
Width: 1134
GlyphClass: 2
Flags: HMW
HStem: -4 125 1249 121 1292 78 1305 66
VStem: 61 186
AnchorPoint: "Anchor-3" 606 1366 basechar 0
LayerCount: 2
Fore
SplineSet
57 -4 m 1xc8
 49 92 l 1
 717 1247 l 1
 649 1249 584 1249 518 1249 c 0
 450 1249 388 1249 322 1247 c 1xc8
 297 1216 266 1108 248 993 c 1
 225 989 201 987 176 987 c 0
 141 987 107 994 74 1004 c 1
 49 1305 l 1x98
 125 1370 l 1
 172 1368 407 1366 610 1366 c 0
 760 1366 911 1366 1067 1370 c 1xc8
 1087 1292 l 1xa8
 401 121 l 1
 538 117 688 119 827 121 c 1
 870 182 909 283 934 389 c 1
 959 395 989 397 1016 397 c 0
 1043 397 1069 395 1087 391 c 1
 1069 -4 l 1
 977 -4 719 0 526 0 c 0
 393 0 133 0 57 -4 c 1xc8
EndSplineSet
EndChar

StartChar: a
Encoding: 97 97 31
Width: 1075
GlyphClass: 2
Flags: HMW
HStem: -14 133<244 469> 0 72<664 1040> 451 98 928 80<439 534>
VStem: 45 270<218 323 218 331> 88 256<807 847> 629 289<231 455 455 455 555 674 674 684 127 769>
AnchorPoint: "Anchor-3" 483 991 basechar 0
AnchorPoint: "Anchor-2" 870 0 basechar 0
LayerCount: 2
Fore
SplineSet
338 -14 m 0xba
 150 -14 45 76 45 242 c 0x7a
 45 420 183 525 449 543 c 2
 629 555 l 1
 629 674 l 2
 629 864 590 928 477 928 c 0
 401 928 344 882 344 823 c 0
 344 790 360 760 389 737 c 1
 375 669 320 625 246 625 c 0
 156 625 88 688 88 774 c 0
 88 919 235 1008 477 1008 c 0
 768 1008 918 897 918 684 c 2
 918 127 l 1
 936 107 987 82 1040 72 c 1
 1032 0 l 1
 664 0 l 1x76
 643 117 l 1
 553 27 457 -14 338 -14 c 0xba
438 119 m 0
 499 119 561 151 629 231 c 1
 629 455 l 1
 526 446 l 2
 376 434 315 381 315 264 c 0
 315 172 360 119 438 119 c 0
EndSplineSet
Substitution2: "Single Substitution lookup 12 subtable" ordfeminine
Substitution2: "'aalt' Access All Alternates in Latin lookup 0 subtable" ordfeminine
EndChar

StartChar: b
Encoding: 98 98 32
Width: 1163
GlyphClass: 1
Flags: HMW
HStem: -14 109<599 669 564 793> 0 43G<168 322 168 168> 885 123<672 701>
VStem: 168 289<133 549 870 1143 1143 1194> 813 299<386 647>
LayerCount: 2
Fore
SplineSet
649 -14 m 0xb8
 549 -14 457 6 375 51 c 1xb8
 355 37 336 18 322 0 c 1
 168 0 l 1x78
 168 1143 l 2
 168 1245 133 1274 41 1278 c 1
 45 1358 l 1
 133 1374 342 1404 422 1427 c 1
 457 1407 l 1
 457 870 l 1
 516 960 608 1008 735 1008 c 0
 977 1008 1112 841 1112 528 c 0
 1112 170 936 -14 649 -14 c 0xb8
592 94 m 0
 746 94 813 248 813 524 c 0
 813 770 760 885 643 885 c 0
 528 885 457 772 457 549 c 2
 457 133 l 1
 486 113 537 94 592 94 c 0
EndSplineSet
EndChar

StartChar: c
Encoding: 99 99 33
Width: 921
GlyphClass: 2
Flags: HMW
HStem: -14 119<503 607> 907 94<462 545>
VStem: 51 301<362 640 362 652> 616 274<805 845>
AnchorPoint: "Anchor-4" 516 0 basechar 0
AnchorPoint: "Anchor-3" 547 991 basechar 0
LayerCount: 2
Fore
SplineSet
537 -14 m 0
 218 -14 51 157 51 483 c 0
 51 821 220 1001 535 1001 c 0
 746 1001 891 916 891 793 c 0
 891 713 821 651 731 651 c 0
 668 651 608 688 592 737 c 1
 608 762 616 790 616 819 c 0
 616 870 573 907 516 907 c 0
 407 907 352 772 352 508 c 0
 352 217 418 104 588 104 c 0
 674 104 760 141 838 213 c 1
 911 139 l 1
 819 43 678 -14 537 -14 c 0
EndSplineSet
EndChar

StartChar: d
Encoding: 100 100 34
Width: 1167
GlyphClass: 1
Flags: HMW
HStem: -14 123<462 495> 0 72<741 1118> 897 111<497 548 360 600>
VStem: 51 299<346 607 346 645> 707 289<479 858 858 858 958 1143 1143 1194>
LayerCount: 2
Fore
SplineSet
428 -14 m 0xb8
 186 -14 51 150 51 469 c 0
 51 821 217 1008 504 1008 c 0
 592 1008 648 989 707 958 c 1
 707 1143 l 2
 707 1245 669 1274 563 1278 c 1
 569 1358 l 1
 659 1374 879 1404 961 1427 c 1
 995 1407 l 1
 995 127 l 1
 1018 107 1067 82 1118 72 c 1
 1110 0 l 1
 741 0 l 1x78
 715 133 l 1
 656 35 561 -14 428 -14 c 0xb8
520 109 m 0
 641 109 707 233 707 479 c 2
 707 858 l 1
 678 878 626 897 573 897 c 0
 419 897 350 745 350 469 c 0
 350 223 403 109 520 109 c 0
EndSplineSet
EndChar

StartChar: e
Encoding: 101 101 35
Width: 1050
GlyphClass: 2
Flags: HMW
HStem: -14 141<482 627 482 636> 498 90 907 100<467 596>
VStem: 51 293<358 465 465 498 358 580 358 646> 688 291<584 700>
AnchorPoint: "Anchor-3" 524 991 basechar 0
AnchorPoint: "Anchor-2" 827 0 basechar 0
LayerCount: 2
Fore
SplineSet
528 -14 m 0
 200 -14 51 186 51 487 c 0
 51 804 219 1008 545 1008 c 0
 869 1008 965 846 979 584 c 1
 922 498 l 1
 344 498 l 1
 344 465 l 2
 344 252 388 127 578 127 c 0
 676 127 782 160 860 240 c 1
 942 160 l 1
 848 66 743 -14 528 -14 c 0
344 580 m 1
 688 596 l 1
 688 805 656 907 537 907 c 0
 398 907 348 770 344 580 c 1
EndSplineSet
EndChar

StartChar: f
Encoding: 102 102 36
Width: 686
GlyphClass: 1
Flags: HMW
HStem: 0 74<41 49 49 49 49 643> 850 82<12 184 12 23> 850 129<23 184 473 686> 1372 80<505 580>
VStem: 184 248<979 1244 1170 1178> 184 289<127 850 127 850 979 1013 127 1069 127 1178> 637 209<1278 1317>
LayerCount: 2
Fore
SplineSet
41 0 m 1xb4
 49 74 l 1
 110 84 143 94 184 127 c 1
 184 850 l 1
 23 850 l 1xb4
 12 932 l 1xd4
 61 940 133 956 184 979 c 1
 184 1069 l 2xb4
 184 1286 332 1452 563 1452 c 0
 674 1452 846 1401 846 1260 c 0
 846 1164 780 1122 717 1122 c 0
 662 1122 608 1155 596 1210 c 1
 623 1233 637 1263 637 1292 c 0
 637 1341 608 1372 551 1372 c 0xba
 459 1372 432 1284 432 1204 c 0
 432 1136 473 1047 473 979 c 1
 686 979 l 1
 686 850 l 1
 473 850 l 1
 473 127 l 1
 512 100 581 82 649 70 c 1
 643 0 l 1
 41 0 l 1xb4
EndSplineSet
EndChar

StartChar: g
Encoding: 103 103 37
Width: 1040
GlyphClass: 2
Flags: HMW
HStem: -449 115<459 625 459 696> 0 172<522 559 373 608> 301 100<473 506 473 473> 905 102<458 559>
VStem: 37 266<-220 -137> 80 289<564 737 548 760> 657 272<553 692 540 736> 758 221<1073 1086 1021 1096> 786 238<-219 -106> 807 172<992 1086>
AnchorPoint: "Anchor-3" 504 991 basechar 0
LayerCount: 2
Fore
SplineSet
541 -449 m 0xf880
 219 -449 37 -356 37 -190 c 0
 37 -84 86 -2 197 72 c 1
 177 105 166 146 166 195 c 1xf880
 344 319 l 1
 178 364 80 483 80 645 c 0
 80 874 236 1008 506 1008 c 0
 617 1008 708 983 778 940 c 1
 796 956 807 979 807 1006 c 0xf440
 807 1035 789 1057 758 1073 c 1xf5
 758 1118 805 1161 864 1161 c 0
 934 1161 979 1118 979 1055 c 0xf440
 979 987 926 912 854 877 c 1
 903 818 930 739 930 645 c 0xf6
 930 434 764 301 506 301 c 2
 473 301 l 1
 403 213 l 1
 407 182 440 172 522 172 c 2
 608 172 l 2
 880 172 1024 64 1024 -137 c 0
 1024 -338 852 -449 541 -449 c 0xf880
506 401 m 0xf6
 621 401 657 461 657 645 c 0
 657 827 612 905 506 905 c 0
 410 905 369 829 369 645 c 0
 369 450 395 401 506 401 c 0xf6
541 -334 m 0xf880
 709 -334 786 -279 786 -160 c 0
 786 -54 711 0 559 0 c 2
 373 0 l 1
 324 -49 303 -97 303 -160 c 0
 303 -281 377 -334 541 -334 c 0xf880
EndSplineSet
EndChar

StartChar: h
Encoding: 104 104 38
Width: 1228
GlyphClass: 2
Flags: HMW
HStem: 0 80<674 674 674 1188 668 674> 2 84<61 70 70 70 70 582> 2 135<61 176 176 176> 870 137<612 850>
VStem: 176 291<137 760 879 1145 1145 1196> 774 291<135 674 674 692 135 740>
AnchorPoint: "Anchor-3" 737 1366 basechar 0
LayerCount: 2
Fore
SplineSet
61 2 m 1x5c
 70 86 l 1x5c
 119 96 143 106 176 137 c 1x3c
 176 1145 l 2
 176 1247 143 1276 49 1280 c 1
 55 1360 l 1
 141 1376 352 1407 430 1430 c 1
 467 1409 l 1
 467 879 l 1
 537 957 639 1008 758 1008 c 0
 942 1008 1065 891 1065 692 c 2
 1065 135 l 1
 1088 117 1135 92 1194 80 c 1
 1188 0 l 1
 668 0 l 1
 674 80 l 1
 713 88 747 106 774 135 c 1x9c
 774 674 l 2
 774 807 733 870 647 870 c 0
 577 870 508 828 467 760 c 1
 467 137 l 1
 496 112 539 94 590 82 c 1x3c
 582 2 l 1
 61 2 l 1x5c
EndSplineSet
EndChar

StartChar: i
Encoding: 105 105 39
Width: 630
GlyphClass: 2
Flags: HMW
HStem: 0 84<68 76 76 76 76 594> 0 135<68 182 182 182> 948 41G<471 471> 967 41G<436 436> 1130 287<252 361>
VStem: 143 326<1229 1320> 182 289<135 725 725 775>
AnchorPoint: "Anchor-3" 305 991 basechar 0
AnchorPoint: "Anchor-2" 461 0 basechar 0
LayerCount: 2
Fore
SplineSet
307 1130 m 0x9c
 196 1130 143 1184 143 1274 c 0
 143 1366 196 1417 307 1417 c 0
 416 1417 469 1366 469 1274 c 0
 469 1184 416 1130 307 1130 c 0x9c
68 0 m 1
 76 84 l 1x9a
 125 94 149 104 182 135 c 1
 182 725 l 2
 182 825 149 854 55 858 c 1
 61 938 l 1
 147 954 358 985 436 1008 c 1x5a
 471 989 l 1
 471 135 l 1
 496 117 543 92 602 80 c 1x6a
 594 0 l 1x9a
 68 0 l 1
EndSplineSet
Substitution2: "Single Substitution lookup 10 subtable" dotlessi
Substitution2: "'locl' Localized Forms in Latin lookup 3 per glyph data 6" i.loclTRK
Substitution2: "'locl' Localized Forms in Latin lookup 3 per glyph data 5" i.loclTRK
Substitution2: "'locl' Localized Forms in Latin lookup 3 per glyph data 4" i.loclTRK
Substitution2: "'locl' Localized Forms in Latin lookup 3 per glyph data 3" i.loclTRK
Substitution2: "'locl' Localized Forms in Latin lookup 3 per glyph data 1" i.loclTRK
Substitution2: "'aalt' Access All Alternates in Latin lookup 0 subtable" i.loclTRK
EndChar

StartChar: j
Encoding: 106 106 40
Width: 608
GlyphClass: 2
Flags: HMW
HStem: -446 102<120 155 120 200> 948 41G<465 465> 967 41G<430 430> 1130 287<209 318>
VStem: -106 193<-297 -264 -297 -237> 100 326<1229 1320> 176 289<127 725 725 775> 201 264<-255 -68>
AnchorPoint: "Anchor-3" 262 991 basechar 0
LayerCount: 2
Fore
SplineSet
264 1130 m 0xb4
 153 1130 100 1184 100 1274 c 0
 100 1366 153 1417 264 1417 c 0
 373 1417 426 1366 426 1274 c 0
 426 1184 373 1130 264 1130 c 0xb4
147 -446 m 0xda
 18 -446 -106 -389 -106 -274 c 0
 -106 -198 -53 -147 23 -147 c 0
 58 -147 94 -164 117 -199 c 1
 99 -217 86 -248 86 -281 c 0
 86 -314 104 -344 135 -344 c 0xb9
 174 -344 201 -289 201 -221 c 0
 201 -84 176 -37 176 127 c 2
 176 725 l 2
 176 825 143 854 49 858 c 1
 55 938 l 1
 141 954 352 985 430 1008 c 1xb2
 465 989 l 1
 465 -68 l 2
 465 -164 455 -258 412 -330 c 0
 363 -410 251 -446 147 -446 c 0xda
EndSplineSet
Substitution2: "Single Substitution lookup 10 subtable" uni0237
EndChar

StartChar: k
Encoding: 107 107 41
Width: 1206
GlyphClass: 2
Flags: HMW
HStem: 0 84<61 70 70 70 70 590> 911 80<682 688 1143 1143>
VStem: 176 291<135 338 539 1143 1143 1194>
AnchorPoint: "Anchor-5" 627 0 basechar 0
LayerCount: 2
Fore
SplineSet
61 0 m 1
 70 84 l 1
 119 94 145 104 176 135 c 1
 176 1143 l 2
 176 1245 143 1274 49 1278 c 1
 55 1358 l 1
 141 1374 352 1404 430 1427 c 1
 467 1407 l 1
 467 539 l 1
 754 815 l 2
 764 827 770 840 770 852 c 0
 770 899 711 911 666 911 c 1
 682 991 l 1
 1159 991 l 1
 1143 911 l 1
 1102 909 1020 897 963 831 c 2
 768 639 l 1
 1077 156 l 1
 1114 121 1162 96 1223 84 c 1
 1208 0 l 1
 823 0 l 1
 821 47 811 78 786 119 c 2
 578 449 l 1
 467 338 l 1
 467 135 l 1
 490 117 537 92 596 80 c 1
 590 0 l 1
 61 0 l 1
EndSplineSet
EndChar

StartChar: l
Encoding: 108 108 42
Width: 636
GlyphClass: 2
Flags: HMW
HStem: 0 84<61 70 70 70 70 590> 0 135<61 176 176 176>
VStem: 176 291<135 1143 1143 1194>
AnchorPoint: "Anchor-5" 334 0 basechar 0
AnchorPoint: "Anchor-3" 313 1366 basechar 0
LayerCount: 2
Fore
SplineSet
61 0 m 1xa0
 70 84 l 1xa0
 119 94 143 104 176 135 c 1
 176 1143 l 2
 176 1245 143 1274 49 1278 c 1
 55 1358 l 1
 141 1374 352 1404 430 1427 c 1
 467 1407 l 1
 467 135 l 1
 490 117 537 92 596 80 c 1x60
 590 0 l 1
 61 0 l 1xa0
EndSplineSet
EndChar

StartChar: m
Encoding: 109 109 43
Width: 1824
GlyphClass: 1
Flags: HMW
HStem: 0 80<70 596 596 670> 870 137<412 465 1283 1287> 948 41G<449 449>
VStem: 184 289<135 725 725 758 135 775> 776 289<135 674 674 692 135 740> 1370 289<135 674 674 692 135 740>
LayerCount: 2
Fore
SplineSet
70 0 m 1xdc
 76 84 l 1
 127 94 149 104 184 135 c 1
 184 725 l 2
 184 825 149 854 55 858 c 1
 61 938 l 1
 149 954 334 985 412 1008 c 1xdc
 449 989 l 1xbc
 465 870 l 1
 535 954 635 1008 758 1008 c 0
 889 1008 989 946 1036 840 c 1
 1104 942 1215 1008 1352 1008 c 0
 1536 1008 1659 891 1659 692 c 2
 1659 135 l 1
 1684 117 1731 92 1790 80 c 1
 1782 0 l 1
 1264 0 l 1
 1270 80 l 1
 1307 88 1341 106 1370 135 c 1
 1370 674 l 2
 1370 807 1329 870 1245 870 c 0
 1171 870 1098 822 1061 748 c 1
 1063 730 1065 710 1065 692 c 2
 1065 135 l 1
 1096 110 1137 92 1188 80 c 1
 1180 0 l 1
 670 0 l 1
 676 80 l 1
 713 88 747 106 776 135 c 1
 776 674 l 2
 776 807 735 870 651 870 c 0
 581 870 512 826 473 758 c 1
 473 135 l 1
 504 110 545 92 596 80 c 1
 588 0 l 1
 70 0 l 1xdc
EndSplineSet
EndChar

StartChar: n
Encoding: 110 110 44
Width: 1236
GlyphClass: 2
Flags: HMW
HStem: 0 80<70 596> 870 137<412 465> 948 41G<449 449>
VStem: 184 289<135 725 725 758 135 775> 782 289<135 674 674 692 135 740>
AnchorPoint: "Anchor-5" 643 0 basechar 0
AnchorPoint: "Anchor-3" 653 991 basechar 0
LayerCount: 2
Fore
SplineSet
70 0 m 1xd8
 76 84 l 1
 127 94 149 104 184 135 c 1
 184 725 l 2
 184 825 149 854 55 858 c 1
 61 938 l 1
 149 954 334 985 412 1008 c 1xd8
 449 989 l 1xb8
 465 870 l 1
 537 954 641 1008 766 1008 c 0
 948 1008 1071 891 1071 692 c 2
 1071 135 l 1
 1096 117 1143 92 1202 80 c 1
 1194 0 l 1
 676 0 l 1
 682 80 l 1
 721 88 755 106 782 135 c 1
 782 674 l 2
 782 807 741 870 655 870 c 0
 585 870 512 826 473 758 c 1
 473 135 l 1
 504 110 545 92 596 80 c 1
 588 0 l 1
 70 0 l 1xd8
EndSplineSet
Substitution2: "'sups' Superscript in Latin lookup 5 subtable" uni207F
Substitution2: "'aalt' Access All Alternates in Latin lookup 0 subtable" uni207F
EndChar

StartChar: o
Encoding: 111 111 45
Width: 1085
GlyphClass: 2
Flags: HMW
HStem: -14 115<476 609 476 707> 893 115<476 609>
VStem: 51 301<355 636 355 659> 733 301<355 636>
AnchorPoint: "Anchor-3" 545 989 basechar 0
LayerCount: 2
Fore
SplineSet
543 -14 m 0
 215 -14 51 162 51 494 c 0
 51 826 215 1008 543 1008 c 0
 871 1008 1034 828 1034 496 c 0
 1034 164 871 -14 543 -14 c 0
543 100 m 0
 676 100 733 215 733 496 c 0
 733 777 676 893 543 893 c 0
 410 893 352 777 352 496 c 0
 352 215 410 100 543 100 c 0
EndSplineSet
Substitution2: "Single Substitution lookup 12 subtable" ordmasculine
Substitution2: "'aalt' Access All Alternates in Latin lookup 0 subtable" ordmasculine
EndChar

StartChar: p
Encoding: 112 112 46
Width: 1173
GlyphClass: 1
Flags: HMW
HStem: -432 80<61 616> -432 84<61 70 70 70 70 608> -432 135<61 176 176 176> -14 109<625 677 572 813> 885 123<676 711> 948 41G<432 432>
VStem: 176 266 176 289<-297 35 -297 135 135 549> 821 301<386 647>
LayerCount: 2
Fore
SplineSet
61 -432 m 1x5980
 70 -348 l 1x5980
 119 -338 143 -328 176 -297 c 1
 176 725 l 2
 176 825 143 854 49 858 c 1
 55 938 l 1x3980
 141 954 317 985 395 1008 c 1x5a80
 432 989 l 1x5680
 453 852 l 1x5a80
 512 956 608 1008 743 1008 c 0
 985 1008 1122 843 1122 524 c 0
 1122 170 957 -14 670 -14 c 0
 580 -14 524 4 465 35 c 1
 465 -297 l 1x3980
 494 -315 546 -340 616 -352 c 1x9980
 608 -432 l 1
 61 -432 l 1x5980
600 94 m 0
 754 94 821 248 821 524 c 0
 821 770 768 885 653 885 c 0
 538 885 465 772 465 549 c 2
 465 135 l 1
 492 115 545 94 600 94 c 0
EndSplineSet
EndChar

StartChar: q
Encoding: 113 113 47
Width: 1144
GlyphClass: 1
Flags: HMW
HStem: -432 84<551 557 557 557 557 1098> -14 123<462 492> 903 104<494 558 370 598> 950 41G<844 995 995 995>
VStem: 51 299<367 629 367 665> 707 289<-297 121 121 121 479 836 836 836>
LayerCount: 2
Fore
SplineSet
551 -432 m 1xec
 557 -348 l 1
 627 -338 660 -328 707 -297 c 1
 707 121 l 1
 648 31 555 -14 428 -14 c 0
 186 -14 51 164 51 496 c 0
 51 834 229 1008 510 1008 c 0
 606 1008 690 983 774 926 c 1xec
 844 991 l 1
 995 991 l 1xdc
 995 -297 l 1
 1015 -315 1055 -340 1104 -352 c 1
 1098 -432 l 1
 551 -432 l 1xec
520 109 m 0
 641 109 707 233 707 479 c 2
 707 836 l 1
 676 871 631 903 565 903 c 0
 422 903 350 760 350 498 c 0
 350 236 403 109 520 109 c 0
EndSplineSet
EndChar

StartChar: r
Encoding: 114 114 48
Width: 929
GlyphClass: 2
Flags: HMW
HStem: 0 84<70 76 76 76 76 588> 852 154<596 780> 948 41G<449 449>
VStem: 184 289<135 723 135 725 135 775> 715 211<768 801>
AnchorPoint: "Anchor-5" 346 0 basechar 0
AnchorPoint: "Anchor-3" 526 991 basechar 0
LayerCount: 2
Fore
SplineSet
70 0 m 1xb0
 76 84 l 1
 127 94 149 104 184 135 c 1
 184 725 l 2
 184 825 149 854 55 858 c 1
 61 938 l 1
 149 954 334 985 412 1008 c 1xd0
 449 989 l 1xb0
 465 854 l 1
 524 940 614 1006 729 1006 c 0
 831 1006 926 928 926 817 c 0
 926 713 854 659 786 659 c 0
 747 659 711 676 686 711 c 1
 706 736 715 758 715 778 c 0
 715 823 670 852 625 852 c 0
 568 852 506 801 473 723 c 1xd8
 473 135 l 1
 504 110 545 92 596 80 c 1
 588 0 l 1
 70 0 l 1xb0
EndSplineSet
EndChar

StartChar: s
Encoding: 115 115 49
Width: 909
GlyphClass: 2
Flags: HMW
HStem: -16 102<409 469 409 557> 918 92<423 502>
VStem: 61 211<92 348 317 348> 63 266<741 819 741 821> 571 272<194 263> 592 244<804 849>
AnchorPoint: "Anchor-5" 430 0 basechar 0
AnchorPoint: "Anchor-4" 463 0 basechar 0
AnchorPoint: "Anchor-3" 471 991 basechar 0
LayerCount: 2
Fore
SplineSet
424 -16 m 0xd8
 318 -16 141 37 61 92 c 1
 61 317 l 1
 272 348 l 1
 274 260 295 139 315 104 c 1
 354 92 389 86 428 86 c 0
 510 86 571 145 571 223 c 0xe8
 571 303 516 361 358 414 c 0
 161 482 63 575 63 735 c 0
 63 907 213 1010 463 1010 c 0
 668 1010 836 923 836 817 c 0
 836 721 778 659 690 659 c 0
 633 659 582 684 551 727 c 1
 578 756 592 788 592 819 c 0xd4
 592 878 541 918 463 918 c 0
 383 918 330 862 330 776 c 0
 330 706 383 663 557 602 c 0
 756 530 844 434 844 291 c 0
 844 96 690 -16 424 -16 c 0xd8
EndSplineSet
EndChar

StartChar: t
Encoding: 116 116 50
Width: 747
GlyphClass: 2
Flags: HMW
HStem: -8 147<346 578> 846 133<455 719 457 719 457 719>
VStem: 164 291<231 248 248 846> 164 293<231 1196 846 1196>
AnchorPoint: "Anchor-5" 395 0 basechar 0
LayerCount: 2
Fore
SplineSet
414 -8 m 0xe0
 279 -8 164 59 164 231 c 2
 164 846 l 1
 18 846 l 1
 18 940 l 1
 149 989 261 1075 324 1196 c 1xe0
 457 1196 l 1
 457 979 l 1xd0
 719 979 l 1
 719 846 l 1
 455 846 l 1
 455 248 l 2
 455 168 498 139 553 139 c 0
 602 139 659 161 700 190 c 1
 741 119 l 1
 655 41 529 -8 414 -8 c 0xe0
EndSplineSet
EndChar

StartChar: u
Encoding: 117 117 51
Width: 1247
GlyphClass: 2
Flags: HMW
HStem: -14 137<377 613> 0 72<795 1192> 948 41G<451 451 1051 1051> 967 41G<416 416 1014 1014>
VStem: 162 289<301 319 319 725 725 775> 762 289<236 725 725 775>
AnchorPoint: "Anchor-3" 600 991 basechar 0
AnchorPoint: "Anchor-2" 991 0 basechar 0
LayerCount: 2
Fore
SplineSet
469 -14 m 0x9c
 285 -14 162 102 162 301 c 2
 162 725 l 2
 162 825 127 854 35 858 c 1
 41 938 l 1
 127 954 338 985 416 1008 c 1x5c
 451 989 l 1x6c
 451 319 l 2
 451 186 494 123 578 123 c 0
 650 123 721 166 762 236 c 1
 762 725 l 2
 762 825 727 854 633 858 c 1
 639 938 l 1
 725 954 936 985 1014 1008 c 1x9c
 1051 989 l 1
 1051 127 l 1
 1076 107 1135 82 1192 72 c 1
 1186 0 l 1
 795 0 l 1x6c
 774 131 l 1
 702 43 596 -14 469 -14 c 0x9c
EndSplineSet
EndChar

StartChar: v
Encoding: 118 118 52
Width: 1062
GlyphClass: 1
Flags: HMW
HStem: 0 43G<391 391 391 602> 920 72<-31 510 500 500 1059 1059>
VStem: -31 1098<920 991>
LayerCount: 2
Fore
SplineSet
391 0 m 1
 96 834 l 2
 76 891 18 912 -31 920 c 1
 -27 991 l 1
 510 991 l 1
 500 920 l 1
 457 918 418 908 383 881 c 1
 586 309 l 1
 811 874 l 1
 770 901 727 912 678 920 c 1
 686 991 l 1
 1067 991 l 1
 1059 920 l 1
 1014 918 972 897 952 870 c 1
 602 0 l 1
 391 0 l 1
EndSplineSet
EndChar

StartChar: w
Encoding: 119 119 53
Width: 1595
GlyphClass: 2
Flags: HMW
HStem: 0 43G<356 356 356 567 967 967 967 1178> 920 72<-31 510 500 500 1589 1589>
VStem: -31 1628<920 991>
AnchorPoint: "Anchor-3" 860 991 basechar 0
LayerCount: 2
Fore
SplineSet
356 0 m 1
 86 856 l 1
 59 897 10 912 -31 920 c 1
 -27 991 l 1
 510 991 l 1
 500 920 l 1
 455 918 416 908 379 877 c 1
 539 315 l 1
 770 991 l 1
 954 991 l 1
 1149 313 l 1
 1339 874 l 1
 1298 901 1257 912 1208 920 c 1
 1217 991 l 1
 1597 991 l 1
 1589 920 l 1
 1540 918 1497 893 1479 862 c 2
 1178 0 l 1
 967 0 l 1
 780 610 l 1
 567 0 l 1
 356 0 l 1
EndSplineSet
EndChar

StartChar: x
Encoding: 120 120 54
Width: 1075
GlyphClass: 1
Flags: HMW
HStem: 0 80<10 399> 0 84<10 25 25 25 25 387 565 582> 905 84<512 512> 907 84<1028 1028> 909 80<18 526>
VStem: 10 1049<0 80>
LayerCount: 2
Fore
SplineSet
10 0 m 1x54
 25 84 l 1
 56 86 86 93 104 113 c 2
 399 457 l 1
 113 862 l 2
 90 893 53 901 18 909 c 1x4c
 31 989 l 1
 526 989 l 1
 512 905 l 1
 479 901 452 895 432 879 c 1x64
 588 659 l 1
 756 868 l 1
 731 891 697 903 662 909 c 1x4c
 674 991 l 1
 1040 991 l 1
 1028 907 l 1
 989 905 952 899 932 874 c 2
 666 549 l 1
 967 127 l 2
 987 98 1024 86 1059 80 c 1x94
 1047 0 l 1
 549 0 l 1
 565 84 l 1
 598 84 625 95 645 111 c 1x54
 477 348 l 1
 283 121 l 1
 316 103 356 88 399 80 c 1x94
 387 0 l 1
 10 0 l 1x54
EndSplineSet
EndChar

StartChar: y
Encoding: 121 121 55
Width: 1067
GlyphClass: 2
Flags: HMW
HStem: -451 119<249 289 249 299> 0 43G<391 461 391 391> 920 72<-31 510 500 500 1059 1059>
VStem: 12 199<-288 -256 -288 -251>
AnchorPoint: "Anchor-3" 598 991 basechar 0
LayerCount: 2
Fore
SplineSet
231 -451 m 0
 92 -451 12 -393 12 -293 c 0
 12 -209 61 -158 131 -158 c 0
 168 -158 204 -174 233 -207 c 1
 219 -219 211 -243 211 -268 c 0
 211 -307 231 -332 266 -332 c 0
 311 -332 346 -287 399 -156 c 2
 461 0 l 1
 391 0 l 1
 96 834 l 2
 80 879 37 908 -31 920 c 1
 -27 991 l 1
 510 991 l 1
 500 920 l 1
 449 918 412 906 383 881 c 1
 586 309 l 1
 811 874 l 1
 776 897 737 910 678 920 c 1
 686 991 l 1
 1067 991 l 1
 1059 920 l 1
 1016 918 964 903 952 870 c 2
 516 -211 l 2
 446 -383 366 -451 231 -451 c 0
EndSplineSet
EndChar

StartChar: z
Encoding: 122 122 56
Width: 950
GlyphClass: 2
Flags: HMW
HStem: 0 115<397 512 512 520> 885 111 920 76 934 61
VStem: 55 834<86 317 317 934> 65 198
AnchorPoint: "Anchor-3" 518 991 basechar 0
LayerCount: 2
Fore
SplineSet
63 -4 m 1xc8
 55 86 l 1
 545 881 l 1
 502 883 461 885 418 885 c 0
 381 885 344 883 307 881 c 1
 293 854 274 778 262 696 c 1
 225 690 197 688 174 688 c 0
 141 688 111 695 74 707 c 1xc4
 55 934 l 1x94
 131 995 l 1
 201 991 351 991 498 991 c 0xc4
 609 991 751 991 868 995 c 1xc8
 889 920 l 1xa8
 385 115 l 1
 512 115 l 2
 555 115 600 115 643 115 c 1
 670 158 695 231 713 315 c 1
 748 323 776 328 799 328 c 0
 830 328 866 321 889 317 c 1
 877 59 l 1
 805 -2 l 1
 674 2 578 0 463 0 c 0
 332 0 151 -2 63 -4 c 1xc8
EndSplineSet
EndChar

StartChar: Aacute
Encoding: 193 193 57
Width: 1337
GlyphClass: 2
Flags: HMW
HStem: 0 82<-8 4 4 4 4 455> 426 129<434 768 434 811 389 768> 1325 41G<565 778 778 778>
VStem: -8 1352<0 82>
AnchorPoint: "Anchor-3" 672 1366 basechar 0
AnchorPoint: "Anchor-2" 1317 0 basechar 0
LayerCount: 2
Fore
SplineSet
616 1460 m 1
 547 1528 l 1
 711 1772 l 2
 746 1823 788 1841 827 1841 c 0
 884 1841 922 1802 922 1745 c 0
 922 1708 903 1663 856 1630 c 2
 616 1460 l 1
-8 0 m 1
 4 82 l 1
 74 84 121 108 133 143 c 2
 565 1366 l 1
 778 1366 l 1
 1214 164 l 2
 1230 119 1267 96 1343 82 c 1
 1333 0 l 1
 772 0 l 1
 784 82 l 1
 841 90 887 106 907 133 c 1
 811 426 l 1
 389 426 l 1
 291 143 l 1
 330 110 395 90 465 82 c 1
 455 0 l 1
 -8 0 l 1
434 555 m 1
 768 555 l 1
 608 1047 l 1
 434 555 l 1
EndSplineSet
EndChar

StartChar: Abreve
Encoding: 258 258 58
Width: 1337
GlyphClass: 2
Flags: HMW
HStem: 0 82<-8 4 4 4 4 455> 426 129<434 768 434 811 389 768> 1325 41G<565 778 778 778> 1468 160<624 720 624 754>
VStem: 379 123 842 121
AnchorPoint: "Anchor-3" 672 1366 basechar 0
AnchorPoint: "Anchor-2" 1317 0 basechar 0
LayerCount: 2
Fore
SplineSet
672 1468 m 0
 508 1468 393 1577 379 1747 c 1
 416 1765 441 1769 502 1769 c 1
 516 1679 576 1628 672 1628 c 0
 768 1628 828 1679 842 1769 c 1
 899 1769 926 1763 963 1749 c 1
 949 1579 836 1468 672 1468 c 0
-8 0 m 1
 4 82 l 1
 74 84 121 108 133 143 c 2
 565 1366 l 1
 778 1366 l 1
 1214 164 l 2
 1230 119 1267 96 1343 82 c 1
 1333 0 l 1
 772 0 l 1
 784 82 l 1
 841 90 887 106 907 133 c 1
 811 426 l 1
 389 426 l 1
 291 143 l 1
 330 110 395 90 465 82 c 1
 455 0 l 1
 -8 0 l 1
434 555 m 1
 768 555 l 1
 608 1047 l 1
 434 555 l 1
EndSplineSet
EndChar

StartChar: Acircumflex
Encoding: 194 194 59
Width: 1337
GlyphClass: 2
Flags: HMW
HStem: 0 82<-8 4 4 4 4 455> 426 129<434 768 434 811 389 768> 1325 41G<565 778 778 778>
VStem: -8 1352<0 82>
AnchorPoint: "Anchor-3" 672 1366 basechar 0
AnchorPoint: "Anchor-2" 1317 0 basechar 0
LayerCount: 2
Fore
SplineSet
426 1470 m 1
 367 1546 l 1
 561 1765 l 2
 596 1804 631 1821 680 1821 c 0
 723 1821 747 1804 782 1765 c 2
 977 1546 l 1
 918 1470 l 1
 672 1640 l 1
 426 1470 l 1
-8 0 m 1
 4 82 l 1
 74 84 121 108 133 143 c 2
 565 1366 l 1
 778 1366 l 1
 1214 164 l 2
 1230 119 1267 96 1343 82 c 1
 1333 0 l 1
 772 0 l 1
 784 82 l 1
 841 90 887 106 907 133 c 1
 811 426 l 1
 389 426 l 1
 291 143 l 1
 330 110 395 90 465 82 c 1
 455 0 l 1
 -8 0 l 1
434 555 m 1
 768 555 l 1
 608 1047 l 1
 434 555 l 1
EndSplineSet
EndChar

StartChar: Adieresis
Encoding: 196 196 60
Width: 1337
GlyphClass: 2
Flags: HMW
HStem: 0 82<-8 4 4 4 4 455> 426 129<434 768 434 811 389 768> 1325 41G<565 778 778 778> 1520 229<457 548 791 882>
VStem: 371 268<1598 1672> 705 268<1598 1672>
AnchorPoint: "Anchor-3" 672 1366 basechar 0
AnchorPoint: "Anchor-2" 1317 0 basechar 0
LayerCount: 2
Fore
SplineSet
504 1520 m 0
 410 1520 371 1560 371 1636 c 0
 371 1708 410 1749 504 1749 c 0
 592 1749 639 1708 639 1636 c 0
 639 1560 592 1520 504 1520 c 0
838 1520 m 0
 744 1520 705 1560 705 1636 c 0
 705 1708 744 1749 838 1749 c 0
 926 1749 973 1708 973 1636 c 0
 973 1560 926 1520 838 1520 c 0
-8 0 m 1
 4 82 l 1
 74 84 121 108 133 143 c 2
 565 1366 l 1
 778 1366 l 1
 1214 164 l 2
 1230 119 1267 96 1343 82 c 1
 1333 0 l 1
 772 0 l 1
 784 82 l 1
 841 90 887 106 907 133 c 1
 811 426 l 1
 389 426 l 1
 291 143 l 1
 330 110 395 90 465 82 c 1
 455 0 l 1
 -8 0 l 1
434 555 m 1
 768 555 l 1
 608 1047 l 1
 434 555 l 1
EndSplineSet
EndChar

StartChar: Agrave
Encoding: 192 192 61
Width: 1337
GlyphClass: 2
Flags: HMW
HStem: 0 82<-8 4 4 4 4 455> 426 129<434 768 434 811 389 768> 1325 41G<565 778 778 778>
VStem: -8 1352<0 82>
AnchorPoint: "Anchor-3" 672 1366 basechar 0
AnchorPoint: "Anchor-2" 1317 0 basechar 0
LayerCount: 2
Fore
SplineSet
723 1462 m 1
 483 1632 l 2
 436 1665 416 1700 416 1741 c 0
 416 1804 455 1843 512 1843 c 0
 553 1843 594 1825 629 1774 c 2
 793 1530 l 1
 723 1462 l 1
-8 0 m 1
 4 82 l 1
 74 84 121 108 133 143 c 2
 565 1366 l 1
 778 1366 l 1
 1214 164 l 2
 1230 119 1267 96 1343 82 c 1
 1333 0 l 1
 772 0 l 1
 784 82 l 1
 841 90 887 106 907 133 c 1
 811 426 l 1
 389 426 l 1
 291 143 l 1
 330 110 395 90 465 82 c 1
 455 0 l 1
 -8 0 l 1
434 555 m 1
 768 555 l 1
 608 1047 l 1
 434 555 l 1
EndSplineSet
EndChar

StartChar: Amacron
Encoding: 256 256 62
Width: 1337
GlyphClass: 2
Flags: HMW
HStem: 0 82<-8 4 4 4 4 455> 426 129<434 768 434 811 389 768> 1325 41G<565 778 778 778> 1563 139<354 991 354 991>
VStem: -8 1352<0 82>
AnchorPoint: "Anchor-3" 672 1366 basechar 0
AnchorPoint: "Anchor-2" 1317 0 basechar 0
LayerCount: 2
Fore
SplineSet
354 1563 m 1
 354 1702 l 1
 991 1702 l 1
 991 1563 l 1
 354 1563 l 1
-8 0 m 1
 4 82 l 1
 74 84 121 108 133 143 c 2
 565 1366 l 1
 778 1366 l 1
 1214 164 l 2
 1230 119 1267 96 1343 82 c 1
 1333 0 l 1
 772 0 l 1
 784 82 l 1
 841 90 887 106 907 133 c 1
 811 426 l 1
 389 426 l 1
 291 143 l 1
 330 110 395 90 465 82 c 1
 455 0 l 1
 -8 0 l 1
434 555 m 1
 768 555 l 1
 608 1047 l 1
 434 555 l 1
EndSplineSet
EndChar

StartChar: Aogonek
Encoding: 260 260 63
Width: 1335
GlyphClass: 1
Flags: HMW
HStem: -418 121<894 1024> 0 82<-4 -4 -4 446 -16 -4> 426 129<426 760 426 803 381 760> 1325 41G<557 770 770 770>
VStem: 752 178<-239 -203>
LayerCount: 2
Fore
SplineSet
944 -418 m 0
 844 -418 752 -357 752 -248 c 0
 752 -158 842 -91 887 -23 c 0
 905 0 915 24 915 49 c 0
 915 78 907 102 899 133 c 2
 803 426 l 1
 381 426 l 1
 283 143 l 1
 322 110 387 90 457 82 c 1
 446 0 l 1
 -16 0 l 1
 -4 82 l 1
 49 84 98 98 121 133 c 1
 557 1366 l 1
 770 1366 l 1
 1210 152 l 1
 1237 107 1286 90 1335 82 c 1
 1325 0 l 1
 1161 0 l 2
 1009 0 930 -137 930 -213 c 0
 930 -264 963 -297 1006 -297 c 0
 1043 -297 1077 -275 1106 -250 c 1
 1159 -322 l 1
 1106 -385 1024 -418 944 -418 c 0
426 555 m 1
 760 555 l 1
 600 1047 l 1
 426 555 l 1
EndSplineSet
EndChar

StartChar: Aring
Encoding: 197 197 64
Width: 1337
GlyphClass: 2
Flags: HMW
HStem: 0 82<-8 4 4 4 4 455> 426 129<434 768 434 811 389 768> 1325 41G<565 778 778 778> 1442 96<642 701 642 742> 1765 96<642 701>
VStem: 442 147<1619 1682 1619 1709> 756 147<1619 1682>
AnchorPoint: "Anchor-3" 672 1366 basechar 0
AnchorPoint: "Anchor-2" 1317 0 basechar 0
LayerCount: 2
Fore
SplineSet
672 1442 m 0
 531 1442 442 1534 442 1651 c 0
 442 1768 531 1862 672 1862 c 0
 813 1862 903 1768 903 1651 c 0
 903 1534 813 1442 672 1442 c 0
672 1538 m 0
 731 1538 756 1588 756 1651 c 0
 756 1714 731 1765 672 1765 c 0
 613 1765 590 1714 590 1651 c 0
 590 1588 613 1538 672 1538 c 0
-8 0 m 1
 4 82 l 1
 74 84 121 108 133 143 c 2
 565 1366 l 1
 778 1366 l 1
 1214 164 l 2
 1230 119 1267 96 1343 82 c 1
 1333 0 l 1
 772 0 l 1
 784 82 l 1
 841 90 887 106 907 133 c 1
 811 426 l 1
 389 426 l 1
 291 143 l 1
 330 110 395 90 465 82 c 1
 455 0 l 1
 -8 0 l 1
434 555 m 1
 768 555 l 1
 608 1047 l 1
 434 555 l 1
EndSplineSet
EndChar

StartChar: Aringacute
Encoding: 506 506 65
Width: 1337
GlyphClass: 2
Flags: HMW
HStem: 0 82<4 4 4 455 -8 4> 426 129<434 768 434 811 389 768> 1325 41G<632 691> 1593 94<632 700>
VStem: 432 147<1447 1510 1447 1519> 745 147<1447 1510>
AnchorPoint: "Anchor-3" 672 1366 basechar 0
AnchorPoint: "Anchor-2" 1317 0 basechar 0
LayerCount: 2
Fore
SplineSet
1214 164 m 2
 1230 119 1267 96 1343 82 c 1
 1333 0 l 1
 772 0 l 1
 784 82 l 1
 841 90 887 106 907 133 c 1
 811 426 l 1
 389 426 l 1
 291 143 l 1
 330 110 395 90 465 82 c 1
 455 0 l 1
 -8 0 l 1
 4 82 l 1
 74 84 121 108 133 143 c 2
 541 1296 l 1
 471 1333 432 1401 432 1479 c 0
 432 1559 475 1630 547 1665 c 1
 518 1706 l 1
 721 1917 l 2
 764 1962 809 1972 848 1966 c 0
 905 1956 934 1910 924 1853 c 0
 918 1818 891 1776 840 1753 c 2
 700 1688 l 1
 819 1672 893 1583 893 1479 c 0
 893 1407 858 1344 799 1307 c 1
 1214 164 l 2
745 1479 m 0
 745 1542 721 1593 662 1593 c 0
 603 1593 580 1542 580 1479 c 0
 580 1416 603 1366 662 1366 c 0
 721 1366 745 1416 745 1479 c 0
434 555 m 1
 768 555 l 1
 608 1047 l 1
 434 555 l 1
EndSplineSet
EndChar

StartChar: Atilde
Encoding: 195 195 66
Width: 1337
GlyphClass: 2
Flags: HMW
HStem: 0 82<-8 4 4 4 4 455> 426 129<434 768 434 811 389 768> 1325 41G<565 778 778 778> 1499 178<763 825 763 845> 1579 180<520 583>
VStem: -8 1352<0 82>
AnchorPoint: "Anchor-3" 672 1366 basechar 0
AnchorPoint: "Anchor-2" 1317 0 basechar 0
LayerCount: 2
Fore
SplineSet
420 1501 m 1xec
 393 1511 349 1536 322 1567 c 1
 375 1682 455 1759 551 1759 c 0xec
 635 1759 721 1677 805 1677 c 0
 846 1677 891 1710 926 1757 c 1
 953 1747 997 1723 1024 1694 c 1
 971 1579 893 1499 797 1499 c 0xf4
 713 1499 625 1579 541 1579 c 0
 500 1579 457 1550 420 1501 c 1xec
-8 0 m 1xf4
 4 82 l 1
 74 84 121 108 133 143 c 2
 565 1366 l 1
 778 1366 l 1
 1214 164 l 2
 1230 119 1267 96 1343 82 c 1
 1333 0 l 1
 772 0 l 1
 784 82 l 1
 841 90 887 106 907 133 c 1
 811 426 l 1
 389 426 l 1
 291 143 l 1
 330 110 395 90 465 82 c 1
 455 0 l 1
 -8 0 l 1xf4
434 555 m 1
 768 555 l 1
 608 1047 l 1
 434 555 l 1
EndSplineSet
EndChar

StartChar: AE
Encoding: 198 198 67
Width: 1802
GlyphClass: 2
Flags: HMW
HStem: 0 82<-6 6 6 6 6 457> 0 84<725 733 733 733 733 1706> 0 127<1151 1479 1151 1706> 0 393<1644 1670 1644 1706> 426 129<510 850 510 850 444 850> 643 120 1014 352<1608 1633> 1241 125<1151 1464 1151 1151>
VStem: 850 301<135 426 426 426 555 651 756 1221 1221 1221> 1425 106<483 907 483 907>
AnchorPoint: "Anchor-5" 1030 0 basechar 0
AnchorPoint: "Anchor-3" 1145 1366 basechar 0
LayerCount: 2
Fore
SplineSet
-6 0 m 1x29c0
 6 82 l 1
 65 84 119 102 137 145 c 2
 768 1366 l 1
 1696 1366 l 1x89c0
 1704 1028 l 1
 1677 1020 1649 1014 1618 1014 c 0
 1598 1014 1575 1018 1552 1022 c 1x2ac0
 1529 1126 1505 1186 1464 1241 c 1
 1151 1241 l 1
 1151 756 l 1
 1311 770 l 2
 1360 774 1405 827 1425 907 c 1
 1532 907 l 1
 1532 483 l 1
 1425 483 l 1
 1386 594 1356 631 1309 635 c 2
 1151 651 l 1
 1151 127 l 1
 1479 127 l 1x2dc0
 1522 190 1555 276 1575 387 c 1
 1604 391 1628 393 1659 393 c 0
 1682 393 1703 391 1726 387 c 1x19c0
 1706 0 l 1
 725 0 l 1x29c0
 733 84 l 1
 776 90 830 112 850 135 c 1x49c0
 850 426 l 1
 444 426 l 1
 299 139 l 1
 340 106 401 90 467 82 c 1x89c0
 457 0 l 1
 -6 0 l 1x29c0
510 555 m 1
 850 555 l 1
 850 1221 l 1
 510 555 l 1
EndSplineSet
EndChar

StartChar: AEacute
Encoding: 508 508 68
Width: 1802
GlyphClass: 2
Flags: HMW
HStem: 0 82<-6 6 6 6 6 457> 0 84<725 733 733 733 733 1706> 0 127<1151 1479 1151 1706> 0 393<1644 1670 1644 1706> 426 129<510 850 510 850 444 850> 643 120 1014 352<1608 1633> 1241 125<1151 1464 1151 1151>
VStem: 850 301<135 426 426 426 555 651 756 1221 1221 1221> 1425 106<483 907 483 907>
AnchorPoint: "Anchor-5" 1030 0 basechar 0
AnchorPoint: "Anchor-3" 1145 1366 basechar 0
LayerCount: 2
Fore
SplineSet
1090 1460 m 1x29c0
 1020 1528 l 1
 1184 1772 l 2
 1219 1823 1261 1841 1300 1841 c 0
 1357 1841 1395 1802 1395 1745 c 0
 1395 1708 1376 1663 1329 1630 c 2
 1090 1460 l 1x29c0
-6 0 m 1
 6 82 l 1
 65 84 119 102 137 145 c 2
 768 1366 l 1
 1696 1366 l 1x89c0
 1704 1028 l 1
 1677 1020 1649 1014 1618 1014 c 0
 1598 1014 1575 1018 1552 1022 c 1x2ac0
 1529 1126 1505 1186 1464 1241 c 1
 1151 1241 l 1
 1151 756 l 1
 1311 770 l 2
 1360 774 1405 827 1425 907 c 1
 1532 907 l 1
 1532 483 l 1
 1425 483 l 1
 1386 594 1356 631 1309 635 c 2
 1151 651 l 1
 1151 127 l 1
 1479 127 l 1x2dc0
 1522 190 1555 276 1575 387 c 1
 1604 391 1628 393 1659 393 c 0
 1682 393 1703 391 1726 387 c 1x19c0
 1706 0 l 1
 725 0 l 1x29c0
 733 84 l 1
 776 90 830 112 850 135 c 1x49c0
 850 426 l 1
 444 426 l 1
 299 139 l 1
 340 106 401 90 467 82 c 1x89c0
 457 0 l 1
 -6 0 l 1
510 555 m 1
 850 555 l 1
 850 1221 l 1
 510 555 l 1
EndSplineSet
EndChar

StartChar: Cacute
Encoding: 262 262 69
Width: 1128
GlyphClass: 2
Flags: HMW
HStem: -20 139<594 718> 1272 109<549 673>
VStem: 51 338<513 888 513 902> 770 289<1119 1178>
AnchorPoint: "Anchor-4" 623 0 basechar 0
AnchorPoint: "Anchor-3" 602 1366 basechar 0
LayerCount: 2
Fore
SplineSet
547 1460 m 1
 477 1528 l 1
 641 1772 l 2
 676 1823 719 1841 758 1841 c 0
 815 1841 852 1802 852 1745 c 0
 852 1708 833 1663 786 1630 c 2
 547 1460 l 1
641 -20 m 0
 256 -20 51 215 51 666 c 0
 51 1139 252 1380 639 1380 c 0
 887 1380 1059 1270 1059 1110 c 0
 1059 1012 987 934 895 934 c 0
 829 934 764 973 737 1028 c 1
 757 1063 770 1102 770 1137 c 0
 770 1219 715 1272 631 1272 c 0
 467 1272 389 1075 389 700 c 0
 389 325 480 119 709 119 c 0
 818 119 926 172 1020 272 c 1
 1087 207 l 1
 958 64 795 -20 641 -20 c 0
EndSplineSet
EndChar

StartChar: Ccaron
Encoding: 268 268 70
Width: 1128
GlyphClass: 2
Flags: HMW
HStem: -20 139<594 718> 1272 109<549 673>
VStem: 51 338<513 888 513 902> 770 289<1119 1178>
AnchorPoint: "Anchor-4" 623 0 basechar 0
AnchorPoint: "Anchor-3" 602 1366 basechar 0
LayerCount: 2
Fore
SplineSet
602 1468 m 0
 557 1468 522 1485 487 1524 c 2
 293 1743 l 1
 352 1819 l 1
 598 1649 l 1
 844 1819 l 1
 903 1743 l 1
 709 1524 l 2
 680 1491 637 1468 602 1468 c 0
641 -20 m 0
 256 -20 51 215 51 666 c 0
 51 1139 252 1380 639 1380 c 0
 887 1380 1059 1270 1059 1110 c 0
 1059 1012 987 934 895 934 c 0
 829 934 764 973 737 1028 c 1
 757 1063 770 1102 770 1137 c 0
 770 1219 715 1272 631 1272 c 0
 467 1272 389 1075 389 700 c 0
 389 325 480 119 709 119 c 0
 818 119 926 172 1020 272 c 1
 1087 207 l 1
 958 64 795 -20 641 -20 c 0
EndSplineSet
EndChar

StartChar: Ccedilla
Encoding: 199 199 71
Width: 1128
GlyphClass: 2
Flags: HMW
HStem: -430 86<550 594 550 641> -20 139<666 666> 1272 109<549 673>
VStem: 51 338<513 888 513 902> 365 141<-278 -245 -278 -244> 645 152<-284 -219> 770 289<1119 1178>
AnchorPoint: "Anchor-4" 623 0 basechar 0
AnchorPoint: "Anchor-3" 602 1366 basechar 0
LayerCount: 2
Fore
SplineSet
1087 207 m 1xf2
 964 72 813 -12 666 -20 c 1
 655 -80 l 1
 741 -105 797 -146 797 -242 c 0
 797 -348 705 -430 578 -430 c 0
 426 -430 365 -340 365 -266 c 0
 365 -221 400 -178 461 -178 c 0
 479 -178 495 -183 524 -197 c 1
 512 -211 506 -233 506 -256 c 0
 506 -299 528 -344 571 -344 c 0
 616 -344 645 -313 645 -254 c 0
 645 -184 590 -156 524 -150 c 1
 481 -100 l 1xec
 551 -16 l 1
 225 19 51 252 51 666 c 0
 51 1139 252 1380 639 1380 c 0
 887 1380 1059 1270 1059 1110 c 0
 1059 1012 987 934 895 934 c 0
 829 934 764 973 737 1028 c 1
 757 1063 770 1102 770 1137 c 0
 770 1219 715 1272 631 1272 c 0
 467 1272 389 1075 389 700 c 0
 389 325 480 119 709 119 c 0
 818 119 926 172 1020 272 c 1
 1087 207 l 1xf2
EndSplineSet
EndChar

StartChar: Ccircumflex
Encoding: 264 264 72
Width: 1128
GlyphClass: 2
Flags: HMW
HStem: -20 139<594 718> 1272 109<549 673>
VStem: 51 338<513 888 513 902> 770 289<1119 1178>
AnchorPoint: "Anchor-4" 623 0 basechar 0
AnchorPoint: "Anchor-3" 602 1366 basechar 0
LayerCount: 2
Fore
SplineSet
356 1470 m 1
 297 1546 l 1
 492 1765 l 2
 527 1804 561 1821 610 1821 c 0
 653 1821 678 1804 713 1765 c 2
 907 1546 l 1
 848 1470 l 1
 602 1640 l 1
 356 1470 l 1
641 -20 m 0
 256 -20 51 215 51 666 c 0
 51 1139 252 1380 639 1380 c 0
 887 1380 1059 1270 1059 1110 c 0
 1059 1012 987 934 895 934 c 0
 829 934 764 973 737 1028 c 1
 757 1063 770 1102 770 1137 c 0
 770 1219 715 1272 631 1272 c 0
 467 1272 389 1075 389 700 c 0
 389 325 480 119 709 119 c 0
 818 119 926 172 1020 272 c 1
 1087 207 l 1
 958 64 795 -20 641 -20 c 0
EndSplineSet
EndChar

StartChar: Cdotaccent
Encoding: 266 266 73
Width: 1128
GlyphClass: 2
Flags: HMW
HStem: -20 139<594 718> 1272 109<549 673> 1495 287<545 654>
VStem: 51 338<513 888 513 902> 436 326<1593 1684> 770 289<1119 1178>
AnchorPoint: "Anchor-4" 623 0 basechar 0
AnchorPoint: "Anchor-3" 602 1366 basechar 0
LayerCount: 2
Fore
SplineSet
600 1495 m 0
 489 1495 436 1548 436 1638 c 0
 436 1730 489 1782 600 1782 c 0
 709 1782 762 1730 762 1638 c 0
 762 1548 709 1495 600 1495 c 0
641 -20 m 0xd4
 256 -20 51 215 51 666 c 0
 51 1139 252 1380 639 1380 c 0
 887 1380 1059 1270 1059 1110 c 0
 1059 1012 987 934 895 934 c 0
 829 934 764 973 737 1028 c 1
 757 1063 770 1102 770 1137 c 0
 770 1219 715 1272 631 1272 c 0
 467 1272 389 1075 389 700 c 0
 389 325 480 119 709 119 c 0
 818 119 926 172 1020 272 c 1
 1087 207 l 1
 958 64 795 -20 641 -20 c 0xd4
EndSplineSet
EndChar

StartChar: Dcaron
Encoding: 270 270 74
Width: 1359
GlyphClass: 2
Flags: HMW
HStem: 0 127<61 715> 1239 127<487 508 508 573 487 487> 1286 80<61 508>
VStem: 184 303<143 1223 1223 1223> 987 322<490 879>
AnchorPoint: "Anchor-3" 639 1366 basechar 0
LayerCount: 2
Fore
SplineSet
639 1468 m 0xd8
 594 1468 559 1485 524 1524 c 2
 330 1743 l 1
 389 1819 l 1
 635 1649 l 1
 881 1819 l 1
 940 1743 l 1
 745 1524 l 2
 716 1491 674 1468 639 1468 c 0xd8
61 0 m 1
 70 84 l 1
 119 94 147 108 184 143 c 1
 184 1223 l 1
 159 1246 120 1266 61 1286 c 1xb8
 70 1366 l 1
 508 1366 l 2
 1069 1366 1309 1157 1309 682 c 0
 1309 207 1067 0 496 0 c 2
 61 0 l 1
567 127 m 0
 862 127 987 297 987 684 c 0
 987 1073 868 1239 573 1239 c 2
 487 1239 l 1xd8
 487 135 l 1
 512 129 530 127 567 127 c 0
EndSplineSet
EndChar

StartChar: Dcroat
Encoding: 272 272 75
Width: 1452
GlyphClass: 2
Flags: HMW
HStem: 0 127<63 717> 598 139<41 186 41 186 489 784> 1239 127<489 510 510 575 489 489> 1286 80<63 510>
VStem: 186 303<143 598 135 598 737 1223 1223 1223> 989 322<490 879>
AnchorPoint: "Anchor-3" 641 1366 basechar 0
LayerCount: 2
Fore
SplineSet
510 1366 m 2xec
 1071 1366 1311 1157 1311 682 c 0
 1311 207 1069 0 498 0 c 2
 63 0 l 1
 72 84 l 1
 121 94 149 108 186 143 c 1
 186 598 l 1
 41 598 l 1
 41 737 l 1
 186 737 l 1
 186 1223 l 1
 161 1246 122 1266 63 1286 c 1xdc
 72 1366 l 1
 510 1366 l 2xec
569 127 m 0
 864 127 989 297 989 684 c 0
 989 1073 870 1239 575 1239 c 2
 489 1239 l 1
 489 737 l 1
 784 737 l 1
 784 598 l 1
 489 598 l 1
 489 135 l 1
 514 129 532 127 569 127 c 0
EndSplineSet
EndChar

StartChar: Eth
Encoding: 208 208 76
Width: 1452
GlyphClass: 2
Flags: HMW
HStem: 0 127<63 717> 598 139<41 186 41 186 489 784> 1239 127<489 510 510 575 489 489> 1286 80<63 510>
VStem: 186 303<143 598 135 598 737 1223 1223 1223> 989 322<490 879>
AnchorPoint: "Anchor-3" 641 1366 basechar 0
LayerCount: 2
Fore
SplineSet
510 1366 m 2xec
 1071 1366 1311 1157 1311 682 c 0
 1311 207 1069 0 498 0 c 2
 63 0 l 1
 72 84 l 1
 121 94 149 108 186 143 c 1
 186 598 l 1
 41 598 l 1
 41 737 l 1
 186 737 l 1
 186 1223 l 1
 161 1246 122 1266 63 1286 c 1xdc
 72 1366 l 1
 510 1366 l 2xec
569 127 m 0
 864 127 989 297 989 684 c 0
 989 1073 870 1239 575 1239 c 2
 489 1239 l 1
 489 737 l 1
 784 737 l 1
 784 598 l 1
 489 598 l 1
 489 135 l 1
 514 129 532 127 569 127 c 0
EndSplineSet
EndChar

StartChar: Eacute
Encoding: 201 201 77
Width: 1144
GlyphClass: 2
Flags: HMW
HStem: 0 84<61 70 70 70 70 1073> 0 127<487 846 487 1073> 0 393<1011 1037 1011 1073> 643 120 1014 352<975 1000> 1241 125<487 831 487 487> 1290 76<61 1063>
VStem: 186 301<135 651 756 1231 1231 1231> 793 106<483 907 483 907>
AnchorPoint: "Anchor-3" 612 1366 basechar 0
AnchorPoint: "Anchor-2" 993 0 basechar 0
LayerCount: 2
Fore
SplineSet
557 1460 m 1x5580
 487 1528 l 1
 651 1772 l 2
 686 1823 729 1841 768 1841 c 0
 825 1841 862 1802 862 1745 c 0
 862 1708 844 1663 797 1630 c 2
 557 1460 l 1x5580
61 0 m 1
 70 84 l 1
 113 90 166 112 186 135 c 1
 186 1231 l 1
 153 1260 110 1280 61 1290 c 1x9380
 68 1366 l 1
 1063 1366 l 1x5580
 1071 1028 l 1
 1044 1020 1016 1014 985 1014 c 0
 965 1014 943 1018 920 1022 c 1x5980
 897 1126 872 1186 831 1241 c 1
 487 1241 l 1
 487 756 l 1
 678 770 l 2
 727 774 773 827 793 907 c 1
 899 907 l 1
 899 483 l 1
 793 483 l 1
 754 594 723 631 676 635 c 2
 487 651 l 1
 487 127 l 1
 846 127 l 1x5580
 889 190 922 276 942 387 c 1
 971 391 995 393 1026 393 c 0
 1049 393 1071 391 1094 387 c 1x3580
 1073 0 l 1
 61 0 l 1
EndSplineSet
EndChar

StartChar: Ebreve
Encoding: 276 276 78
Width: 1144
GlyphClass: 2
Flags: HMW
HStem: 0 84<61 70 70 70 70 1073> 0 127<487 846 487 1073> 0 393<1011 1037 1011 1073> 643 120 1014 352<975 1000> 1241 125<487 831 487 487> 1290 76<61 1063> 1468 160<564 660 564 694>
VStem: 186 301<135 651 756 1231 1231 1231> 319 123 782 121 793 106<483 907 483 907>
AnchorPoint: "Anchor-3" 612 1366 basechar 0
AnchorPoint: "Anchor-2" 993 0 basechar 0
LayerCount: 2
Fore
SplineSet
612 1468 m 0x5560
 448 1468 333 1577 319 1747 c 1
 356 1765 381 1769 442 1769 c 1
 456 1679 516 1628 612 1628 c 0
 708 1628 768 1679 782 1769 c 1
 839 1769 866 1763 903 1749 c 1
 889 1579 776 1468 612 1468 c 0x5560
61 0 m 1
 70 84 l 1
 113 90 166 112 186 135 c 1
 186 1231 l 1
 153 1260 110 1280 61 1290 c 1x9390
 68 1366 l 1
 1063 1366 l 1x5590
 1071 1028 l 1
 1044 1020 1016 1014 985 1014 c 0
 965 1014 943 1018 920 1022 c 1x5990
 897 1126 872 1186 831 1241 c 1
 487 1241 l 1
 487 756 l 1
 678 770 l 2
 727 774 773 827 793 907 c 1
 899 907 l 1
 899 483 l 1
 793 483 l 1
 754 594 723 631 676 635 c 2
 487 651 l 1
 487 127 l 1
 846 127 l 1x5590
 889 190 922 276 942 387 c 1
 971 391 995 393 1026 393 c 0
 1049 393 1071 391 1094 387 c 1x3590
 1073 0 l 1
 61 0 l 1
EndSplineSet
EndChar

StartChar: Ecaron
Encoding: 282 282 79
Width: 1144
GlyphClass: 2
Flags: HMW
HStem: 0 84<61 70 70 70 70 1073> 0 127<487 846 487 1073> 0 393<1011 1037 1011 1073> 643 120 1014 352<975 1000> 1241 125<487 831 487 487> 1290 76<61 1063>
VStem: 186 301<135 651 756 1231 1231 1231> 793 106<483 907 483 907>
AnchorPoint: "Anchor-3" 612 1366 basechar 0
AnchorPoint: "Anchor-2" 993 0 basechar 0
LayerCount: 2
Fore
SplineSet
612 1468 m 0x5580
 567 1468 533 1485 498 1524 c 2
 303 1743 l 1
 362 1819 l 1
 608 1649 l 1
 854 1819 l 1
 913 1743 l 1
 719 1524 l 2
 690 1491 647 1468 612 1468 c 0x5580
61 0 m 1
 70 84 l 1
 113 90 166 112 186 135 c 1
 186 1231 l 1
 153 1260 110 1280 61 1290 c 1x9380
 68 1366 l 1
 1063 1366 l 1x5580
 1071 1028 l 1
 1044 1020 1016 1014 985 1014 c 0
 965 1014 943 1018 920 1022 c 1x5980
 897 1126 872 1186 831 1241 c 1
 487 1241 l 1
 487 756 l 1
 678 770 l 2
 727 774 773 827 793 907 c 1
 899 907 l 1
 899 483 l 1
 793 483 l 1
 754 594 723 631 676 635 c 2
 487 651 l 1
 487 127 l 1
 846 127 l 1x5580
 889 190 922 276 942 387 c 1
 971 391 995 393 1026 393 c 0
 1049 393 1071 391 1094 387 c 1x3580
 1073 0 l 1
 61 0 l 1
EndSplineSet
EndChar

StartChar: Ecircumflex
Encoding: 202 202 80
Width: 1144
GlyphClass: 2
Flags: HMW
HStem: 0 84<61 70 70 70 70 1073> 0 127<487 846 487 1073> 0 393<1011 1037 1011 1073> 643 120 1014 352<975 1000> 1241 125<487 831 487 487> 1290 76<61 1063>
VStem: 186 301<135 651 756 1231 1231 1231> 793 106<483 907 483 907>
AnchorPoint: "Anchor-3" 612 1366 basechar 0
AnchorPoint: "Anchor-2" 993 0 basechar 0
LayerCount: 2
Fore
SplineSet
367 1470 m 1x5580
 307 1546 l 1
 502 1765 l 2
 537 1804 572 1821 621 1821 c 0
 664 1821 688 1804 723 1765 c 2
 918 1546 l 1
 858 1470 l 1
 612 1640 l 1
 367 1470 l 1x5580
61 0 m 1
 70 84 l 1
 113 90 166 112 186 135 c 1
 186 1231 l 1
 153 1260 110 1280 61 1290 c 1x9380
 68 1366 l 1
 1063 1366 l 1x5580
 1071 1028 l 1
 1044 1020 1016 1014 985 1014 c 0
 965 1014 943 1018 920 1022 c 1x5980
 897 1126 872 1186 831 1241 c 1
 487 1241 l 1
 487 756 l 1
 678 770 l 2
 727 774 773 827 793 907 c 1
 899 907 l 1
 899 483 l 1
 793 483 l 1
 754 594 723 631 676 635 c 2
 487 651 l 1
 487 127 l 1
 846 127 l 1x5580
 889 190 922 276 942 387 c 1
 971 391 995 393 1026 393 c 0
 1049 393 1071 391 1094 387 c 1x3580
 1073 0 l 1
 61 0 l 1
EndSplineSet
EndChar

StartChar: Edieresis
Encoding: 203 203 81
Width: 1144
GlyphClass: 2
Flags: HMW
HStem: 0 84<61 70 70 70 70 1073> 0 127<487 846 487 1073> 0 393<1011 1037 1011 1073> 643 120 1014 352<975 1000> 1241 125<487 831 487 487> 1290 76<61 1063> 1520 229<397 488 731 822>
VStem: 186 301<135 651 756 1231 1231 1231> 311 268<1598 1672> 645 268<1598 1672> 793 106<483 907 483 907>
AnchorPoint: "Anchor-3" 612 1366 basechar 0
AnchorPoint: "Anchor-2" 993 0 basechar 0
LayerCount: 2
Fore
SplineSet
444 1520 m 0x5560
 350 1520 311 1560 311 1636 c 0
 311 1708 350 1749 444 1749 c 0
 532 1749 580 1708 580 1636 c 0
 580 1560 532 1520 444 1520 c 0x5560
778 1520 m 0
 684 1520 645 1560 645 1636 c 0
 645 1708 684 1749 778 1749 c 0
 866 1749 913 1708 913 1636 c 0
 913 1560 866 1520 778 1520 c 0
61 0 m 1
 70 84 l 1
 113 90 166 112 186 135 c 1
 186 1231 l 1
 153 1260 110 1280 61 1290 c 1x9390
 68 1366 l 1
 1063 1366 l 1x5590
 1071 1028 l 1
 1044 1020 1016 1014 985 1014 c 0
 965 1014 943 1018 920 1022 c 1x5990
 897 1126 872 1186 831 1241 c 1
 487 1241 l 1
 487 756 l 1
 678 770 l 2
 727 774 773 827 793 907 c 1
 899 907 l 1
 899 483 l 1
 793 483 l 1
 754 594 723 631 676 635 c 2
 487 651 l 1
 487 127 l 1
 846 127 l 1x5590
 889 190 922 276 942 387 c 1
 971 391 995 393 1026 393 c 0
 1049 393 1071 391 1094 387 c 1x3590
 1073 0 l 1
 61 0 l 1
EndSplineSet
EndChar

StartChar: Edotaccent
Encoding: 278 278 82
Width: 1144
GlyphClass: 2
Flags: HMW
HStem: 0 84<61 70 70 70 70 1073> 0 127<487 846 487 1073> 0 393<1011 1037 1011 1073> 643 120 1014 352<975 1000> 1241 125<487 831 487 487> 1290 76<61 1063> 1495 287<555 665>
VStem: 186 301<135 651 756 1231 1231 1231> 446 326<1593 1684> 793 106<483 907 483 907>
AnchorPoint: "Anchor-3" 612 1366 basechar 0
AnchorPoint: "Anchor-2" 993 0 basechar 0
LayerCount: 2
Fore
SplineSet
610 1495 m 0x5560
 499 1495 446 1548 446 1638 c 0
 446 1730 499 1782 610 1782 c 0
 719 1782 772 1730 772 1638 c 0
 772 1548 719 1495 610 1495 c 0x5560
61 0 m 1
 70 84 l 1
 113 90 166 112 186 135 c 1
 186 1231 l 1
 153 1260 110 1280 61 1290 c 1x93a0
 68 1366 l 1
 1063 1366 l 1x55a0
 1071 1028 l 1
 1044 1020 1016 1014 985 1014 c 0
 965 1014 943 1018 920 1022 c 1x59a0
 897 1126 872 1186 831 1241 c 1
 487 1241 l 1
 487 756 l 1
 678 770 l 2
 727 774 773 827 793 907 c 1
 899 907 l 1
 899 483 l 1
 793 483 l 1
 754 594 723 631 676 635 c 2
 487 651 l 1
 487 127 l 1
 846 127 l 1x55a0
 889 190 922 276 942 387 c 1
 971 391 995 393 1026 393 c 0
 1049 393 1071 391 1094 387 c 1x35a0
 1073 0 l 1
 61 0 l 1
EndSplineSet
EndChar

StartChar: Egrave
Encoding: 200 200 83
Width: 1144
GlyphClass: 2
Flags: HMW
HStem: 0 84<61 70 70 70 70 1073> 0 127<487 846 487 1073> 0 393<1011 1037 1011 1073> 643 120 1014 352<975 1000> 1241 125<487 831 487 487> 1290 76<61 1063>
VStem: 186 301<135 651 756 1231 1231 1231> 793 106<483 907 483 907>
AnchorPoint: "Anchor-3" 612 1366 basechar 0
AnchorPoint: "Anchor-2" 993 0 basechar 0
LayerCount: 2
Fore
SplineSet
664 1462 m 1x5580
 424 1632 l 2
 377 1665 356 1700 356 1741 c 0
 356 1804 396 1843 453 1843 c 0
 494 1843 534 1825 569 1774 c 2
 733 1530 l 1
 664 1462 l 1x5580
61 0 m 1
 70 84 l 1
 113 90 166 112 186 135 c 1
 186 1231 l 1
 153 1260 110 1280 61 1290 c 1x9380
 68 1366 l 1
 1063 1366 l 1x5580
 1071 1028 l 1
 1044 1020 1016 1014 985 1014 c 0
 965 1014 943 1018 920 1022 c 1x5980
 897 1126 872 1186 831 1241 c 1
 487 1241 l 1
 487 756 l 1
 678 770 l 2
 727 774 773 827 793 907 c 1
 899 907 l 1
 899 483 l 1
 793 483 l 1
 754 594 723 631 676 635 c 2
 487 651 l 1
 487 127 l 1
 846 127 l 1x5580
 889 190 922 276 942 387 c 1
 971 391 995 393 1026 393 c 0
 1049 393 1071 391 1094 387 c 1x3580
 1073 0 l 1
 61 0 l 1
EndSplineSet
EndChar

StartChar: Emacron
Encoding: 274 274 84
Width: 1144
GlyphClass: 2
Flags: HMW
HStem: 0 84<61 70 70 70 70 1073> 0 127<487 846 487 1073> 0 393<1011 1037 1011 1073> 643 120 1014 352<975 1000> 1241 125<487 831 487 487> 1290 76<61 1063> 1563 139<295 932 295 932>
VStem: 186 301<135 651 756 1231 1231 1231> 793 106<483 907 483 907>
AnchorPoint: "Anchor-3" 612 1366 basechar 0
AnchorPoint: "Anchor-2" 993 0 basechar 0
LayerCount: 2
Fore
SplineSet
295 1563 m 1x55c0
 295 1702 l 1
 932 1702 l 1
 932 1563 l 1
 295 1563 l 1x55c0
61 0 m 1
 70 84 l 1
 113 90 166 112 186 135 c 1
 186 1231 l 1
 153 1260 110 1280 61 1290 c 1x93c0
 68 1366 l 1
 1063 1366 l 1x55c0
 1071 1028 l 1
 1044 1020 1016 1014 985 1014 c 0
 965 1014 943 1018 920 1022 c 1x59c0
 897 1126 872 1186 831 1241 c 1
 487 1241 l 1
 487 756 l 1
 678 770 l 2
 727 774 773 827 793 907 c 1
 899 907 l 1
 899 483 l 1
 793 483 l 1
 754 594 723 631 676 635 c 2
 487 651 l 1
 487 127 l 1
 846 127 l 1x55c0
 889 190 922 276 942 387 c 1
 971 391 995 393 1026 393 c 0
 1049 393 1071 391 1094 387 c 1x35c0
 1073 0 l 1
 61 0 l 1
EndSplineSet
EndChar

StartChar: Eogonek
Encoding: 280 280 85
Width: 1144
GlyphClass: 2
Flags: HMW
HStem: -418 123<773 914> 0 84<70 70 70 770 61 70> 0 127<487 770 487 1016> 643 120 1014 352<975 1000> 1241 125<487 831 487 487> 1290 76<61 1063>
VStem: 186 301<135 651 756 1231 1231 1231> 631 193<-245 -207> 793 106<483 907 483 907>
AnchorPoint: "Anchor-3" 612 1366 basechar 0
AnchorPoint: "Anchor-2" 993 0 basechar 0
LayerCount: 2
Fore
SplineSet
1016 0 m 2xb580
 895 0 823 -139 823 -217 c 0
 823 -272 856 -295 895 -295 c 0
 934 -295 958 -273 985 -250 c 1
 1038 -322 l 1
 985 -385 903 -418 823 -418 c 0
 723 -418 631 -357 631 -248 c 0
 631 -166 676 -110 721 -59 c 0
 737 -39 756 -20 770 0 c 1
 61 0 l 1xb580
 70 84 l 1
 113 90 166 112 186 135 c 1
 186 1231 l 1
 153 1260 110 1280 61 1290 c 1xd340
 68 1366 l 1
 1063 1366 l 1xb540
 1071 1028 l 1
 1044 1020 1016 1014 985 1014 c 0
 965 1014 943 1018 920 1022 c 1xb940
 897 1126 872 1186 831 1241 c 1
 487 1241 l 1
 487 756 l 1
 678 770 l 2
 727 774 773 827 793 907 c 1
 899 907 l 1
 899 483 l 1
 793 483 l 1
 754 594 723 631 676 635 c 2xb540
 487 651 l 1
 487 127 l 1
 846 127 l 1
 889 190 922 276 942 387 c 1
 971 391 995 393 1026 393 c 0
 1049 393 1071 391 1094 387 c 1
 1073 0 l 1
 1016 0 l 2xb580
EndSplineSet
EndChar

StartChar: uni1EBC
Encoding: 7868 7868 86
Width: 1144
GlyphClass: 2
Flags: HMW
HStem: 0 84<61 70 70 70 70 1073> 0 127<487 846 487 1073> 0 393<1011 1037 1011 1073> 643 120 1014 352<975 1000> 1241 125<487 831 487 487> 1290 76<61 1063> 1499 178<703 766 703 785> 1579 180<461 523>
VStem: 186 301<135 651 756 1231 1231 1231> 793 106<483 907 483 907>
AnchorPoint: "Anchor-3" 612 1366 basechar 0
AnchorPoint: "Anchor-2" 993 0 basechar 0
LayerCount: 2
Fore
SplineSet
360 1501 m 1x54e0
 333 1511 289 1536 262 1567 c 1
 315 1682 396 1759 492 1759 c 0x54e0
 576 1759 661 1677 745 1677 c 0
 786 1677 831 1710 866 1757 c 1
 893 1747 938 1723 965 1694 c 1
 912 1579 833 1499 737 1499 c 0x5560
 653 1499 565 1579 481 1579 c 0
 440 1579 397 1550 360 1501 c 1x54e0
61 0 m 1x5560
 70 84 l 1
 113 90 166 112 186 135 c 1
 186 1231 l 1
 153 1260 110 1280 61 1290 c 1x9360
 68 1366 l 1
 1063 1366 l 1x5560
 1071 1028 l 1
 1044 1020 1016 1014 985 1014 c 0
 965 1014 943 1018 920 1022 c 1x5960
 897 1126 872 1186 831 1241 c 1
 487 1241 l 1
 487 756 l 1
 678 770 l 2
 727 774 773 827 793 907 c 1
 899 907 l 1
 899 483 l 1
 793 483 l 1
 754 594 723 631 676 635 c 2
 487 651 l 1
 487 127 l 1
 846 127 l 1x5560
 889 190 922 276 942 387 c 1
 971 391 995 393 1026 393 c 0
 1049 393 1071 391 1094 387 c 1x3560
 1073 0 l 1
 61 0 l 1x5560
EndSplineSet
EndChar

StartChar: Gbreve
Encoding: 286 286 87
Width: 1200
GlyphClass: 2
Flags: HMW
HStem: -20 139<593 730> 598 90 1272 109<565 719> 1468 160<605 701 605 735>
VStem: 51 317<502 889 502 901> 360 123 823 121 834 287<1116 1178> 838 301<147 518 518 518>
AnchorPoint: "Anchor-5" 633 0 basechar 0
AnchorPoint: "Anchor-3" 653 1366 basechar 0
LayerCount: 2
Fore
SplineSet
653 1468 m 0xf6
 489 1468 374 1577 360 1747 c 1
 397 1765 422 1769 483 1769 c 1
 497 1679 557 1628 653 1628 c 0
 749 1628 809 1679 823 1769 c 1
 880 1769 907 1763 944 1749 c 1
 930 1579 817 1468 653 1468 c 0xf6
641 -20 m 0xf880
 254 -20 51 217 51 666 c 0
 51 1137 262 1380 670 1380 c 0
 936 1380 1120 1270 1120 1110 c 0
 1120 1012 1048 934 956 934 c 0
 890 934 826 973 799 1028 c 1
 822 1065 834 1100 834 1133 c 0xf9
 834 1223 777 1272 662 1272 c 0
 469 1272 369 1077 369 700 c 0
 369 303 478 119 709 119 c 0
 754 119 797 129 838 147 c 1
 838 518 l 1
 805 563 746 594 678 598 c 1
 688 680 l 1
 1139 696 l 1
 1139 135 l 1
 1002 37 819 -20 641 -20 c 0xf880
EndSplineSet
EndChar

StartChar: Gcircumflex
Encoding: 284 284 88
Width: 1200
GlyphClass: 2
Flags: HMW
HStem: -20 139<593 730> 598 90 1272 109<565 719>
VStem: 51 317<502 889 502 901> 834 287<1116 1178> 838 301<147 518 518 518>
AnchorPoint: "Anchor-5" 633 0 basechar 0
AnchorPoint: "Anchor-3" 653 1366 basechar 0
LayerCount: 2
Fore
SplineSet
408 1470 m 1xf4
 348 1546 l 1
 543 1765 l 2
 578 1804 613 1821 662 1821 c 0
 705 1821 729 1804 764 1765 c 2
 958 1546 l 1
 899 1470 l 1
 653 1640 l 1
 408 1470 l 1xf4
641 -20 m 0
 254 -20 51 217 51 666 c 0
 51 1137 262 1380 670 1380 c 0
 936 1380 1120 1270 1120 1110 c 0
 1120 1012 1048 934 956 934 c 0
 890 934 826 973 799 1028 c 1
 822 1065 834 1100 834 1133 c 0xf8
 834 1223 777 1272 662 1272 c 0
 469 1272 369 1077 369 700 c 0
 369 303 478 119 709 119 c 0
 754 119 797 129 838 147 c 1
 838 518 l 1
 805 563 746 594 678 598 c 1
 688 680 l 1
 1139 696 l 1
 1139 135 l 1
 1002 37 819 -20 641 -20 c 0
EndSplineSet
EndChar

StartChar: uni0122
Encoding: 290 290 89
Width: 1200
GlyphClass: 2
Flags: HMW
HStem: -446 43G<625 625> -20 139<593 730> 598 90 1272 109<565 719>
VStem: 51 317<502 889 502 901> 565 184<-201 -199> 834 287<1116 1178> 838 301<147 518 518 518>
AnchorPoint: "Anchor-5" 633 0 basechar 0
AnchorPoint: "Anchor-3" 653 1366 basechar 0
LayerCount: 2
Fore
SplineSet
641 -20 m 0xf9
 254 -20 51 217 51 666 c 0
 51 1137 262 1380 670 1380 c 0
 936 1380 1120 1270 1120 1110 c 0
 1120 1012 1048 934 956 934 c 0
 890 934 826 973 799 1028 c 1
 822 1065 834 1100 834 1133 c 0xfa
 834 1223 777 1272 662 1272 c 0
 469 1272 369 1077 369 700 c 0
 369 303 478 119 709 119 c 0
 754 119 797 129 838 147 c 1
 838 518 l 1
 805 563 746 594 678 598 c 1
 688 680 l 1
 1139 696 l 1
 1139 135 l 1
 1002 37 819 -20 641 -20 c 0xf9
625 -446 m 1xfd
 526 -406 l 1
 551 -338 565 -272 565 -223 c 0
 565 -174 551 -142 516 -113 c 1
 536 -82 586 -59 629 -59 c 0
 699 -59 750 -103 750 -164 c 0
 750 -238 701 -346 625 -446 c 1xfd
EndSplineSet
EndChar

StartChar: Gdotaccent
Encoding: 288 288 90
Width: 1200
GlyphClass: 2
Flags: HMW
HStem: -20 139<593 730> 598 90 1272 109<565 719> 1495 287<596 706>
VStem: 51 317<502 889 502 901> 487 326<1593 1684> 834 287<1116 1178> 838 301<147 518 518 518>
AnchorPoint: "Anchor-5" 633 0 basechar 0
AnchorPoint: "Anchor-3" 653 1366 basechar 0
LayerCount: 2
Fore
SplineSet
651 1495 m 0xfd
 540 1495 487 1548 487 1638 c 0
 487 1730 540 1782 651 1782 c 0
 760 1782 813 1730 813 1638 c 0
 813 1548 760 1495 651 1495 c 0xfd
641 -20 m 0
 254 -20 51 217 51 666 c 0
 51 1137 262 1380 670 1380 c 0
 936 1380 1120 1270 1120 1110 c 0
 1120 1012 1048 934 956 934 c 0
 890 934 826 973 799 1028 c 1
 822 1065 834 1100 834 1133 c 0xfa
 834 1223 777 1272 662 1272 c 0
 469 1272 369 1077 369 700 c 0
 369 303 478 119 709 119 c 0
 754 119 797 129 838 147 c 1
 838 518 l 1
 805 563 746 594 678 598 c 1
 688 680 l 1
 1139 696 l 1
 1139 135 l 1xf9
 1002 37 819 -20 641 -20 c 0
EndSplineSet
EndChar

StartChar: Hbar
Encoding: 294 294 91
Width: 1488
GlyphClass: 2
Flags: HMW
HStem: 0 84<74 74 74 631 66 74> 635 129<492 961 492 961> 905 139<68 190 68 190 492 961 1262 1386> 1221 145<190 190 492 492 961 961 1262 1262> 1282 84<633 633> 1286 80<66 645 1386 1386>
VStem: 190 301<145 635 764 905 145 905 145 905 1044 1221> 961 301<145 635 635 635 764 905 1044 1221>
AnchorPoint: "Anchor-3" 735 1366 basechar 0
LayerCount: 2
Fore
SplineSet
1262 145 m 1xeb
 1293 116 1345 94 1415 80 c 1
 1401 0 l 1
 836 0 l 1
 844 84 l 1
 897 94 924 108 961 145 c 1
 961 635 l 1
 492 635 l 1
 492 145 l 1
 523 116 575 94 645 80 c 1
 631 0 l 1
 66 0 l 1
 74 84 l 1
 127 94 153 108 190 145 c 1
 190 905 l 1
 68 905 l 1
 68 1044 l 1
 190 1044 l 1
 190 1221 l 1xf3
 159 1248 119 1268 66 1286 c 1xe7
 74 1366 l 1
 645 1366 l 1
 633 1282 l 1xeb
 567 1270 533 1256 492 1221 c 1
 492 1044 l 1
 961 1044 l 1
 961 1221 l 1xf3
 920 1256 885 1270 819 1282 c 1
 829 1366 l 1
 1399 1366 l 1xeb
 1386 1286 l 1xe7
 1335 1270 1295 1250 1262 1221 c 1xf3
 1262 1044 l 1
 1386 1044 l 1
 1386 905 l 1
 1262 905 l 1
 1262 145 l 1xeb
492 764 m 1
 961 764 l 1
 961 905 l 1
 492 905 l 1
 492 764 l 1
EndSplineSet
EndChar

StartChar: Hcircumflex
Encoding: 292 292 92
Width: 1472
GlyphClass: 2
Flags: HMW
HStem: 0 84<61 70 70 70 70 627> 635 129<487 956 487 956> 1221 145<186 186 487 487 956 956 1257 1257> 1282 84<629 629> 1286 80<61 641 1382 1382>
VStem: 186 301<145 635 764 1221> 956 301<145 635 635 635 764 1221 145 1221>
AnchorPoint: "Anchor-3" 731 1366 basechar 0
LayerCount: 2
Fore
SplineSet
485 1470 m 1xd6
 426 1546 l 1
 621 1765 l 2
 656 1804 690 1821 739 1821 c 0
 782 1821 807 1804 842 1765 c 2
 1036 1546 l 1
 977 1470 l 1
 731 1640 l 1
 485 1470 l 1xd6
61 0 m 1
 70 84 l 1
 123 94 149 108 186 145 c 1
 186 1221 l 1xe6
 155 1248 114 1268 61 1286 c 1xce
 70 1366 l 1
 641 1366 l 1
 629 1282 l 1xd6
 563 1270 528 1256 487 1221 c 1
 487 764 l 1
 956 764 l 1
 956 1221 l 1xe6
 915 1256 881 1270 815 1282 c 1
 825 1366 l 1
 1395 1366 l 1xd6
 1382 1286 l 1xce
 1331 1270 1290 1250 1257 1221 c 1xe6
 1257 145 l 1
 1288 116 1341 94 1411 80 c 1
 1397 0 l 1
 831 0 l 1
 840 84 l 1
 893 94 919 108 956 145 c 1
 956 635 l 1
 487 635 l 1
 487 145 l 1
 518 116 571 94 641 80 c 1
 627 0 l 1
 61 0 l 1
EndSplineSet
EndChar

StartChar: Iacute
Encoding: 205 205 93
Width: 733
GlyphClass: 2
Flags: HMW
HStem: 0 84<61 70 70 70 70 657> 1282 84<61 672 659 659>
VStem: 217 301<145 1221 145 1221>
AnchorPoint: "Anchor-3" 369 1366 basechar 0
AnchorPoint: "Anchor-2" 356 0 basechar 0
LayerCount: 2
Fore
SplineSet
313 1460 m 1
 244 1528 l 1
 408 1772 l 2
 443 1823 485 1841 524 1841 c 0
 581 1841 618 1802 618 1745 c 0
 618 1708 600 1663 553 1630 c 2
 313 1460 l 1
61 0 m 1
 70 84 l 1
 136 94 178 112 217 145 c 1
 217 1221 l 1
 188 1250 118 1274 61 1282 c 1
 72 1366 l 1
 672 1366 l 1
 659 1282 l 1
 593 1270 559 1256 518 1221 c 1
 518 145 l 1
 549 116 602 98 672 84 c 1
 657 0 l 1
 61 0 l 1
EndSplineSet
EndChar

StartChar: Ibreve
Encoding: 300 300 94
Width: 733
GlyphClass: 2
Flags: HMW
HStem: 0 84<61 70 70 70 70 657> 1282 84<61 672 659 659> 1468 160<321 417 321 451>
VStem: 76 123 217 301<145 1221 145 1221> 539 121
AnchorPoint: "Anchor-3" 369 1366 basechar 0
AnchorPoint: "Anchor-2" 356 0 basechar 0
LayerCount: 2
Fore
SplineSet
369 1468 m 0
 205 1468 90 1577 76 1747 c 1
 113 1765 138 1769 199 1769 c 1
 213 1679 273 1628 369 1628 c 0
 465 1628 525 1679 539 1769 c 1
 596 1769 622 1763 659 1749 c 1
 645 1579 533 1468 369 1468 c 0
61 0 m 1
 70 84 l 1
 136 94 178 112 217 145 c 1
 217 1221 l 1
 188 1250 118 1274 61 1282 c 1
 72 1366 l 1
 672 1366 l 1
 659 1282 l 1
 593 1270 559 1256 518 1221 c 1
 518 145 l 1
 549 116 602 98 672 84 c 1
 657 0 l 1xe8
 61 0 l 1
EndSplineSet
EndChar

StartChar: Icircumflex
Encoding: 206 206 95
Width: 733
GlyphClass: 2
Flags: HMW
HStem: 0 84<61 70 70 70 70 657> 1282 84<61 672 659 659>
VStem: 217 301<145 1221 145 1221>
AnchorPoint: "Anchor-3" 369 1366 basechar 0
AnchorPoint: "Anchor-2" 356 0 basechar 0
LayerCount: 2
Fore
SplineSet
123 1470 m 1
 63 1546 l 1
 258 1765 l 2
 293 1804 328 1821 377 1821 c 0
 420 1821 444 1804 479 1765 c 2
 674 1546 l 1
 614 1470 l 1
 369 1640 l 1
 123 1470 l 1
61 0 m 1
 70 84 l 1
 136 94 178 112 217 145 c 1
 217 1221 l 1
 188 1250 118 1274 61 1282 c 1
 72 1366 l 1
 672 1366 l 1
 659 1282 l 1
 593 1270 559 1256 518 1221 c 1
 518 145 l 1
 549 116 602 98 672 84 c 1
 657 0 l 1
 61 0 l 1
EndSplineSet
EndChar

StartChar: Idieresis
Encoding: 207 207 96
Width: 733
GlyphClass: 2
Flags: HMW
HStem: 0 84<61 70 70 70 70 657> 1282 84<61 672 659 659> 1520 229<154 245 487 579>
VStem: 68 268<1598 1672> 217 301<145 1221 145 1221> 401 268<1598 1672>
AnchorPoint: "Anchor-3" 369 1366 basechar 0
AnchorPoint: "Anchor-2" 356 0 basechar 0
LayerCount: 2
Fore
SplineSet
201 1520 m 0xf4
 107 1520 68 1560 68 1636 c 0
 68 1708 107 1749 201 1749 c 0
 289 1749 336 1708 336 1636 c 0
 336 1560 289 1520 201 1520 c 0xf4
535 1520 m 0
 441 1520 401 1560 401 1636 c 0
 401 1708 441 1749 535 1749 c 0
 623 1749 670 1708 670 1636 c 0
 670 1560 623 1520 535 1520 c 0
61 0 m 1
 70 84 l 1
 136 94 178 112 217 145 c 1
 217 1221 l 1
 188 1250 118 1274 61 1282 c 1
 72 1366 l 1
 672 1366 l 1
 659 1282 l 1
 593 1270 559 1256 518 1221 c 1
 518 145 l 1
 549 116 602 98 672 84 c 1
 657 0 l 1xe8
 61 0 l 1
EndSplineSet
EndChar

StartChar: Idotaccent
Encoding: 304 304 97
Width: 733
GlyphClass: 2
Flags: HMW
HStem: 0 84<61 70 70 70 70 657> 1282 84<61 672 659 659> 1495 287<311 421>
VStem: 203 326<1593 1684> 217 301<145 1221 145 1221>
AnchorPoint: "Anchor-3" 369 1366 basechar 0
AnchorPoint: "Anchor-2" 356 0 basechar 0
LayerCount: 2
Fore
SplineSet
367 1495 m 0xf0
 256 1495 203 1548 203 1638 c 0
 203 1730 256 1782 367 1782 c 0
 476 1782 528 1730 528 1638 c 0
 528 1548 476 1495 367 1495 c 0xf0
61 0 m 1
 70 84 l 1
 136 94 178 112 217 145 c 1
 217 1221 l 1
 188 1250 118 1274 61 1282 c 1
 72 1366 l 1
 672 1366 l 1
 659 1282 l 1
 593 1270 559 1256 518 1221 c 1
 518 145 l 1
 549 116 602 98 672 84 c 1
 657 0 l 1xe8
 61 0 l 1
EndSplineSet
EndChar

StartChar: Igrave
Encoding: 204 204 98
Width: 733
GlyphClass: 2
Flags: HMW
HStem: 0 84<61 70 70 70 70 657> 1282 84<61 672 659 659>
VStem: 217 301<145 1221 145 1221>
AnchorPoint: "Anchor-3" 369 1366 basechar 0
AnchorPoint: "Anchor-2" 356 0 basechar 0
LayerCount: 2
Fore
SplineSet
420 1462 m 1
 180 1632 l 2
 133 1665 113 1700 113 1741 c 0
 113 1804 152 1843 209 1843 c 0
 250 1843 291 1825 326 1774 c 2
 489 1530 l 1
 420 1462 l 1
61 0 m 1
 70 84 l 1
 136 94 178 112 217 145 c 1
 217 1221 l 1
 188 1250 118 1274 61 1282 c 1
 72 1366 l 1
 672 1366 l 1
 659 1282 l 1
 593 1270 559 1256 518 1221 c 1
 518 145 l 1
 549 116 602 98 672 84 c 1
 657 0 l 1
 61 0 l 1
EndSplineSet
EndChar

StartChar: Imacron
Encoding: 298 298 99
Width: 733
GlyphClass: 2
Flags: HMW
HStem: 0 84<61 70 70 70 70 657> 1282 84<61 672 659 659> 1563 139<51 688 51 688>
VStem: 217 301<145 1221 145 1221>
AnchorPoint: "Anchor-3" 369 1366 basechar 0
AnchorPoint: "Anchor-2" 356 0 basechar 0
LayerCount: 2
Fore
SplineSet
51 1563 m 1
 51 1702 l 1
 688 1702 l 1
 688 1563 l 1
 51 1563 l 1
61 0 m 1
 70 84 l 1
 136 94 178 112 217 145 c 1
 217 1221 l 1
 188 1250 118 1274 61 1282 c 1
 72 1366 l 1
 672 1366 l 1
 659 1282 l 1
 593 1270 559 1256 518 1221 c 1
 518 145 l 1
 549 116 602 98 672 84 c 1
 657 0 l 1
 61 0 l 1
EndSplineSet
EndChar

StartChar: Iogonek
Encoding: 302 302 100
Width: 733
GlyphClass: 2
Flags: HMW
HStem: -418 123<146 288> 0 84<399 672> 0 145<330 518 518 518 518 657> 1282 84<61 672 659 659>
VStem: 4 193<-245 -207> 217 301<166 1221 145 1221>
AnchorPoint: "Anchor-3" 369 1366 basechar 0
LayerCount: 2
Fore
SplineSet
197 -418 m 0xdc
 97 -418 4 -357 4 -248 c 0xdc
 4 -166 51 -102 104 -45 c 0
 157 10 217 78 217 166 c 2
 217 1221 l 1
 188 1250 118 1274 61 1282 c 1
 72 1366 l 1
 672 1366 l 1
 659 1282 l 1
 593 1270 559 1256 518 1221 c 1
 518 145 l 1xb4
 549 116 602 98 672 84 c 1
 657 0 l 1xd4
 399 0 l 2
 260 0 197 -127 197 -217 c 0
 197 -272 229 -295 268 -295 c 0
 307 -295 331 -273 358 -250 c 1
 412 -322 l 1
 359 -385 277 -418 197 -418 c 0xdc
EndSplineSet
EndChar

StartChar: Itilde
Encoding: 296 296 101
Width: 733
GlyphClass: 2
Flags: HMW
HStem: 0 84<61 70 70 70 70 657> 1282 84<61 672 659 659> 1499 178<460 522 460 542> 1579 180<217 280>
VStem: 217 301<145 1221 145 1221>
AnchorPoint: "Anchor-3" 369 1366 basechar 0
AnchorPoint: "Anchor-2" 356 0 basechar 0
LayerCount: 2
Fore
SplineSet
117 1501 m 1xd8
 90 1511 45 1536 18 1567 c 1
 71 1682 152 1759 248 1759 c 0xd8
 332 1759 418 1677 502 1677 c 0
 543 1677 588 1710 623 1757 c 1
 650 1747 694 1723 721 1694 c 1
 668 1579 590 1499 494 1499 c 0xe8
 410 1499 322 1579 238 1579 c 0
 197 1579 154 1550 117 1501 c 1xd8
61 0 m 1xe8
 70 84 l 1
 136 94 178 112 217 145 c 1
 217 1221 l 1
 188 1250 118 1274 61 1282 c 1
 72 1366 l 1
 672 1366 l 1
 659 1282 l 1
 593 1270 559 1256 518 1221 c 1
 518 145 l 1
 549 116 602 98 672 84 c 1
 657 0 l 1
 61 0 l 1xe8
EndSplineSet
EndChar

StartChar: Jcircumflex
Encoding: 308 308 102
Width: 696
GlyphClass: 2
Flags: HMW
HStem: -446 43G<31 31> 1282 84<41 651 639 639>
VStem: 197 301<2 33 33 1221>
AnchorPoint: "Anchor-3" 348 1366 basechar 0
LayerCount: 2
Fore
SplineSet
102 1470 m 1
 43 1546 l 1
 238 1765 l 2
 273 1804 307 1821 356 1821 c 0
 399 1821 424 1804 459 1765 c 2
 653 1546 l 1
 594 1470 l 1
 348 1640 l 1
 102 1470 l 1
31 -446 m 1
 -12 -334 l 1
 90 -281 197 -195 197 2 c 2
 197 1221 l 1
 168 1250 98 1274 41 1282 c 1
 51 1366 l 1
 651 1366 l 1
 639 1282 l 1
 573 1270 539 1256 498 1221 c 1
 498 33 l 2
 498 -243 314 -374 31 -446 c 1
EndSplineSet
EndChar

StartChar: uni0136
Encoding: 310 310 103
Width: 1392
GlyphClass: 2
Flags: HMW
HStem: -446 43G<668 668> 0 84<61 70 70 70 70 627> 1282 84<629 629> 1286 80<61 641 858 886 1346 1346>
VStem: 186 301<145 1221 145 1221> 608 184<-201 -199>
AnchorPoint: "Anchor-5" 676 0 basechar 0
LayerCount: 2
Fore
SplineSet
61 0 m 1xd8
 70 84 l 1
 123 94 149 108 186 145 c 1
 186 1221 l 1
 155 1248 114 1268 61 1286 c 1
 70 1366 l 1
 641 1366 l 1xdc
 629 1282 l 1
 563 1270 528 1256 487 1221 c 1xe8
 487 145 l 1
 518 116 571 94 641 80 c 1
 627 0 l 1
 61 0 l 1xd8
911 0 m 1
 909 47 901 78 874 119 c 2
 516 713 l 1
 946 1190 l 2
 958 1204 965 1219 965 1231 c 0
 965 1268 913 1286 858 1286 c 1
 846 1366 l 1
 1358 1366 l 1
 1346 1286 l 1
 1262 1280 1206 1253 1165 1206 c 2
 813 815 l 1
 1202 178 l 2
 1231 133 1291 104 1393 84 c 1
 1378 0 l 1
 911 0 l 1
668 -446 m 1
 569 -406 l 1
 594 -338 608 -272 608 -223 c 0
 608 -174 594 -142 559 -113 c 1
 579 -82 629 -59 672 -59 c 0
 742 -59 793 -103 793 -164 c 0
 793 -238 744 -346 668 -446 c 1
EndSplineSet
EndChar

StartChar: Lacute
Encoding: 313 313 104
Width: 1107
GlyphClass: 2
Flags: HMW
HStem: 0 84<63 72 72 72 72 1075> 0 127<489 848 489 1075> 0 393<1014 1039 1014 1075> 1282 84<61 643 631 631>
VStem: 188 301<135 1221 127 1221>
AnchorPoint: "Anchor-5" 569 0 basechar 0
AnchorPoint: "Anchor-3" 344 1366 basechar 0
LayerCount: 2
Fore
SplineSet
289 1460 m 1x58
 219 1528 l 1
 383 1772 l 2
 418 1823 461 1841 500 1841 c 0
 557 1841 594 1802 594 1745 c 0
 594 1708 575 1663 528 1630 c 2
 289 1460 l 1x58
63 0 m 1
 72 84 l 1
 115 90 168 112 188 135 c 1x98
 188 1221 l 1
 157 1248 114 1264 61 1282 c 1
 72 1366 l 1
 643 1366 l 1
 631 1282 l 1
 565 1270 530 1256 489 1221 c 1
 489 127 l 1
 848 127 l 1x58
 891 190 924 276 944 387 c 1
 971 391 999 393 1028 393 c 0
 1051 393 1073 391 1096 387 c 1x38
 1075 0 l 1
 63 0 l 1
EndSplineSet
EndChar

StartChar: Lcaron
Encoding: 317 317 105
Width: 1107
GlyphClass: 2
Flags: HMW
HStem: 0 84<63 72 72 72 72 1075> 0 127<489 848 489 1075> 0 393<1014 1039 1014 1075> 1282 84<61 643 631 631> 1337 41G<894 958>
VStem: 188 301<135 1221 127 1221> 866 184<1202 1224>
AnchorPoint: "Anchor-5" 569 0 basechar 0
AnchorPoint: "Anchor-3" 344 1366 basechar 0
LayerCount: 2
Fore
SplineSet
922 942 m 1x56
 815 981 l 1
 850 1079 866 1147 866 1196 c 0
 866 1251 846 1282 813 1309 c 1
 833 1346 865 1378 924 1378 c 0
 994 1378 1051 1323 1051 1247 c 0x4e
 1051 1157 981 1038 922 942 c 1x56
63 0 m 1
 72 84 l 1
 115 90 168 112 188 135 c 1x96
 188 1221 l 1
 157 1248 114 1264 61 1282 c 1
 72 1366 l 1
 643 1366 l 1
 631 1282 l 1
 565 1270 530 1256 489 1221 c 1
 489 127 l 1
 848 127 l 1x56
 891 190 924 276 944 387 c 1
 971 391 999 393 1028 393 c 0
 1051 393 1073 391 1096 387 c 1x36
 1075 0 l 1
 63 0 l 1
EndSplineSet
EndChar

StartChar: uni013B
Encoding: 315 315 106
Width: 1107
GlyphClass: 2
Flags: HMW
HStem: -446 43G<561 561> 0 84<63 72 72 72 72 1075> 0 127<489 848 489 1075> 0 393<1014 1039 1014 1075> 1282 84<61 643 631 631>
VStem: 188 301<135 1221 127 1221> 502 184<-201 -199>
AnchorPoint: "Anchor-5" 569 0 basechar 0
AnchorPoint: "Anchor-3" 344 1366 basechar 0
LayerCount: 2
Fore
SplineSet
63 0 m 1xac
 72 84 l 1
 115 90 168 112 188 135 c 1xcc
 188 1221 l 1
 157 1248 114 1264 61 1282 c 1
 72 1366 l 1
 643 1366 l 1
 631 1282 l 1
 565 1270 530 1256 489 1221 c 1
 489 127 l 1
 848 127 l 1xac
 891 190 924 276 944 387 c 1
 971 391 999 393 1028 393 c 0
 1051 393 1073 391 1096 387 c 1x9c
 1075 0 l 1
 63 0 l 1xac
561 -446 m 1xaa
 463 -406 l 1
 488 -338 502 -272 502 -223 c 0
 502 -174 488 -142 453 -113 c 1
 473 -82 522 -59 565 -59 c 0
 635 -59 686 -103 686 -164 c 0
 686 -238 637 -346 561 -446 c 1xaa
EndSplineSet
EndChar

StartChar: Ldot
Encoding: 319 319 107
Width: 1107
GlyphClass: 2
Flags: HMW
HStem: 0 84<63 72 72 72 72 1075> 0 127<489 848 489 1075> 0 393<1014 1039 1014 1075> 598 313<793 891> 1282 84<61 643 631 631>
VStem: 188 301<135 1221 127 1221> 698 287<708 802 706 803>
AnchorPoint: "Anchor-5" 569 0 basechar 0
AnchorPoint: "Anchor-3" 344 1366 basechar 0
LayerCount: 2
Fore
SplineSet
63 0 m 1x5c
 72 84 l 1
 115 90 168 112 188 135 c 1x9e
 188 1221 l 1
 157 1248 114 1264 61 1282 c 1
 72 1366 l 1
 643 1366 l 1
 631 1282 l 1
 565 1270 530 1256 489 1221 c 1
 489 127 l 1
 848 127 l 1x5c
 891 190 924 276 944 387 c 1
 971 391 999 393 1028 393 c 0
 1051 393 1073 391 1096 387 c 1x3c
 1075 0 l 1
 63 0 l 1x5c
842 598 m 0
 744 598 698 662 698 754 c 0
 698 852 744 911 842 911 c 0
 940 911 985 850 985 754 c 0
 985 658 940 598 842 598 c 0
EndSplineSet
Ligature2: "Ligature Substitution lookup 11 subtable" L periodcentered
EndChar

StartChar: Lslash
Encoding: 321 321 108
Width: 1138
GlyphClass: 2
Flags: HMW
HStem: 0 84<72 72 72 1075 63 72> 0 127<489 848 489 1075> 0 393<1014 1039 1014 1075> 1282 84<61 643 631 631>
VStem: 188 301<135 498 498 498 649 668 819 1221>
AnchorPoint: "Anchor-5" 569 0 basechar 0
AnchorPoint: "Anchor-3" 344 1366 basechar 0
LayerCount: 2
Fore
SplineSet
1028 393 m 0x38
 1051 393 1073 391 1096 387 c 1x38
 1075 0 l 1
 63 0 l 1x58
 72 84 l 1
 115 90 168 112 188 135 c 1x98
 188 498 l 1
 92 442 l 1
 25 557 l 1
 188 649 l 1
 188 1221 l 1
 157 1248 114 1264 61 1282 c 1
 72 1366 l 1
 643 1366 l 1
 631 1282 l 1
 565 1270 530 1256 489 1221 c 1
 489 819 l 1
 702 938 l 1
 768 825 l 1
 489 668 l 1
 489 127 l 1
 848 127 l 1x58
 891 190 924 276 944 387 c 1
 971 391 999 393 1028 393 c 0x38
EndSplineSet
EndChar

StartChar: Nacute
Encoding: 323 323 109
Width: 1404
GlyphClass: 2
Flags: HMW
HStem: 0 84<61 70 70 70 70 504> 1221 145<186 186 1038 1038 1217 1217> 1282 84 1286 80<61 473 1341 1341>
VStem: 186 178<145 942 145 1221> 1038 178<375 1221 0 1221>
AnchorPoint: "Anchor-5" 723 0 basechar 0
AnchorPoint: "Anchor-3" 705 1366 basechar 0
LayerCount: 2
Fore
SplineSet
649 1460 m 1x9c
 580 1528 l 1
 743 1772 l 2
 778 1823 821 1841 860 1841 c 0
 917 1841 954 1802 954 1745 c 0
 954 1708 936 1663 889 1630 c 2
 649 1460 l 1x9c
61 0 m 1
 70 84 l 1
 123 94 149 108 186 145 c 1
 186 1221 l 1xcc
 155 1248 114 1268 61 1286 c 1
 70 1366 l 1
 473 1366 l 1x9c
 1038 375 l 1
 1038 1221 l 1xcc
 997 1256 963 1270 897 1282 c 1xac
 907 1366 l 1
 1354 1366 l 1
 1341 1286 l 1x9c
 1290 1270 1250 1250 1217 1221 c 1xcc
 1217 0 l 1
 905 0 l 1
 365 942 l 1
 365 145 l 1
 396 116 448 94 518 80 c 1
 504 0 l 1
 61 0 l 1
EndSplineSet
EndChar

StartChar: Ncaron
Encoding: 327 327 110
Width: 1404
GlyphClass: 2
Flags: HMW
HStem: 0 84<61 70 70 70 70 504> 1221 145<186 186 1038 1038 1217 1217> 1282 84 1286 80<61 473 1341 1341>
VStem: 186 178<145 942 145 1221> 1038 178<375 1221 0 1221>
AnchorPoint: "Anchor-5" 723 0 basechar 0
AnchorPoint: "Anchor-3" 705 1366 basechar 0
LayerCount: 2
Fore
SplineSet
705 1468 m 0x9c
 660 1468 625 1485 590 1524 c 2
 395 1743 l 1
 455 1819 l 1
 700 1649 l 1
 946 1819 l 1
 1006 1743 l 1
 811 1524 l 2
 782 1491 740 1468 705 1468 c 0x9c
61 0 m 1
 70 84 l 1
 123 94 149 108 186 145 c 1
 186 1221 l 1xcc
 155 1248 114 1268 61 1286 c 1
 70 1366 l 1
 473 1366 l 1x9c
 1038 375 l 1
 1038 1221 l 1xcc
 997 1256 963 1270 897 1282 c 1xac
 907 1366 l 1
 1354 1366 l 1
 1341 1286 l 1x9c
 1290 1270 1250 1250 1217 1221 c 1xcc
 1217 0 l 1
 905 0 l 1
 365 942 l 1
 365 145 l 1
 396 116 448 94 518 80 c 1
 504 0 l 1
 61 0 l 1
EndSplineSet
EndChar

StartChar: uni0145
Encoding: 325 325 111
Width: 1404
GlyphClass: 2
Flags: HMW
HStem: -446 43G<715 715> 0 84<61 70 70 70 70 504> 1221 145<186 186 1038 1038 1217 1217> 1282 84 1286 80<61 473 1341 1341>
VStem: 186 178<145 942 145 1221> 655 184<-201 -199> 1038 178<375 1221 0 1221>
AnchorPoint: "Anchor-5" 723 0 basechar 0
AnchorPoint: "Anchor-3" 705 1366 basechar 0
LayerCount: 2
Fore
SplineSet
61 0 m 1xcd
 70 84 l 1
 123 94 149 108 186 145 c 1
 186 1221 l 1xe7
 155 1248 114 1268 61 1286 c 1
 70 1366 l 1
 473 1366 l 1xcd
 1038 375 l 1
 1038 1221 l 1xe5
 997 1256 963 1270 897 1282 c 1xd5
 907 1366 l 1
 1354 1366 l 1
 1341 1286 l 1xcd
 1290 1270 1250 1250 1217 1221 c 1xe5
 1217 0 l 1
 905 0 l 1
 365 942 l 1
 365 145 l 1
 396 116 448 94 518 80 c 1
 504 0 l 1
 61 0 l 1xcd
715 -446 m 1
 616 -406 l 1
 641 -338 655 -272 655 -223 c 0
 655 -174 641 -142 606 -113 c 1
 626 -82 676 -59 719 -59 c 0
 789 -59 840 -103 840 -164 c 0
 840 -238 791 -346 715 -446 c 1
EndSplineSet
EndChar

StartChar: Ntilde
Encoding: 209 209 112
Width: 1404
GlyphClass: 2
Flags: HMW
HStem: 0 84<61 70 70 70 70 504> 1221 145<186 186 1038 1038 1217 1217> 1282 84 1286 80<61 473 1341 1341> 1499 178<796 858 796 878> 1579 180<553 615>
VStem: 186 178<145 942 145 1221> 1038 178<375 1221 0 1221>
AnchorPoint: "Anchor-5" 723 0 basechar 0
AnchorPoint: "Anchor-3" 705 1366 basechar 0
LayerCount: 2
Fore
SplineSet
453 1501 m 1x97
 426 1511 381 1536 354 1567 c 1
 407 1682 488 1759 584 1759 c 0x97
 668 1759 754 1677 838 1677 c 0
 879 1677 923 1710 958 1757 c 1
 985 1747 1030 1723 1057 1694 c 1
 1004 1579 925 1499 829 1499 c 0x9b
 745 1499 657 1579 573 1579 c 0
 532 1579 490 1550 453 1501 c 1x97
61 0 m 1xcb
 70 84 l 1
 123 94 149 108 186 145 c 1
 186 1221 l 1xcb
 155 1248 114 1268 61 1286 c 1
 70 1366 l 1
 473 1366 l 1x9b
 1038 375 l 1
 1038 1221 l 1xcb
 997 1256 963 1270 897 1282 c 1xab
 907 1366 l 1
 1354 1366 l 1
 1341 1286 l 1x9b
 1290 1270 1250 1250 1217 1221 c 1
 1217 0 l 1
 905 0 l 1
 365 942 l 1
 365 145 l 1
 396 116 448 94 518 80 c 1
 504 0 l 1
 61 0 l 1xcb
EndSplineSet
EndChar

StartChar: Eng
Encoding: 330 330 113
Width: 1390
GlyphClass: 1
Flags: HMW
HStem: -446 100<887 934 887 953> 0 84<72 72 72 506 63 72> 1221 145<188 188 1040 1040 1219 1219> 1282 84 1286 80<63 475 1343 1343>
VStem: 188 178<145 942 145 1221> 647 195<-292 -259 -292 -237> 1006 213<-265 -68> 1040 178<375 1221>
LayerCount: 2
Fore
SplineSet
901 -446 m 0xce80
 772 -446 647 -389 647 -274 c 0
 647 -198 700 -147 776 -147 c 0
 811 -147 847 -164 870 -199 c 1
 852 -217 842 -245 842 -272 c 0
 842 -311 862 -346 911 -346 c 0
 956 -346 1006 -309 1006 -221 c 0
 1006 -127 995 -76 987 0 c 1
 907 0 l 1
 367 942 l 1
 367 145 l 1
 398 116 450 94 520 80 c 1
 506 0 l 1
 63 0 l 1
 72 84 l 1
 125 94 151 108 188 145 c 1
 188 1221 l 1xe7
 157 1248 116 1268 63 1286 c 1
 72 1366 l 1
 475 1366 l 1xce80
 1040 375 l 1
 1040 1221 l 1xe680
 999 1256 965 1270 899 1282 c 1xd680
 909 1366 l 1
 1356 1366 l 1
 1343 1286 l 1xce80
 1292 1270 1252 1250 1219 1221 c 1xe680
 1219 -68 l 2
 1219 -164 1208 -258 1165 -330 c 0
 1116 -410 1005 -446 901 -446 c 0xce80
EndSplineSet
EndChar

StartChar: Oacute
Encoding: 211 211 114
Width: 1325
GlyphClass: 2
Flags: HMW
HStem: -20 119<566 760 566 867> 1270 119<566 760>
VStem: 51 338<477 893 477 914> 934 340<477 893>
AnchorPoint: "Anchor-3" 664 1366 basechar 0
LayerCount: 2
Fore
SplineSet
608 1460 m 1
 539 1528 l 1
 702 1772 l 2
 737 1823 780 1841 819 1841 c 0
 876 1841 913 1802 913 1745 c 0
 913 1708 895 1663 848 1630 c 2
 608 1460 l 1
664 -20 m 0
 258 -20 51 227 51 686 c 0
 51 1143 258 1389 664 1389 c 0
 1072 1389 1274 1143 1274 686 c 0
 1274 227 1072 -20 664 -20 c 0
664 98 m 0
 857 98 934 268 934 686 c 0
 934 1100 857 1270 664 1270 c 0
 469 1270 389 1100 389 686 c 0
 389 268 469 98 664 98 c 0
EndSplineSet
EndChar

StartChar: Obreve
Encoding: 334 334 115
Width: 1325
GlyphClass: 2
Flags: HMW
HStem: -20 119<566 760 566 867> 1270 119<566 760> 1468 160<615 712 615 745>
VStem: 51 338<477 893 477 914> 371 123 834 121 934 340<477 893>
AnchorPoint: "Anchor-3" 664 1366 basechar 0
LayerCount: 2
Fore
SplineSet
664 1468 m 0xec
 500 1468 385 1577 371 1747 c 1
 408 1765 433 1769 494 1769 c 1
 508 1679 568 1628 664 1628 c 0
 760 1628 820 1679 834 1769 c 1
 891 1769 917 1763 954 1749 c 1
 940 1579 828 1468 664 1468 c 0xec
664 -20 m 0xf2
 258 -20 51 227 51 686 c 0
 51 1143 258 1389 664 1389 c 0
 1072 1389 1274 1143 1274 686 c 0
 1274 227 1072 -20 664 -20 c 0xf2
664 98 m 0
 857 98 934 268 934 686 c 0
 934 1100 857 1270 664 1270 c 0
 469 1270 389 1100 389 686 c 0
 389 268 469 98 664 98 c 0
EndSplineSet
EndChar

StartChar: Ocircumflex
Encoding: 212 212 116
Width: 1325
GlyphClass: 2
Flags: HMW
HStem: -20 119<566 760 566 867> 1270 119<566 760>
VStem: 51 338<477 893 477 914> 934 340<477 893>
AnchorPoint: "Anchor-3" 664 1366 basechar 0
LayerCount: 2
Fore
SplineSet
418 1470 m 1
 358 1546 l 1
 553 1765 l 2
 588 1804 623 1821 672 1821 c 0
 715 1821 739 1804 774 1765 c 2
 969 1546 l 1
 909 1470 l 1
 664 1640 l 1
 418 1470 l 1
664 -20 m 0
 258 -20 51 227 51 686 c 0
 51 1143 258 1389 664 1389 c 0
 1072 1389 1274 1143 1274 686 c 0
 1274 227 1072 -20 664 -20 c 0
664 98 m 0
 857 98 934 268 934 686 c 0
 934 1100 857 1270 664 1270 c 0
 469 1270 389 1100 389 686 c 0
 389 268 469 98 664 98 c 0
EndSplineSet
EndChar

StartChar: Odieresis
Encoding: 214 214 117
Width: 1325
GlyphClass: 2
Flags: HMW
HStem: -20 119<566 760 566 867> 1270 119<566 760> 1520 229<449 540 782 873>
VStem: 51 338<477 893 477 914> 362 268<1598 1672> 696 268<1598 1672> 934 340<477 893>
AnchorPoint: "Anchor-3" 664 1366 basechar 0
LayerCount: 2
Fore
SplineSet
496 1520 m 0xec
 402 1520 362 1560 362 1636 c 0
 362 1708 402 1749 496 1749 c 0
 584 1749 631 1708 631 1636 c 0
 631 1560 584 1520 496 1520 c 0xec
829 1520 m 0
 735 1520 696 1560 696 1636 c 0
 696 1708 735 1749 829 1749 c 0
 917 1749 965 1708 965 1636 c 0
 965 1560 917 1520 829 1520 c 0
664 -20 m 0xd2
 258 -20 51 227 51 686 c 0
 51 1143 258 1389 664 1389 c 0
 1072 1389 1274 1143 1274 686 c 0
 1274 227 1072 -20 664 -20 c 0xd2
664 98 m 0
 857 98 934 268 934 686 c 0
 934 1100 857 1270 664 1270 c 0
 469 1270 389 1100 389 686 c 0
 389 268 469 98 664 98 c 0
EndSplineSet
EndChar

StartChar: Ograve
Encoding: 210 210 118
Width: 1325
GlyphClass: 2
Flags: HMW
HStem: -20 119<566 760 566 867> 1270 119<566 760>
VStem: 51 338<477 893 477 914> 934 340<477 893>
AnchorPoint: "Anchor-3" 664 1366 basechar 0
LayerCount: 2
Fore
SplineSet
715 1462 m 1
 475 1632 l 2
 428 1665 408 1700 408 1741 c 0
 408 1804 447 1843 504 1843 c 0
 545 1843 586 1825 621 1774 c 2
 784 1530 l 1
 715 1462 l 1
664 -20 m 0
 258 -20 51 227 51 686 c 0
 51 1143 258 1389 664 1389 c 0
 1072 1389 1274 1143 1274 686 c 0
 1274 227 1072 -20 664 -20 c 0
664 98 m 0
 857 98 934 268 934 686 c 0
 934 1100 857 1270 664 1270 c 0
 469 1270 389 1100 389 686 c 0
 389 268 469 98 664 98 c 0
EndSplineSet
EndChar

StartChar: Ohungarumlaut
Encoding: 336 336 119
Width: 1325
GlyphClass: 2
Flags: HMW
HStem: -20 119<566 760 566 867> 1270 119<566 760>
VStem: 51 338<477 893 477 914> 934 340<477 893>
AnchorPoint: "Anchor-3" 664 1366 basechar 0
LayerCount: 2
Fore
SplineSet
461 1462 m 1
 391 1530 l 1
 545 1784 l 2
 576 1835 623 1853 662 1853 c 0
 719 1853 756 1814 756 1757 c 0
 756 1720 737 1675 690 1642 c 2
 461 1462 l 1
776 1462 m 1
 707 1530 l 1
 870 1774 l 2
 905 1825 948 1843 987 1843 c 0
 1044 1843 1081 1804 1081 1747 c 0
 1081 1710 1063 1665 1016 1632 c 2
 776 1462 l 1
664 -20 m 0
 258 -20 51 227 51 686 c 0
 51 1143 258 1389 664 1389 c 0
 1072 1389 1274 1143 1274 686 c 0
 1274 227 1072 -20 664 -20 c 0
664 98 m 0
 857 98 934 268 934 686 c 0
 934 1100 857 1270 664 1270 c 0
 469 1270 389 1100 389 686 c 0
 389 268 469 98 664 98 c 0
EndSplineSet
EndChar

StartChar: Omacron
Encoding: 332 332 120
Width: 1325
GlyphClass: 2
Flags: HMW
HStem: -20 119<566 760 566 867> 1270 119<566 760> 1563 139<346 983 346 983>
VStem: 51 338<477 893 477 914> 934 340<477 893>
AnchorPoint: "Anchor-3" 664 1366 basechar 0
LayerCount: 2
Fore
SplineSet
346 1563 m 1
 346 1702 l 1
 983 1702 l 1
 983 1563 l 1
 346 1563 l 1
664 -20 m 0
 258 -20 51 227 51 686 c 0
 51 1143 258 1389 664 1389 c 0
 1072 1389 1274 1143 1274 686 c 0
 1274 227 1072 -20 664 -20 c 0
664 98 m 0
 857 98 934 268 934 686 c 0
 934 1100 857 1270 664 1270 c 0
 469 1270 389 1100 389 686 c 0
 389 268 469 98 664 98 c 0
EndSplineSet
EndChar

StartChar: Oslash
Encoding: 216 216 121
Width: 1423
GlyphClass: 2
Flags: HMW
HStem: -20 119<660 809 660 916> 1270 119<615 763>
VStem: 100 338<646 893 646 914> 983 340<477 728>
AnchorPoint: "Anchor-5" 721 0 basechar 0
AnchorPoint: "Anchor-3" 715 1366 basechar 0
LayerCount: 2
Fore
SplineSet
240 -84 m 1
 193 -57 146 -27 109 14 c 1
 233 184 l 1
 145 303 100 471 100 686 c 0
 100 1143 307 1389 713 1389 c 0
 852 1389 967 1358 1059 1303 c 1
 1151 1427 l 1
 1202 1400 1247 1368 1282 1329 c 1
 1182 1194 l 1
 1276 1075 1323 905 1323 686 c 0
 1323 227 1121 -20 713 -20 c 0
 568 -20 448 11 354 72 c 1
 240 -84 l 1
446 473 m 1
 926 1120 l 1
 883 1222 813 1270 713 1270 c 0
 518 1270 438 1100 438 686 c 0
 438 606 440 534 446 473 c 1
713 98 m 0
 906 98 983 268 983 686 c 0
 983 770 979 843 973 909 c 1
 492 258 l 1
 537 147 609 98 713 98 c 0
EndSplineSet
EndChar

StartChar: Oslashacute
Encoding: 510 510 122
Width: 1423
GlyphClass: 2
Flags: HMW
HStem: -20 119<660 809 660 916> 1270 119<615 763>
VStem: 100 338<646 893 646 914> 983 340<477 728>
AnchorPoint: "Anchor-5" 721 0 basechar 0
AnchorPoint: "Anchor-3" 715 1366 basechar 0
LayerCount: 2
Fore
SplineSet
659 1460 m 1
 590 1528 l 1
 754 1772 l 2
 789 1823 831 1841 870 1841 c 0
 927 1841 965 1802 965 1745 c 0
 965 1708 946 1663 899 1630 c 2
 659 1460 l 1
240 -84 m 1
 193 -57 146 -27 109 14 c 1
 233 184 l 1
 145 303 100 471 100 686 c 0
 100 1143 307 1389 713 1389 c 0
 852 1389 967 1358 1059 1303 c 1
 1151 1427 l 1
 1202 1400 1247 1368 1282 1329 c 1
 1182 1194 l 1
 1276 1075 1323 905 1323 686 c 0
 1323 227 1121 -20 713 -20 c 0
 568 -20 448 11 354 72 c 1
 240 -84 l 1
446 473 m 1
 926 1120 l 1
 883 1222 813 1270 713 1270 c 0
 518 1270 438 1100 438 686 c 0
 438 606 440 534 446 473 c 1
713 98 m 0
 906 98 983 268 983 686 c 0
 983 770 979 843 973 909 c 1
 492 258 l 1
 537 147 609 98 713 98 c 0
EndSplineSet
EndChar

StartChar: Otilde
Encoding: 213 213 123
Width: 1325
GlyphClass: 2
Flags: HMW
HStem: -20 119<566 760 566 867> 1270 119<566 760> 1499 178<755 817 755 837> 1579 180<512 574>
VStem: 51 338<477 893 477 914> 934 340<477 893>
AnchorPoint: "Anchor-3" 664 1366 basechar 0
LayerCount: 2
Fore
SplineSet
412 1501 m 1xdc
 385 1511 340 1536 313 1567 c 1
 366 1682 447 1759 543 1759 c 0xdc
 627 1759 713 1677 797 1677 c 0
 838 1677 883 1710 918 1757 c 1
 945 1747 989 1723 1016 1694 c 1
 963 1579 884 1499 788 1499 c 0xec
 704 1499 616 1579 532 1579 c 0
 491 1579 449 1550 412 1501 c 1xdc
664 -20 m 0
 258 -20 51 227 51 686 c 0
 51 1143 258 1389 664 1389 c 0
 1072 1389 1274 1143 1274 686 c 0
 1274 227 1072 -20 664 -20 c 0
664 98 m 0
 857 98 934 268 934 686 c 0
 934 1100 857 1270 664 1270 c 0
 469 1270 389 1100 389 686 c 0
 389 268 469 98 664 98 c 0
EndSplineSet
EndChar

StartChar: OE
Encoding: 338 338 124
Width: 1949
GlyphClass: 2
Flags: HMW
HStem: -20 119<581 712> 0 127<1286 1645 1286 1872> 0 393<1809 1836 1809 1872> 643 120 1014 352<1774 1799> 1241 125<1286 1630 1286 1286> 1270 119<581 714 475 774>
VStem: 66 338<477 893 477 914> 948 338<477 651 756 893> 1591 106<483 907 483 907>
AnchorPoint: "Anchor-5" 1063 0 basechar 0
AnchorPoint: "Anchor-3" 1079 1366 basechar 0
LayerCount: 2
Fore
SplineSet
678 -20 m 0x95c0
 272 -20 66 227 66 686 c 0
 66 1143 272 1389 678 1389 c 0x53c0
 750 1389 815 1380 872 1366 c 1
 1862 1366 l 1x55c0
 1870 1028 l 1
 1843 1020 1815 1014 1784 1014 c 0
 1764 1014 1741 1018 1718 1022 c 1x59c0
 1695 1126 1671 1186 1630 1241 c 1
 1286 1241 l 1
 1286 756 l 1
 1477 770 l 2
 1526 774 1571 827 1591 907 c 1
 1698 907 l 1
 1698 483 l 1
 1591 483 l 1
 1552 594 1522 631 1475 635 c 2
 1286 651 l 1
 1286 127 l 1
 1645 127 l 1x55c0
 1688 190 1721 276 1741 387 c 1
 1770 391 1794 393 1825 393 c 0
 1848 393 1869 391 1892 387 c 1x35c0
 1872 0 l 1
 864 0 l 1x55c0
 809 -12 746 -20 678 -20 c 0x95c0
678 98 m 0x93c0
 871 98 948 268 948 686 c 0
 948 1100 871 1270 678 1270 c 0
 483 1270 403 1100 403 686 c 0
 403 268 483 98 678 98 c 0x93c0
EndSplineSet
EndChar

StartChar: Racute
Encoding: 340 340 125
Width: 1310
GlyphClass: 2
Flags: HMW
HStem: 0 84<61 70 70 70 70 627> 616 127 1241 125<592 647 647 694> 1286 80<61 647>
VStem: 186 301<145 618 743 1221 1221 1221> 854 317<919 1078>
AnchorPoint: "Anchor-5" 725 0 basechar 0
AnchorPoint: "Anchor-3" 621 1366 basechar 0
LayerCount: 2
Fore
SplineSet
565 1460 m 1xec
 496 1528 l 1
 659 1772 l 2
 694 1823 737 1841 776 1841 c 0
 833 1841 870 1802 870 1745 c 0
 870 1708 852 1663 805 1630 c 2
 565 1460 l 1xec
61 0 m 1
 70 84 l 1
 121 94 149 108 186 145 c 1
 186 1221 l 1
 159 1246 120 1266 61 1286 c 1xdc
 70 1366 l 1
 647 1366 l 2
 997 1366 1171 1248 1171 1006 c 0
 1171 832 1079 712 905 655 c 1
 942 630 981 590 1012 520 c 2
 1165 156 l 2
 1183 113 1237 96 1290 84 c 1
 1276 0 l 1
 903 0 l 1
 705 535 l 2
 689 580 650 612 580 614 c 2
 487 618 l 1
 487 145 l 1
 516 116 569 94 641 80 c 1
 627 0 l 1
 61 0 l 1
487 743 m 1
 621 743 l 2
 775 743 854 829 854 1001 c 0
 854 1155 768 1241 621 1241 c 0
 564 1241 526 1239 487 1233 c 1xec
 487 743 l 1
EndSplineSet
EndChar

StartChar: Rcaron
Encoding: 344 344 126
Width: 1310
GlyphClass: 2
Flags: HMW
HStem: 0 84<61 70 70 70 70 627> 616 127 1241 125<592 647 647 694> 1286 80<61 647>
VStem: 186 301<145 618 743 1221 1221 1221> 854 317<919 1078>
AnchorPoint: "Anchor-5" 725 0 basechar 0
AnchorPoint: "Anchor-3" 621 1366 basechar 0
LayerCount: 2
Fore
SplineSet
621 1468 m 0xec
 576 1468 541 1485 506 1524 c 2
 311 1743 l 1
 371 1819 l 1
 616 1649 l 1
 862 1819 l 1
 922 1743 l 1
 727 1524 l 2
 698 1491 656 1468 621 1468 c 0xec
61 0 m 1
 70 84 l 1
 121 94 149 108 186 145 c 1
 186 1221 l 1
 159 1246 120 1266 61 1286 c 1xdc
 70 1366 l 1
 647 1366 l 2
 997 1366 1171 1248 1171 1006 c 0
 1171 832 1079 712 905 655 c 1
 942 630 981 590 1012 520 c 2
 1165 156 l 2
 1183 113 1237 96 1290 84 c 1
 1276 0 l 1
 903 0 l 1
 705 535 l 2
 689 580 650 612 580 614 c 2
 487 618 l 1
 487 145 l 1
 516 116 569 94 641 80 c 1
 627 0 l 1
 61 0 l 1
487 743 m 1
 621 743 l 2
 775 743 854 829 854 1001 c 0
 854 1155 768 1241 621 1241 c 0
 564 1241 526 1239 487 1233 c 1xec
 487 743 l 1
EndSplineSet
EndChar

StartChar: uni0156
Encoding: 342 342 127
Width: 1310
GlyphClass: 2
Flags: HMW
HStem: -446 43G<717 717> 0 84<61 70 70 70 70 627> 616 127 1241 125<592 647 647 694> 1286 80<61 647>
VStem: 186 301<145 618 743 1221 1221 1221> 657 184<-201 -199> 854 317<919 1078>
AnchorPoint: "Anchor-5" 725 0 basechar 0
AnchorPoint: "Anchor-3" 621 1366 basechar 0
LayerCount: 2
Fore
SplineSet
61 0 m 1xf5
 70 84 l 1
 121 94 149 108 186 145 c 1
 186 1221 l 1
 159 1246 120 1266 61 1286 c 1xed
 70 1366 l 1
 647 1366 l 2
 997 1366 1171 1248 1171 1006 c 0
 1171 832 1079 712 905 655 c 1
 942 630 981 590 1012 520 c 2
 1165 156 l 2
 1183 113 1237 96 1290 84 c 1
 1276 0 l 1
 903 0 l 1
 705 535 l 2
 689 580 650 612 580 614 c 2
 487 618 l 1
 487 145 l 1
 516 116 569 94 641 80 c 1
 627 0 l 1
 61 0 l 1xf5
487 743 m 1
 621 743 l 2
 775 743 854 829 854 1001 c 0
 854 1155 768 1241 621 1241 c 0
 564 1241 526 1239 487 1233 c 1xf5
 487 743 l 1
717 -446 m 1xf6
 618 -406 l 1
 643 -338 657 -272 657 -223 c 0
 657 -174 643 -142 608 -113 c 1
 628 -82 678 -59 721 -59 c 0
 791 -59 842 -103 842 -164 c 0
 842 -238 793 -346 717 -446 c 1xf6
EndSplineSet
EndChar

StartChar: Sacute
Encoding: 346 346 128
Width: 968
GlyphClass: 2
Flags: HMW
HStem: -14 113<423 509 423 610> 1272 111<436 549>
VStem: 29 186<90 436 401 436> 31 272<1048 1115> 647 291<269 367> 674 238<1128 1187>
AnchorPoint: "Anchor-5" 467 0 basechar 0
AnchorPoint: "Anchor-4" 498 0 basechar 0
AnchorPoint: "Anchor-3" 477 1366 basechar 0
LayerCount: 2
Fore
SplineSet
422 1460 m 1xd8
 352 1528 l 1
 516 1772 l 2
 551 1823 594 1841 633 1841 c 0
 690 1841 727 1802 727 1745 c 0
 727 1708 709 1663 662 1630 c 2
 422 1460 l 1xd8
469 -14 m 0
 315 -14 158 22 29 90 c 1
 29 401 l 1
 215 436 l 1
 223 321 252 186 281 133 c 1
 340 110 396 98 451 98 c 0
 568 98 647 174 647 303 c 0xe8
 647 430 565 512 391 586 c 0
 123 701 31 799 31 1008 c 0
 31 1223 225 1382 489 1382 c 0
 722 1382 911 1263 911 1116 c 0
 911 1024 858 965 778 965 c 0
 727 965 678 983 623 1026 c 1
 656 1063 674 1108 674 1149 c 0xd4
 674 1225 605 1272 494 1272 c 0
 379 1272 303 1206 303 1108 c 0
 303 987 365 921 584 825 c 0
 836 714 938 602 938 397 c 0
 938 141 752 -14 469 -14 c 0
EndSplineSet
EndChar

StartChar: Scaron
Encoding: 352 352 129
Width: 968
GlyphClass: 2
Flags: HMW
HStem: -14 113<423 509 423 610> 1272 111<436 549>
VStem: 29 186<90 436 401 436> 31 272<1048 1115> 647 291<269 367> 674 238<1128 1187>
AnchorPoint: "Anchor-5" 467 0 basechar 0
AnchorPoint: "Anchor-4" 498 0 basechar 0
AnchorPoint: "Anchor-3" 477 1366 basechar 0
LayerCount: 2
Fore
SplineSet
477 1468 m 0xd8
 432 1468 397 1485 362 1524 c 2
 168 1743 l 1
 227 1819 l 1
 473 1649 l 1
 719 1819 l 1
 778 1743 l 1
 584 1524 l 2
 555 1491 512 1468 477 1468 c 0xd8
469 -14 m 0
 315 -14 158 22 29 90 c 1
 29 401 l 1
 215 436 l 1
 223 321 252 186 281 133 c 1
 340 110 396 98 451 98 c 0
 568 98 647 174 647 303 c 0xe8
 647 430 565 512 391 586 c 0
 123 701 31 799 31 1008 c 0
 31 1223 225 1382 489 1382 c 0
 722 1382 911 1263 911 1116 c 0
 911 1024 858 965 778 965 c 0
 727 965 678 983 623 1026 c 1
 656 1063 674 1108 674 1149 c 0xd4
 674 1225 605 1272 494 1272 c 0
 379 1272 303 1206 303 1108 c 0
 303 987 365 921 584 825 c 0
 836 714 938 602 938 397 c 0
 938 141 752 -14 469 -14 c 0
EndSplineSet
EndChar

StartChar: Scedilla
Encoding: 350 350 130
Width: 968
GlyphClass: 2
Flags: HMW
HStem: -430 86<425 469 425 516> -14 113<428 428> 1272 111<436 549>
VStem: 29 186<90 436 401 436> 31 272<1048 1115> 240 141<-278 -245 -278 -244> 520 152<-284 -219> 647 291<281 367> 674 238<1128 1187>
AnchorPoint: "Anchor-5" 467 0 basechar 0
AnchorPoint: "Anchor-4" 498 0 basechar 0
AnchorPoint: "Anchor-3" 477 1366 basechar 0
LayerCount: 2
Fore
SplineSet
938 397 m 0xe9
 938 164 785 15 543 -10 c 1
 530 -80 l 1
 616 -105 672 -146 672 -242 c 0
 672 -348 580 -430 453 -430 c 0
 301 -430 240 -340 240 -266 c 0
 240 -221 275 -178 336 -178 c 0
 354 -178 370 -183 399 -197 c 1
 387 -211 381 -233 381 -256 c 0xe6
 381 -299 403 -344 446 -344 c 0
 491 -344 520 -313 520 -254 c 0
 520 -184 465 -156 399 -150 c 1
 356 -100 l 1
 428 -14 l 1xf2
 289 -8 146 29 29 90 c 1
 29 401 l 1
 215 436 l 1
 223 321 252 186 281 133 c 1
 340 110 396 98 451 98 c 0
 568 98 647 174 647 303 c 0xf1
 647 430 565 512 391 586 c 0
 123 701 31 799 31 1008 c 0
 31 1223 225 1382 489 1382 c 0
 722 1382 911 1263 911 1116 c 0
 911 1024 858 965 778 965 c 0
 727 965 678 983 623 1026 c 1
 656 1063 674 1108 674 1149 c 0xe880
 674 1225 605 1272 494 1272 c 0
 379 1272 303 1206 303 1108 c 0
 303 987 365 921 584 825 c 0
 836 714 938 602 938 397 c 0xe9
EndSplineSet
Substitution2: "'locl' Localized Forms in Latin lookup 3 per glyph data 2" uni0218
Substitution2: "'locl' Localized Forms in Latin lookup 3 per glyph data 0" uni0218
Substitution2: "'aalt' Access All Alternates in Latin lookup 0 subtable" uni0218
EndChar

StartChar: Scircumflex
Encoding: 348 348 131
Width: 968
GlyphClass: 2
Flags: HMW
HStem: -14 113<423 509 423 610> 1272 111<436 549>
VStem: 29 186<90 436 401 436> 31 272<1048 1115> 647 291<269 367> 674 238<1128 1187>
AnchorPoint: "Anchor-5" 467 0 basechar 0
AnchorPoint: "Anchor-4" 498 0 basechar 0
AnchorPoint: "Anchor-3" 477 1366 basechar 0
LayerCount: 2
Fore
SplineSet
231 1470 m 1xd8
 172 1546 l 1
 367 1765 l 2
 402 1804 436 1821 485 1821 c 0
 528 1821 553 1804 588 1765 c 2
 782 1546 l 1
 723 1470 l 1
 477 1640 l 1
 231 1470 l 1xd8
469 -14 m 0
 315 -14 158 22 29 90 c 1
 29 401 l 1
 215 436 l 1
 223 321 252 186 281 133 c 1
 340 110 396 98 451 98 c 0
 568 98 647 174 647 303 c 0xe8
 647 430 565 512 391 586 c 0
 123 701 31 799 31 1008 c 0
 31 1223 225 1382 489 1382 c 0
 722 1382 911 1263 911 1116 c 0
 911 1024 858 965 778 965 c 0
 727 965 678 983 623 1026 c 1
 656 1063 674 1108 674 1149 c 0xd4
 674 1225 605 1272 494 1272 c 0
 379 1272 303 1206 303 1108 c 0
 303 987 365 921 584 825 c 0
 836 714 938 602 938 397 c 0
 938 141 752 -14 469 -14 c 0
EndSplineSet
EndChar

StartChar: uni0218
Encoding: 536 536 132
Width: 968
GlyphClass: 2
Flags: HMW
HStem: -446 43G<459 459> -14 113<423 509 423 610> 1272 111<436 549>
VStem: 29 186<90 436 401 436> 31 272<1048 1115> 399 184<-201 -199> 647 291<269 367> 674 238<1128 1187>
AnchorPoint: "Anchor-5" 467 0 basechar 0
AnchorPoint: "Anchor-4" 498 0 basechar 0
AnchorPoint: "Anchor-3" 477 1366 basechar 0
LayerCount: 2
Fore
SplineSet
469 -14 m 0xee
 315 -14 158 22 29 90 c 1
 29 401 l 1
 215 436 l 1
 223 321 252 186 281 133 c 1
 340 110 396 98 451 98 c 0
 568 98 647 174 647 303 c 0xf6
 647 430 565 512 391 586 c 0
 123 701 31 799 31 1008 c 0
 31 1223 225 1382 489 1382 c 0
 722 1382 911 1263 911 1116 c 0
 911 1024 858 965 778 965 c 0
 727 965 678 983 623 1026 c 1
 656 1063 674 1108 674 1149 c 0xed
 674 1225 605 1272 494 1272 c 0
 379 1272 303 1206 303 1108 c 0
 303 987 365 921 584 825 c 0
 836 714 938 602 938 397 c 0
 938 141 752 -14 469 -14 c 0xee
459 -446 m 1
 360 -406 l 1
 385 -338 399 -272 399 -223 c 0
 399 -174 385 -142 350 -113 c 1
 370 -82 420 -59 463 -59 c 0
 533 -59 584 -103 584 -164 c 0
 584 -238 535 -346 459 -446 c 1
EndSplineSet
EndChar

StartChar: Tbar
Encoding: 358 358 133
Width: 1202
GlyphClass: 2
Flags: HMW
HStem: 0 84<303 303 303 891 295 303> 602 139<201 451 201 451 752 1001> 983 383<81 683> 1239 127<451 683> 1241 125<463 752> 1333 41G<25 25 1178 1178>
VStem: 25 141<989 989> 451 301<145 602 145 602 741 1239 1239 1239> 1036 141<989 989>
AnchorPoint: "Anchor-5" 604 0 basechar 0
AnchorPoint: "Anchor-3" 604 1366 basechar 0
LayerCount: 2
Fore
SplineSet
600 1366 m 0xcb80
 766 1366 1149 1372 1178 1374 c 1xc780
 1178 989 l 1
 1155 985 1133 983 1110 983 c 0
 1085 983 1061 985 1036 989 c 1xe380
 1026 1081 998 1170 963 1225 c 1
 902 1233 832 1239 752 1241 c 1xcb80
 752 741 l 1
 1001 741 l 1
 1001 602 l 1
 752 602 l 1
 752 145 l 1
 781 118 829 98 905 84 c 1
 891 0 l 1
 295 0 l 1
 303 84 l 1
 366 92 410 110 451 145 c 1
 451 602 l 1
 201 602 l 1
 201 741 l 1
 451 741 l 1
 451 1239 l 1
 371 1237 303 1231 244 1227 c 1xd380
 201 1168 168 1069 166 989 c 1
 141 985 117 983 92 983 c 0
 69 983 48 985 25 989 c 1xe380
 25 1374 l 1xc780
 25 1374 326 1366 600 1366 c 0xcb80
EndSplineSet
EndChar

StartChar: Tcaron
Encoding: 356 356 134
Width: 1202
GlyphClass: 2
Flags: HMW
HStem: 0 84<295 303 303 303 303 891> 983 391<25 104> 1239 135 1241 133
VStem: 25 141<989 989> 451 301<145 1239 1239 1239> 1036 141<989 989>
AnchorPoint: "Anchor-5" 604 0 basechar 0
AnchorPoint: "Anchor-3" 604 1366 basechar 0
LayerCount: 2
Fore
SplineSet
604 1468 m 0x9e
 559 1468 524 1485 489 1524 c 2
 295 1743 l 1
 354 1819 l 1
 600 1649 l 1
 846 1819 l 1
 905 1743 l 1
 711 1524 l 2
 682 1491 639 1468 604 1468 c 0x9e
295 0 m 1
 303 84 l 1
 366 92 410 110 451 145 c 1
 451 1239 l 1
 371 1237 303 1231 244 1227 c 1xae
 201 1168 168 1069 166 989 c 1
 141 985 117 983 92 983 c 0
 69 983 48 985 25 989 c 1xce
 25 1374 l 1
 25 1374 326 1366 600 1366 c 0
 766 1366 1149 1372 1178 1374 c 1x9e
 1178 989 l 1
 1155 985 1133 983 1110 983 c 0
 1085 983 1061 985 1036 989 c 1xce
 1026 1081 998 1170 963 1225 c 1
 902 1233 832 1239 752 1241 c 1
 752 145 l 1
 781 118 829 98 905 84 c 1
 891 0 l 1
 295 0 l 1
EndSplineSet
EndChar

StartChar: uni021A
Encoding: 538 538 135
Width: 1202
GlyphClass: 2
Flags: HMW
HStem: -446 43G<596 596> 0 84<295 303 303 303 303 891> 983 391<25 104> 1239 135 1241 133
VStem: 25 141<989 989> 451 301<145 1239 1239 1239> 537 184<-201 -199> 1036 141<989 989>
AnchorPoint: "Anchor-5" 604 0 basechar 0
AnchorPoint: "Anchor-3" 604 1366 basechar 0
LayerCount: 2
Fore
SplineSet
295 0 m 1xce80
 303 84 l 1
 366 92 410 110 451 145 c 1
 451 1239 l 1
 371 1237 303 1231 244 1227 c 1xd680
 201 1168 168 1069 166 989 c 1
 141 985 117 983 92 983 c 0
 69 983 48 985 25 989 c 1xe680
 25 1374 l 1
 25 1374 326 1366 600 1366 c 0
 766 1366 1149 1372 1178 1374 c 1xce80
 1178 989 l 1
 1155 985 1133 983 1110 983 c 0
 1085 983 1061 985 1036 989 c 1xe680
 1026 1081 998 1170 963 1225 c 1
 902 1233 832 1239 752 1241 c 1
 752 145 l 1
 781 118 829 98 905 84 c 1
 891 0 l 1
 295 0 l 1xce80
596 -446 m 1xcd80
 498 -406 l 1
 523 -338 537 -272 537 -223 c 0
 537 -174 522 -142 487 -113 c 1
 507 -82 557 -59 600 -59 c 0
 670 -59 721 -103 721 -164 c 0
 721 -238 672 -346 596 -446 c 1xcd80
EndSplineSet
EndChar

StartChar: Thorn
Encoding: 222 222 136
Width: 1263
GlyphClass: 1
Flags: HMW
HStem: 0 84<59 59 59 647 51 59> 307 129<508 639 508 641> 975 125<612 668 668 718> 1282 84<51 662 649 649>
VStem: 207 301<145 307 145 436 436 967 1100 1221> 885 317<623 798>
LayerCount: 2
Fore
SplineSet
639 307 m 2
 508 307 l 1
 508 145 l 1
 539 116 592 98 662 84 c 1
 647 0 l 1
 51 0 l 1
 59 84 l 1
 125 94 168 112 207 145 c 1
 207 1221 l 1
 178 1250 108 1274 51 1282 c 1
 61 1366 l 1
 662 1366 l 1
 649 1282 l 1
 583 1270 549 1256 508 1221 c 1
 508 1100 l 1
 668 1100 l 2
 1024 1100 1202 973 1202 719 c 0
 1202 453 1001 307 639 307 c 2
641 975 m 0
 584 975 547 973 508 967 c 1
 508 436 l 1
 641 436 l 2
 801 436 885 531 885 715 c 0
 885 881 795 975 641 975 c 0
EndSplineSet
EndChar

StartChar: Uacute
Encoding: 218 218 137
Width: 1423
GlyphClass: 2
Flags: HMW
HStem: -14 137<681 883 681 908> 1221 145<193 193 494 494 1239 1239> 1282 84<37 647 635 635> 1286 80<1374 1374>
VStem: 193 301<426 1221> 1044 195<457 461 461 1221>
AnchorPoint: "Anchor-3" 764 1366 basechar 0
AnchorPoint: "Anchor-2" 879 0 basechar 0
LayerCount: 2
Fore
SplineSet
709 1460 m 1xac
 639 1528 l 1
 803 1772 l 2
 838 1823 881 1841 920 1841 c 0
 977 1841 1014 1802 1014 1745 c 0
 1014 1708 995 1663 948 1630 c 2
 709 1460 l 1xac
737 -14 m 0
 372 -14 193 131 193 426 c 2
 193 1221 l 1
 166 1248 98 1272 37 1282 c 1
 47 1366 l 1
 647 1366 l 1
 635 1282 l 1
 565 1268 533 1254 494 1221 c 1
 494 426 l 2
 494 227 581 123 780 123 c 0
 985 123 1044 271 1044 457 c 2
 1044 1225 l 1
 1005 1256 952 1268 889 1282 c 1
 899 1366 l 1
 1386 1366 l 1xac
 1374 1286 l 1x9c
 1315 1268 1272 1248 1239 1221 c 1xcc
 1239 461 l 2
 1239 144 1079 -14 737 -14 c 0
EndSplineSet
EndChar

StartChar: Ubreve
Encoding: 364 364 138
Width: 1423
GlyphClass: 2
Flags: HMW
HStem: -14 137<681 883 681 908> 1221 145<193 193 494 494 1239 1239> 1282 84<37 647 635 635> 1286 80<1374 1374> 1468 160<716 812 716 846>
VStem: 193 301<426 1221> 471 123 934 121 1044 195<457 461 461 1221>
AnchorPoint: "Anchor-3" 764 1366 basechar 0
AnchorPoint: "Anchor-2" 879 0 basechar 0
LayerCount: 2
Fore
SplineSet
764 1468 m 0xab
 600 1468 485 1577 471 1747 c 1
 508 1765 533 1769 594 1769 c 1
 608 1679 668 1628 764 1628 c 0
 860 1628 920 1679 934 1769 c 1
 991 1769 1018 1763 1055 1749 c 1
 1041 1579 928 1468 764 1468 c 0xab
737 -14 m 0xcc80
 372 -14 193 131 193 426 c 2
 193 1221 l 1
 166 1248 98 1272 37 1282 c 1
 47 1366 l 1
 647 1366 l 1
 635 1282 l 1
 565 1268 533 1254 494 1221 c 1
 494 426 l 2
 494 227 581 123 780 123 c 0
 985 123 1044 271 1044 457 c 2
 1044 1225 l 1
 1005 1256 952 1268 889 1282 c 1
 899 1366 l 1
 1386 1366 l 1xac80
 1374 1286 l 1x9c80
 1315 1268 1272 1248 1239 1221 c 1
 1239 461 l 2
 1239 144 1079 -14 737 -14 c 0xcc80
EndSplineSet
EndChar

StartChar: Ucircumflex
Encoding: 219 219 139
Width: 1423
GlyphClass: 2
Flags: HMW
HStem: -14 137<681 883 681 908> 1221 145<193 193 494 494 1239 1239> 1282 84<37 647 635 635> 1286 80<1374 1374>
VStem: 193 301<426 1221> 1044 195<457 461 461 1221>
AnchorPoint: "Anchor-3" 764 1366 basechar 0
AnchorPoint: "Anchor-2" 879 0 basechar 0
LayerCount: 2
Fore
SplineSet
518 1470 m 1xac
 459 1546 l 1
 653 1765 l 2
 688 1804 723 1821 772 1821 c 0
 815 1821 839 1804 874 1765 c 2
 1069 1546 l 1
 1010 1470 l 1
 764 1640 l 1
 518 1470 l 1xac
737 -14 m 0
 372 -14 193 131 193 426 c 2
 193 1221 l 1
 166 1248 98 1272 37 1282 c 1
 47 1366 l 1
 647 1366 l 1
 635 1282 l 1
 565 1268 533 1254 494 1221 c 1
 494 426 l 2
 494 227 581 123 780 123 c 0
 985 123 1044 271 1044 457 c 2
 1044 1225 l 1
 1005 1256 952 1268 889 1282 c 1
 899 1366 l 1
 1386 1366 l 1xac
 1374 1286 l 1x9c
 1315 1268 1272 1248 1239 1221 c 1xcc
 1239 461 l 2
 1239 144 1079 -14 737 -14 c 0
EndSplineSet
EndChar

StartChar: Udieresis
Encoding: 220 220 140
Width: 1423
GlyphClass: 2
Flags: HMW
HStem: -14 137<681 883 681 908> 1221 145<193 193 494 494 1239 1239> 1282 84<37 647 635 635> 1286 80<1374 1374> 1520 229<549 640 883 974>
VStem: 193 301<426 1221> 463 268<1598 1672> 797 268<1598 1672> 1044 195<457 461 461 1221>
AnchorPoint: "Anchor-3" 764 1366 basechar 0
AnchorPoint: "Anchor-2" 879 0 basechar 0
LayerCount: 2
Fore
SplineSet
596 1520 m 0xab
 502 1520 463 1560 463 1636 c 0
 463 1708 502 1749 596 1749 c 0
 684 1749 731 1708 731 1636 c 0
 731 1560 684 1520 596 1520 c 0xab
930 1520 m 0
 836 1520 797 1560 797 1636 c 0
 797 1708 836 1749 930 1749 c 0
 1018 1749 1065 1708 1065 1636 c 0
 1065 1560 1018 1520 930 1520 c 0
737 -14 m 0xcc80
 372 -14 193 131 193 426 c 2
 193 1221 l 1
 166 1248 98 1272 37 1282 c 1
 47 1366 l 1
 647 1366 l 1
 635 1282 l 1
 565 1268 533 1254 494 1221 c 1
 494 426 l 2
 494 227 581 123 780 123 c 0
 985 123 1044 271 1044 457 c 2
 1044 1225 l 1
 1005 1256 952 1268 889 1282 c 1
 899 1366 l 1
 1386 1366 l 1xac80
 1374 1286 l 1x9c80
 1315 1268 1272 1248 1239 1221 c 1
 1239 461 l 2
 1239 144 1079 -14 737 -14 c 0xcc80
EndSplineSet
EndChar

StartChar: Ugrave
Encoding: 217 217 141
Width: 1423
GlyphClass: 2
Flags: HMW
HStem: -14 137<681 883 681 908> 1221 145<193 193 494 494 1239 1239> 1282 84<37 647 635 635> 1286 80<1374 1374>
VStem: 193 301<426 1221> 1044 195<457 461 461 1221>
AnchorPoint: "Anchor-3" 764 1366 basechar 0
AnchorPoint: "Anchor-2" 879 0 basechar 0
LayerCount: 2
Fore
SplineSet
815 1462 m 1xac
 575 1632 l 2
 528 1665 508 1700 508 1741 c 0
 508 1804 547 1843 604 1843 c 0
 645 1843 686 1825 721 1774 c 2
 885 1530 l 1
 815 1462 l 1xac
737 -14 m 0
 372 -14 193 131 193 426 c 2
 193 1221 l 1
 166 1248 98 1272 37 1282 c 1
 47 1366 l 1
 647 1366 l 1
 635 1282 l 1
 565 1268 533 1254 494 1221 c 1
 494 426 l 2
 494 227 581 123 780 123 c 0
 985 123 1044 271 1044 457 c 2
 1044 1225 l 1
 1005 1256 952 1268 889 1282 c 1
 899 1366 l 1
 1386 1366 l 1xac
 1374 1286 l 1x9c
 1315 1268 1272 1248 1239 1221 c 1xcc
 1239 461 l 2
 1239 144 1079 -14 737 -14 c 0
EndSplineSet
EndChar

StartChar: Uhungarumlaut
Encoding: 368 368 142
Width: 1423
GlyphClass: 2
Flags: HMW
HStem: -14 137<681 883 681 908> 1221 145<193 193 494 494 1239 1239> 1282 84<37 647 635 635> 1286 80<1374 1374>
VStem: 193 301<426 1221> 1044 195<457 461 461 1221>
AnchorPoint: "Anchor-3" 764 1366 basechar 0
AnchorPoint: "Anchor-2" 879 0 basechar 0
LayerCount: 2
Fore
SplineSet
561 1462 m 1xac
 492 1530 l 1
 645 1784 l 2
 676 1835 723 1853 762 1853 c 0
 819 1853 856 1814 856 1757 c 0
 856 1720 838 1675 791 1642 c 2
 561 1462 l 1xac
877 1462 m 1
 807 1530 l 1
 971 1774 l 2
 1006 1825 1048 1843 1087 1843 c 0
 1144 1843 1182 1804 1182 1747 c 0
 1182 1710 1163 1665 1116 1632 c 2
 877 1462 l 1
737 -14 m 0
 372 -14 193 131 193 426 c 2
 193 1221 l 1
 166 1248 98 1272 37 1282 c 1
 47 1366 l 1
 647 1366 l 1
 635 1282 l 1
 565 1268 533 1254 494 1221 c 1
 494 426 l 2
 494 227 581 123 780 123 c 0
 985 123 1044 271 1044 457 c 2
 1044 1225 l 1
 1005 1256 952 1268 889 1282 c 1
 899 1366 l 1
 1386 1366 l 1xac
 1374 1286 l 1x9c
 1315 1268 1272 1248 1239 1221 c 1xcc
 1239 461 l 2
 1239 144 1079 -14 737 -14 c 0
EndSplineSet
EndChar

StartChar: Umacron
Encoding: 362 362 143
Width: 1423
GlyphClass: 2
Flags: HMW
HStem: -14 137<681 883 681 908> 1221 145<193 193 494 494 1239 1239> 1282 84<37 647 635 635> 1286 80<1374 1374> 1563 139<446 1083 446 1083>
VStem: 193 301<426 1221> 1044 195<457 461 461 1221>
AnchorPoint: "Anchor-3" 764 1366 basechar 0
AnchorPoint: "Anchor-2" 879 0 basechar 0
LayerCount: 2
Fore
SplineSet
446 1563 m 1xae
 446 1702 l 1
 1083 1702 l 1
 1083 1563 l 1
 446 1563 l 1xae
737 -14 m 0
 372 -14 193 131 193 426 c 2
 193 1221 l 1
 166 1248 98 1272 37 1282 c 1
 47 1366 l 1
 647 1366 l 1
 635 1282 l 1
 565 1268 533 1254 494 1221 c 1
 494 426 l 2
 494 227 581 123 780 123 c 0
 985 123 1044 271 1044 457 c 2
 1044 1225 l 1
 1005 1256 952 1268 889 1282 c 1
 899 1366 l 1
 1386 1366 l 1xae
 1374 1286 l 1x9e
 1315 1268 1272 1248 1239 1221 c 1xce
 1239 461 l 2
 1239 144 1079 -14 737 -14 c 0
EndSplineSet
EndChar

StartChar: Uogonek
Encoding: 370 370 144
Width: 1423
GlyphClass: 2
Flags: HMW
HStem: -418 123<658 800> -10 133 1221 145<193 193 494 494 1239 1239> 1282 84<37 647 635 635> 1286 80<1374 1374>
VStem: 193 301<426 1221> 516 193<-245 -207> 1044 195<457 461 461 1221>
AnchorPoint: "Anchor-3" 764 1366 basechar 0
AnchorPoint: "Anchor-2" 879 0 basechar 0
LayerCount: 2
Fore
SplineSet
899 1366 m 1xd5
 1386 1366 l 1xd5
 1374 1286 l 1xcd
 1315 1268 1272 1248 1239 1221 c 1
 1239 461 l 2
 1239 199 1130 45 901 0 c 1
 899 0 l 2
 885 -2 870 -6 854 -8 c 0
 762 -37 709 -149 709 -217 c 0
 709 -272 741 -295 780 -295 c 0
 819 -295 843 -273 870 -250 c 1
 924 -322 l 1
 871 -385 789 -418 709 -418 c 0
 609 -418 516 -357 516 -248 c 0
 516 -166 561 -110 606 -59 c 0xe7
 620 -43 635 -26 647 -10 c 1
 344 13 193 156 193 426 c 2
 193 1221 l 1
 166 1248 98 1272 37 1282 c 1
 47 1366 l 1
 647 1366 l 1
 635 1282 l 1
 565 1268 533 1254 494 1221 c 1
 494 426 l 2
 494 227 581 123 780 123 c 0
 985 123 1044 271 1044 457 c 2
 1044 1225 l 1
 1005 1256 952 1268 889 1282 c 1
 899 1366 l 1xd5
EndSplineSet
EndChar

StartChar: Uring
Encoding: 366 366 145
Width: 1423
GlyphClass: 2
Flags: HMW
HStem: -14 137<681 883 681 908> 1221 145<193 193 494 494 1239 1239> 1282 84<37 647 635 635> 1286 80<1374 1374> 1442 96<734 794 734 835> 1765 96<734 794>
VStem: 193 301<426 1221> 535 147<1619 1682 1619 1709> 848 147<1619 1682> 1044 195<457 461 461 1221>
AnchorPoint: "Anchor-3" 764 1366 basechar 0
AnchorPoint: "Anchor-2" 879 0 basechar 0
LayerCount: 2
Fore
SplineSet
764 1442 m 0xafc0
 623 1442 535 1534 535 1651 c 0
 535 1768 623 1862 764 1862 c 0
 905 1862 995 1768 995 1651 c 0
 995 1534 905 1442 764 1442 c 0xafc0
764 1538 m 0
 823 1538 848 1588 848 1651 c 0
 848 1714 823 1765 764 1765 c 0
 705 1765 682 1714 682 1651 c 0
 682 1588 705 1538 764 1538 c 0
737 -14 m 0xce40
 372 -14 193 131 193 426 c 2
 193 1221 l 1
 166 1248 98 1272 37 1282 c 1
 47 1366 l 1
 647 1366 l 1
 635 1282 l 1
 565 1268 533 1254 494 1221 c 1
 494 426 l 2
 494 227 581 123 780 123 c 0
 985 123 1044 271 1044 457 c 2
 1044 1225 l 1
 1005 1256 952 1268 889 1282 c 1
 899 1366 l 1
 1386 1366 l 1xae40
 1374 1286 l 1x9e40
 1315 1268 1272 1248 1239 1221 c 1
 1239 461 l 2
 1239 144 1079 -14 737 -14 c 0xce40
EndSplineSet
EndChar

StartChar: Utilde
Encoding: 360 360 146
Width: 1423
GlyphClass: 2
Flags: HMW
HStem: -14 137<681 883 681 908> 1221 145<193 193 494 494 1239 1239> 1282 84<37 647 635 635> 1286 80<1374 1374> 1499 178<855 918 855 937> 1579 180<612 675>
VStem: 193 301<426 1221> 1044 195<457 461 461 1221>
AnchorPoint: "Anchor-3" 764 1366 basechar 0
AnchorPoint: "Anchor-2" 879 0 basechar 0
LayerCount: 2
Fore
SplineSet
512 1501 m 1xa7
 485 1511 441 1536 414 1567 c 1
 467 1682 547 1759 643 1759 c 0xa7
 727 1759 813 1677 897 1677 c 0
 938 1677 983 1710 1018 1757 c 1
 1045 1747 1089 1723 1116 1694 c 1
 1063 1579 985 1499 889 1499 c 0xab
 805 1499 717 1579 633 1579 c 0
 592 1579 549 1550 512 1501 c 1xa7
737 -14 m 0xcb
 372 -14 193 131 193 426 c 2
 193 1221 l 1
 166 1248 98 1272 37 1282 c 1
 47 1366 l 1
 647 1366 l 1
 635 1282 l 1
 565 1268 533 1254 494 1221 c 1
 494 426 l 2
 494 227 581 123 780 123 c 0
 985 123 1044 271 1044 457 c 2
 1044 1225 l 1
 1005 1256 952 1268 889 1282 c 1
 899 1366 l 1
 1386 1366 l 1xab
 1374 1286 l 1x9b
 1315 1268 1272 1248 1239 1221 c 1
 1239 461 l 2
 1239 144 1079 -14 737 -14 c 0xcb
EndSplineSet
EndChar

StartChar: Wacute
Encoding: 7810 7810 147
Width: 1964
GlyphClass: 2
Flags: HMW
HStem: 0 43G<465 465 465 672 1219 1219 1219 1425> 1284 82<-8 563 551 551 1962 1962>
VStem: -8 1980<1284 1366>
AnchorPoint: "Anchor-3" 1044 1366 basechar 0
LayerCount: 2
Fore
SplineSet
989 1460 m 1
 920 1528 l 1
 1083 1772 l 2
 1118 1823 1161 1841 1200 1841 c 0
 1257 1841 1294 1802 1294 1745 c 0
 1294 1708 1276 1663 1229 1630 c 2
 989 1460 l 1
465 0 m 1
 121 1194 l 2
 107 1247 62 1268 -8 1284 c 1
 2 1366 l 1
 563 1366 l 1
 551 1284 l 1
 496 1282 455 1270 422 1239 c 1
 662 379 l 1
 952 1366 l 1
 1133 1366 l 1
 1415 379 l 1
 1673 1221 l 1
 1636 1256 1572 1276 1509 1284 c 1
 1520 1366 l 1
 1972 1366 l 1
 1962 1284 l 1
 1896 1282 1843 1260 1831 1221 c 2
 1425 0 l 1
 1219 0 l 1
 956 881 l 1
 672 0 l 1
 465 0 l 1
EndSplineSet
EndChar

StartChar: Wcircumflex
Encoding: 372 372 148
Width: 1964
GlyphClass: 2
Flags: HMW
HStem: 0 43G<465 465 465 672 1219 1219 1219 1425> 1284 82<-8 563 551 551 1962 1962>
VStem: -8 1980<1284 1366>
AnchorPoint: "Anchor-3" 1044 1366 basechar 0
LayerCount: 2
Fore
SplineSet
799 1470 m 1
 739 1546 l 1
 934 1765 l 2
 969 1804 1004 1821 1053 1821 c 0
 1096 1821 1120 1804 1155 1765 c 2
 1350 1546 l 1
 1290 1470 l 1
 1044 1640 l 1
 799 1470 l 1
465 0 m 1
 121 1194 l 2
 107 1247 62 1268 -8 1284 c 1
 2 1366 l 1
 563 1366 l 1
 551 1284 l 1
 496 1282 455 1270 422 1239 c 1
 662 379 l 1
 952 1366 l 1
 1133 1366 l 1
 1415 379 l 1
 1673 1221 l 1
 1636 1256 1572 1276 1509 1284 c 1
 1520 1366 l 1
 1972 1366 l 1
 1962 1284 l 1
 1896 1282 1843 1260 1831 1221 c 2
 1425 0 l 1
 1219 0 l 1
 956 881 l 1
 672 0 l 1
 465 0 l 1
EndSplineSet
EndChar

StartChar: Wdieresis
Encoding: 7812 7812 149
Width: 1964
GlyphClass: 2
Flags: HMW
HStem: 0 43G<465 465 465 672 1219 1219 1219 1425> 1284 82<-8 563 551 551 1962 1962> 1520 229<829 921 1163 1254>
VStem: 743 268<1598 1672> 1077 268<1598 1672>
AnchorPoint: "Anchor-3" 1044 1366 basechar 0
LayerCount: 2
Fore
SplineSet
877 1520 m 0
 783 1520 743 1560 743 1636 c 0
 743 1708 783 1749 877 1749 c 0
 965 1749 1012 1708 1012 1636 c 0
 1012 1560 965 1520 877 1520 c 0
1210 1520 m 0
 1116 1520 1077 1560 1077 1636 c 0
 1077 1708 1116 1749 1210 1749 c 0
 1298 1749 1346 1708 1346 1636 c 0
 1346 1560 1298 1520 1210 1520 c 0
465 0 m 1
 121 1194 l 2
 107 1247 62 1268 -8 1284 c 1
 2 1366 l 1
 563 1366 l 1
 551 1284 l 1
 496 1282 455 1270 422 1239 c 1
 662 379 l 1
 952 1366 l 1
 1133 1366 l 1
 1415 379 l 1
 1673 1221 l 1
 1636 1256 1572 1276 1509 1284 c 1
 1520 1366 l 1
 1972 1366 l 1
 1962 1284 l 1
 1896 1282 1843 1260 1831 1221 c 2
 1425 0 l 1
 1219 0 l 1
 956 881 l 1
 672 0 l 1
 465 0 l 1
EndSplineSet
EndChar

StartChar: Wgrave
Encoding: 7808 7808 150
Width: 1964
GlyphClass: 2
Flags: HMW
HStem: 0 43G<465 465 465 672 1219 1219 1219 1425> 1284 82<-8 563 551 551 1962 1962>
VStem: -8 1980<1284 1366>
AnchorPoint: "Anchor-3" 1044 1366 basechar 0
LayerCount: 2
Fore
SplineSet
1096 1462 m 1
 856 1632 l 2
 809 1665 788 1700 788 1741 c 0
 788 1804 828 1843 885 1843 c 0
 926 1843 966 1825 1001 1774 c 2
 1165 1530 l 1
 1096 1462 l 1
465 0 m 1
 121 1194 l 2
 107 1247 62 1268 -8 1284 c 1
 2 1366 l 1
 563 1366 l 1
 551 1284 l 1
 496 1282 455 1270 422 1239 c 1
 662 379 l 1
 952 1366 l 1
 1133 1366 l 1
 1415 379 l 1
 1673 1221 l 1
 1636 1256 1572 1276 1509 1284 c 1
 1520 1366 l 1
 1972 1366 l 1
 1962 1284 l 1
 1896 1282 1843 1260 1831 1221 c 2
 1425 0 l 1
 1219 0 l 1
 956 881 l 1
 672 0 l 1
 465 0 l 1
EndSplineSet
EndChar

StartChar: Yacute
Encoding: 221 221 151
Width: 1202
GlyphClass: 2
Flags: HMW
HStem: 0 84<303 311 311 311 311 868> 1284 82<-12 553 541 541 1202 1202>
VStem: 428 301<145 549 145 551 145 551>
AnchorPoint: "Anchor-3" 643 1366 basechar 0
LayerCount: 2
Fore
SplineSet
588 1460 m 1
 518 1528 l 1
 682 1772 l 2
 717 1823 760 1841 799 1841 c 0
 856 1841 893 1802 893 1745 c 0
 893 1708 874 1663 827 1630 c 2
 588 1460 l 1
303 0 m 1
 311 84 l 1
 354 90 408 112 428 135 c 1
 428 551 l 1
 117 1204 l 2
 97 1247 58 1270 -12 1284 c 1
 -2 1366 l 1
 553 1366 l 1
 541 1284 l 1
 486 1282 445 1270 414 1239 c 1
 657 731 l 1
 907 1223 l 1
 870 1256 806 1276 743 1284 c 1
 754 1366 l 1
 1212 1366 l 1
 1202 1284 l 1
 1132 1282 1089 1260 1073 1229 c 2
 729 549 l 1
 729 145 l 1
 760 116 813 94 883 80 c 1
 868 0 l 1
 303 0 l 1
EndSplineSet
EndChar

StartChar: Ycircumflex
Encoding: 374 374 152
Width: 1202
GlyphClass: 2
Flags: HMW
HStem: 0 84<303 311 311 311 311 868> 1284 82<-12 553 541 541 1202 1202>
VStem: 428 301<145 549 145 551 145 551>
AnchorPoint: "Anchor-3" 643 1366 basechar 0
LayerCount: 2
Fore
SplineSet
397 1470 m 1
 338 1546 l 1
 532 1765 l 2
 567 1804 602 1821 651 1821 c 0
 694 1821 719 1804 754 1765 c 2
 948 1546 l 1
 889 1470 l 1
 643 1640 l 1
 397 1470 l 1
303 0 m 1
 311 84 l 1
 354 90 408 112 428 135 c 1
 428 551 l 1
 117 1204 l 2
 97 1247 58 1270 -12 1284 c 1
 -2 1366 l 1
 553 1366 l 1
 541 1284 l 1
 486 1282 445 1270 414 1239 c 1
 657 731 l 1
 907 1223 l 1
 870 1256 806 1276 743 1284 c 1
 754 1366 l 1
 1212 1366 l 1
 1202 1284 l 1
 1132 1282 1089 1260 1073 1229 c 2
 729 549 l 1
 729 145 l 1
 760 116 813 94 883 80 c 1
 868 0 l 1
 303 0 l 1
EndSplineSet
EndChar

StartChar: Ydieresis
Encoding: 376 376 153
Width: 1202
GlyphClass: 2
Flags: HMW
HStem: 0 84<303 311 311 311 311 868> 1284 82<-12 553 541 541 1202 1202> 1520 229<428 519 762 853>
VStem: 342 268<1598 1672> 428 301<145 549 145 551 145 551> 676 268<1598 1672>
AnchorPoint: "Anchor-3" 643 1366 basechar 0
LayerCount: 2
Fore
SplineSet
475 1520 m 0xf4
 381 1520 342 1560 342 1636 c 0
 342 1708 381 1749 475 1749 c 0
 563 1749 610 1708 610 1636 c 0
 610 1560 563 1520 475 1520 c 0xf4
809 1520 m 0
 715 1520 676 1560 676 1636 c 0
 676 1708 715 1749 809 1749 c 0
 897 1749 944 1708 944 1636 c 0
 944 1560 897 1520 809 1520 c 0
303 0 m 1
 311 84 l 1
 354 90 408 112 428 135 c 1
 428 551 l 1
 117 1204 l 2
 97 1247 58 1270 -12 1284 c 1
 -2 1366 l 1
 553 1366 l 1
 541 1284 l 1
 486 1282 445 1270 414 1239 c 1
 657 731 l 1
 907 1223 l 1
 870 1256 806 1276 743 1284 c 1
 754 1366 l 1
 1212 1366 l 1
 1202 1284 l 1
 1132 1282 1089 1260 1073 1229 c 2
 729 549 l 1
 729 145 l 1
 760 116 813 94 883 80 c 1
 868 0 l 1xe8
 303 0 l 1
EndSplineSet
EndChar

StartChar: Ygrave
Encoding: 7922 7922 154
Width: 1202
GlyphClass: 2
Flags: HMW
HStem: 0 84<303 311 311 311 311 868> 1284 82<-12 553 541 541 1202 1202>
VStem: 428 301<145 549 145 551 145 551>
AnchorPoint: "Anchor-3" 643 1366 basechar 0
LayerCount: 2
Fore
SplineSet
694 1462 m 1
 455 1632 l 2
 408 1665 387 1700 387 1741 c 0
 387 1804 426 1843 483 1843 c 0
 524 1843 565 1825 600 1774 c 2
 764 1530 l 1
 694 1462 l 1
303 0 m 1
 311 84 l 1
 354 90 408 112 428 135 c 1
 428 551 l 1
 117 1204 l 2
 97 1247 58 1270 -12 1284 c 1
 -2 1366 l 1
 553 1366 l 1
 541 1284 l 1
 486 1282 445 1270 414 1239 c 1
 657 731 l 1
 907 1223 l 1
 870 1256 806 1276 743 1284 c 1
 754 1366 l 1
 1212 1366 l 1
 1202 1284 l 1
 1132 1282 1089 1260 1073 1229 c 2
 729 549 l 1
 729 145 l 1
 760 116 813 94 883 80 c 1
 868 0 l 1
 303 0 l 1
EndSplineSet
EndChar

StartChar: uni1EF8
Encoding: 7928 7928 155
Width: 1202
GlyphClass: 2
Flags: HMW
HStem: 0 84<303 311 311 311 311 868> 1284 82<-12 553 541 541 1202 1202> 1499 178<734 797 734 816> 1579 180<492 554>
VStem: 428 301<145 549 145 551 145 551>
AnchorPoint: "Anchor-3" 643 1366 basechar 0
LayerCount: 2
Fore
SplineSet
391 1501 m 1xd8
 364 1511 320 1536 293 1567 c 1
 346 1682 426 1759 522 1759 c 0xd8
 606 1759 692 1677 776 1677 c 0
 817 1677 862 1710 897 1757 c 1
 924 1747 968 1723 995 1694 c 1
 942 1579 864 1499 768 1499 c 0xe8
 684 1499 596 1579 512 1579 c 0
 471 1579 428 1550 391 1501 c 1xd8
303 0 m 1xe8
 311 84 l 1
 354 90 408 112 428 135 c 1
 428 551 l 1
 117 1204 l 2
 97 1247 58 1270 -12 1284 c 1
 -2 1366 l 1
 553 1366 l 1
 541 1284 l 1
 486 1282 445 1270 414 1239 c 1
 657 731 l 1
 907 1223 l 1
 870 1256 806 1276 743 1284 c 1
 754 1366 l 1
 1212 1366 l 1
 1202 1284 l 1
 1132 1282 1089 1260 1073 1229 c 2
 729 549 l 1
 729 145 l 1
 760 116 813 94 883 80 c 1
 868 0 l 1
 303 0 l 1xe8
EndSplineSet
EndChar

StartChar: Zacute
Encoding: 377 377 156
Width: 1134
GlyphClass: 2
Flags: HMW
HStem: -4 125 1249 121 1292 78 1305 66
VStem: 61 186
AnchorPoint: "Anchor-3" 606 1366 basechar 0
LayerCount: 2
Fore
SplineSet
551 1460 m 1xc8
 481 1528 l 1
 645 1772 l 2
 680 1823 723 1841 762 1841 c 0
 819 1841 856 1802 856 1745 c 0
 856 1708 838 1663 791 1630 c 2
 551 1460 l 1xc8
57 -4 m 1
 49 92 l 1
 717 1247 l 1
 649 1249 584 1249 518 1249 c 0
 450 1249 388 1249 322 1247 c 1xc8
 297 1216 266 1108 248 993 c 1
 225 989 201 987 176 987 c 0
 141 987 107 994 74 1004 c 1
 49 1305 l 1x98
 125 1370 l 1
 172 1368 407 1366 610 1366 c 0
 760 1366 911 1366 1067 1370 c 1xc8
 1087 1292 l 1xa8
 401 121 l 1
 538 117 688 119 827 121 c 1
 870 182 909 283 934 389 c 1
 959 395 989 397 1016 397 c 0
 1043 397 1069 395 1087 391 c 1
 1069 -4 l 1
 977 -4 719 0 526 0 c 0
 393 0 133 0 57 -4 c 1
EndSplineSet
EndChar

StartChar: Zcaron
Encoding: 381 381 157
Width: 1134
GlyphClass: 2
Flags: HMW
HStem: -4 125 1249 121 1292 78 1305 66
VStem: 61 186
AnchorPoint: "Anchor-3" 606 1366 basechar 0
LayerCount: 2
Fore
SplineSet
606 1468 m 0xc8
 561 1468 527 1485 492 1524 c 2
 297 1743 l 1
 356 1819 l 1
 602 1649 l 1
 848 1819 l 1
 907 1743 l 1
 713 1524 l 2
 684 1491 641 1468 606 1468 c 0xc8
57 -4 m 1
 49 92 l 1
 717 1247 l 1
 649 1249 584 1249 518 1249 c 0
 450 1249 388 1249 322 1247 c 1xc8
 297 1216 266 1108 248 993 c 1
 225 989 201 987 176 987 c 0
 141 987 107 994 74 1004 c 1
 49 1305 l 1x98
 125 1370 l 1
 172 1368 407 1366 610 1366 c 0
 760 1366 911 1366 1067 1370 c 1xc8
 1087 1292 l 1xa8
 401 121 l 1
 538 117 688 119 827 121 c 1
 870 182 909 283 934 389 c 1
 959 395 989 397 1016 397 c 0
 1043 397 1069 395 1087 391 c 1
 1069 -4 l 1
 977 -4 719 0 526 0 c 0
 393 0 133 0 57 -4 c 1
EndSplineSet
EndChar

StartChar: Zdotaccent
Encoding: 379 379 158
Width: 1134
GlyphClass: 2
Flags: HMW
HStem: -4 125 1249 121 1292 78 1305 66 1495 287<549 658>
VStem: 61 186 440 326<1593 1684>
AnchorPoint: "Anchor-3" 606 1366 basechar 0
LayerCount: 2
Fore
SplineSet
604 1495 m 0xce
 493 1495 440 1548 440 1638 c 0
 440 1730 493 1782 604 1782 c 0
 713 1782 766 1730 766 1638 c 0
 766 1548 713 1495 604 1495 c 0xce
57 -4 m 1
 49 92 l 1
 717 1247 l 1
 649 1249 584 1249 518 1249 c 0
 450 1249 388 1249 322 1247 c 1xce
 297 1216 266 1108 248 993 c 1
 225 989 201 987 176 987 c 0
 141 987 107 994 74 1004 c 1
 49 1305 l 1x9e
 125 1370 l 1
 172 1368 407 1366 610 1366 c 0
 760 1366 911 1366 1067 1370 c 1xce
 1087 1292 l 1xae
 401 121 l 1
 538 117 688 119 827 121 c 1
 870 182 909 283 934 389 c 1
 959 395 989 397 1016 397 c 0
 1043 397 1069 395 1087 391 c 1
 1069 -4 l 1
 977 -4 719 0 526 0 c 0
 393 0 133 0 57 -4 c 1
EndSplineSet
EndChar

StartChar: aacute
Encoding: 225 225 159
Width: 1075
GlyphClass: 2
Flags: HMW
HStem: -14 133<244 469> 0 72<664 1040> 451 98 928 80<439 534>
VStem: 45 270<218 323 218 331> 88 256<807 847> 629 289<231 455 455 455 555 674 674 684 127 769>
AnchorPoint: "Anchor-3" 483 991 basechar 0
AnchorPoint: "Anchor-2" 870 0 basechar 0
LayerCount: 2
Fore
SplineSet
428 1077 m 1x72
 358 1145 l 1
 522 1389 l 2
 557 1440 600 1458 639 1458 c 0
 696 1458 733 1419 733 1362 c 0
 733 1325 715 1280 668 1247 c 2
 428 1077 l 1x72
338 -14 m 0xba
 150 -14 45 76 45 242 c 0x7a
 45 420 183 525 449 543 c 2
 629 555 l 1
 629 674 l 2
 629 864 590 928 477 928 c 0
 401 928 344 882 344 823 c 0
 344 790 360 760 389 737 c 1
 375 669 320 625 246 625 c 0
 156 625 88 688 88 774 c 0
 88 919 235 1008 477 1008 c 0
 768 1008 918 897 918 684 c 2
 918 127 l 1
 936 107 987 82 1040 72 c 1
 1032 0 l 1
 664 0 l 1x76
 643 117 l 1
 553 27 457 -14 338 -14 c 0xba
438 119 m 0
 499 119 561 151 629 231 c 1
 629 455 l 1
 526 446 l 2
 376 434 315 381 315 264 c 0
 315 172 360 119 438 119 c 0
EndSplineSet
EndChar

StartChar: abreve
Encoding: 259 259 160
Width: 1075
GlyphClass: 2
Flags: HMW
HStem: -14 133<244 469> 0 72<664 1040> 451 98 928 80<439 534> 1100 160<435 531 435 565> 1339 41G
VStem: 45 270<218 323 218 331> 88 256<807 847> 190 123 629 289<231 455 455 455 555 674 674 684 127 769> 653 121
AnchorPoint: "Anchor-3" 483 991 basechar 0
AnchorPoint: "Anchor-2" 870 0 basechar 0
LayerCount: 2
Fore
SplineSet
483 1100 m 0x7cc0
 319 1100 204 1208 190 1378 c 1
 227 1396 252 1401 313 1401 c 1
 327 1311 387 1260 483 1260 c 0
 579 1260 639 1311 653 1401 c 1
 710 1401 737 1394 774 1380 c 1x7ca0
 760 1210 647 1100 483 1100 c 0x7cc0
338 -14 m 0xbe40
 150 -14 45 76 45 242 c 0x7e40
 45 420 183 525 449 543 c 2
 629 555 l 1
 629 674 l 2
 629 864 590 928 477 928 c 0
 401 928 344 882 344 823 c 0
 344 790 360 760 389 737 c 1
 375 669 320 625 246 625 c 0
 156 625 88 688 88 774 c 0
 88 919 235 1008 477 1008 c 0
 768 1008 918 897 918 684 c 2
 918 127 l 1
 936 107 987 82 1040 72 c 1
 1032 0 l 1
 664 0 l 1x7d40
 643 117 l 1
 553 27 457 -14 338 -14 c 0xbe40
438 119 m 0
 499 119 561 151 629 231 c 1
 629 455 l 1
 526 446 l 2
 376 434 315 381 315 264 c 0
 315 172 360 119 438 119 c 0
EndSplineSet
EndChar

StartChar: acircumflex
Encoding: 226 226 161
Width: 1075
GlyphClass: 2
Flags: HMW
HStem: -14 133<244 469> 0 72<664 1040> 451 98 928 80<439 534>
VStem: 45 270<218 323 218 331> 88 256<807 847> 629 289<231 455 455 455 555 674 674 684 127 769>
AnchorPoint: "Anchor-3" 483 991 basechar 0
AnchorPoint: "Anchor-2" 870 0 basechar 0
LayerCount: 2
Fore
SplineSet
238 1087 m 1x72
 178 1163 l 1
 373 1382 l 2
 408 1421 443 1438 492 1438 c 0
 535 1438 559 1421 594 1382 c 2
 788 1163 l 1
 729 1087 l 1
 483 1257 l 1
 238 1087 l 1x72
338 -14 m 0xba
 150 -14 45 76 45 242 c 0x7a
 45 420 183 525 449 543 c 2
 629 555 l 1
 629 674 l 2
 629 864 590 928 477 928 c 0
 401 928 344 882 344 823 c 0
 344 790 360 760 389 737 c 1
 375 669 320 625 246 625 c 0
 156 625 88 688 88 774 c 0
 88 919 235 1008 477 1008 c 0
 768 1008 918 897 918 684 c 2
 918 127 l 1
 936 107 987 82 1040 72 c 1
 1032 0 l 1
 664 0 l 1x76
 643 117 l 1
 553 27 457 -14 338 -14 c 0xba
438 119 m 0
 499 119 561 151 629 231 c 1
 629 455 l 1
 526 446 l 2
 376 434 315 381 315 264 c 0
 315 172 360 119 438 119 c 0
EndSplineSet
EndChar

StartChar: adieresis
Encoding: 228 228 162
Width: 1075
GlyphClass: 2
Flags: HMW
HStem: -14 133<244 469> 0 72<664 1040> 451 98 928 80<439 534> 1124 229<268 359 602 693>
VStem: 45 270<218 323 218 331> 88 256<807 847> 182 268<1203 1277> 516 268<1203 1277> 629 289<231 455 455 455 555 674 674 684 127 769>
AnchorPoint: "Anchor-3" 483 991 basechar 0
AnchorPoint: "Anchor-2" 870 0 basechar 0
LayerCount: 2
Fore
SplineSet
315 1124 m 0x7940
 221 1124 182 1165 182 1241 c 0
 182 1313 221 1354 315 1354 c 0
 403 1354 451 1313 451 1241 c 0
 451 1165 403 1124 315 1124 c 0x7940
649 1124 m 0xbc80
 555 1124 516 1165 516 1241 c 0
 516 1313 555 1354 649 1354 c 0
 737 1354 784 1313 784 1241 c 0
 784 1165 737 1124 649 1124 c 0xbc80
338 -14 m 0
 150 -14 45 76 45 242 c 0x7c40
 45 420 183 525 449 543 c 2
 629 555 l 1
 629 674 l 2
 629 864 590 928 477 928 c 0
 401 928 344 882 344 823 c 0
 344 790 360 760 389 737 c 1
 375 669 320 625 246 625 c 0
 156 625 88 688 88 774 c 0
 88 919 235 1008 477 1008 c 0
 768 1008 918 897 918 684 c 2
 918 127 l 1
 936 107 987 82 1040 72 c 1
 1032 0 l 1x7a40
 664 0 l 1x7980
 643 117 l 1
 553 27 457 -14 338 -14 c 0
438 119 m 0
 499 119 561 151 629 231 c 1
 629 455 l 1
 526 446 l 2xbc40
 376 434 315 381 315 264 c 0
 315 172 360 119 438 119 c 0
EndSplineSet
EndChar

StartChar: agrave
Encoding: 224 224 163
Width: 1075
GlyphClass: 2
Flags: HMW
HStem: -14 133<244 469> 0 72<664 1040> 451 98 928 80<439 534>
VStem: 45 270<218 323 218 331> 88 256<807 847> 629 289<231 455 455 455 555 674 674 684 127 769>
AnchorPoint: "Anchor-3" 483 991 basechar 0
AnchorPoint: "Anchor-2" 870 0 basechar 0
LayerCount: 2
Fore
SplineSet
545 1073 m 1x72
 305 1243 l 2
 258 1276 238 1311 238 1352 c 0
 238 1415 277 1454 334 1454 c 0
 375 1454 416 1435 451 1384 c 2
 614 1141 l 1
 545 1073 l 1x72
338 -14 m 0xba
 150 -14 45 76 45 242 c 0x7a
 45 420 183 525 449 543 c 2
 629 555 l 1
 629 674 l 2
 629 864 590 928 477 928 c 0
 401 928 344 882 344 823 c 0
 344 790 360 760 389 737 c 1
 375 669 320 625 246 625 c 0
 156 625 88 688 88 774 c 0
 88 919 235 1008 477 1008 c 0
 768 1008 918 897 918 684 c 2
 918 127 l 1
 936 107 987 82 1040 72 c 1
 1032 0 l 1
 664 0 l 1x76
 643 117 l 1
 553 27 457 -14 338 -14 c 0xba
438 119 m 0
 499 119 561 151 629 231 c 1
 629 455 l 1
 526 446 l 2
 376 434 315 381 315 264 c 0
 315 172 360 119 438 119 c 0
EndSplineSet
EndChar

StartChar: amacron
Encoding: 257 257 164
Width: 1075
GlyphClass: 2
Flags: HMW
HStem: -14 133<244 469> 0 72<664 1040> 451 98 928 80<439 534> 1155 139<166 803 166 803>
VStem: 45 270<218 323 218 331> 88 256<807 847> 629 289<231 455 455 455 555 674 674 684 127 769>
AnchorPoint: "Anchor-3" 483 991 basechar 0
AnchorPoint: "Anchor-2" 870 0 basechar 0
LayerCount: 2
Fore
SplineSet
166 1155 m 1x79
 166 1294 l 1
 803 1294 l 1
 803 1155 l 1
 166 1155 l 1x79
338 -14 m 0xbd
 150 -14 45 76 45 242 c 0x7d
 45 420 183 525 449 543 c 2
 629 555 l 1
 629 674 l 2
 629 864 590 928 477 928 c 0
 401 928 344 882 344 823 c 0
 344 790 360 760 389 737 c 1
 375 669 320 625 246 625 c 0
 156 625 88 688 88 774 c 0
 88 919 235 1008 477 1008 c 0
 768 1008 918 897 918 684 c 2
 918 127 l 1
 936 107 987 82 1040 72 c 1
 1032 0 l 1
 664 0 l 1x7b
 643 117 l 1
 553 27 457 -14 338 -14 c 0xbd
438 119 m 0
 499 119 561 151 629 231 c 1
 629 455 l 1
 526 446 l 2
 376 434 315 381 315 264 c 0
 315 172 360 119 438 119 c 0
EndSplineSet
EndChar

StartChar: aogonek
Encoding: 261 261 165
Width: 1075
GlyphClass: 2
Flags: HMW
HStem: -418 121<650 780> -14 133<244 469> 0 72<911 1040> 451 98 928 80<439 534>
VStem: 45 270<218 323 218 331> 88 256<807 847> 508 178<-241 -219> 629 289<231 455 455 455 555 674 674 684 127 769>
AnchorPoint: "Anchor-3" 483 991 basechar 0
AnchorPoint: "Anchor-2" 870 0 basechar 0
LayerCount: 2
Fore
SplineSet
911 0 m 2xba80
 768 0 686 -121 686 -213 c 0
 686 -268 723 -297 762 -297 c 0
 799 -297 833 -275 862 -250 c 1
 915 -322 l 1
 862 -385 780 -418 700 -418 c 0
 600 -418 508 -357 508 -248 c 0
 508 -191 545 -139 592 -86 c 0
 623 -51 650 -23 662 8 c 1
 643 117 l 1
 553 27 457 -14 338 -14 c 0
 150 -14 45 76 45 242 c 0xdd
 45 420 183 525 449 543 c 2
 629 555 l 1
 629 674 l 2
 629 864 590 928 477 928 c 0
 401 928 344 882 344 823 c 0
 344 790 360 760 389 737 c 1
 375 669 320 625 246 625 c 0
 156 625 88 688 88 774 c 0
 88 919 235 1008 477 1008 c 0
 768 1008 918 897 918 684 c 2
 918 127 l 1
 936 107 987 82 1040 72 c 1
 1032 0 l 1
 911 0 l 2xba80
629 231 m 1xdc80
 629 455 l 1
 526 446 l 2
 376 434 315 381 315 264 c 0
 315 172 360 119 438 119 c 0
 499 119 561 151 629 231 c 1xdc80
EndSplineSet
EndChar

StartChar: aring
Encoding: 229 229 166
Width: 1075
GlyphClass: 2
Flags: HMW
HStem: -14 133<244 469> 0 72<664 1040> 451 98 928 80<439 534> 1085 96<454 513 454 554> 1409 96<454 513>
VStem: 45 270<218 323 218 331> 88 256<807 847> 254 147<1263 1326 1263 1353> 567 147<1263 1326> 629 289<231 455 455 455 555 674 674 684 127 769>
AnchorPoint: "Anchor-3" 483 991 basechar 0
AnchorPoint: "Anchor-2" 870 0 basechar 0
LayerCount: 2
Fore
SplineSet
483 1085 m 0x7ca0
 342 1085 254 1177 254 1294 c 0
 254 1411 342 1505 483 1505 c 0
 624 1505 715 1411 715 1294 c 0x7cc0
 715 1177 624 1085 483 1085 c 0x7ca0
483 1182 m 0x7cc0
 542 1182 567 1231 567 1294 c 0
 567 1357 542 1409 483 1409 c 0
 424 1409 401 1357 401 1294 c 0
 401 1231 424 1182 483 1182 c 0x7cc0
338 -14 m 0xbe20
 150 -14 45 76 45 242 c 0x7e20
 45 420 183 525 449 543 c 2
 629 555 l 1
 629 674 l 2
 629 864 590 928 477 928 c 0
 401 928 344 882 344 823 c 0
 344 790 360 760 389 737 c 1
 375 669 320 625 246 625 c 0
 156 625 88 688 88 774 c 0
 88 919 235 1008 477 1008 c 0
 768 1008 918 897 918 684 c 2
 918 127 l 1
 936 107 987 82 1040 72 c 1
 1032 0 l 1
 664 0 l 1x7d20
 643 117 l 1
 553 27 457 -14 338 -14 c 0xbe20
438 119 m 0
 499 119 561 151 629 231 c 1
 629 455 l 1
 526 446 l 2
 376 434 315 381 315 264 c 0
 315 172 360 119 438 119 c 0
EndSplineSet
EndChar

StartChar: aringacute
Encoding: 507 507 167
Width: 1075
GlyphClass: 2
Flags: HMW
HStem: -14 133<244 469> 0 72<664 1040> 451 98 928 133<478 534> 954 41G 961 41G 1288 96<502 508 508 538>
VStem: 45 270<218 323 218 331> 88 256<807 836> 279 147<1142 1205 1142 1225> 592 147<1142 1205> 629 289<231 455 455 455 555 674 674 684>
AnchorPoint: "Anchor-3" 483 991 basechar 0
AnchorPoint: "Anchor-2" 870 0 basechar 0
LayerCount: 2
Fore
SplineSet
918 127 m 1x6610
 936 107 987 82 1040 72 c 1
 1032 0 l 1
 664 0 l 1x6610
 643 117 l 1
 553 27 457 -14 338 -14 c 0
 150 -14 45 76 45 242 c 0xa710
 45 420 183 525 449 543 c 2
 629 555 l 1
 629 674 l 2
 629 864 590 928 477 928 c 0
 401 928 344 882 344 823 c 0
 344 790 360 760 389 737 c 1x7290
 375 669 320 625 246 625 c 0
 156 625 88 688 88 774 c 0x6690
 88 897 193 978 371 1001 c 1
 312 1038 279 1102 279 1174 c 0
 279 1276 346 1360 457 1380 c 1
 403 1432 l 1
 567 1675 l 2
 602 1726 645 1745 684 1745 c 0
 741 1745 778 1706 778 1649 c 0
 778 1612 760 1567 713 1534 c 2
 502 1384 l 1
 508 1384 l 2
 649 1384 739 1291 739 1174 c 0x6660
 739 1098 701 1030 635 995 c 1x6a10
 821 960 918 854 918 684 c 2
 918 127 l 1x6610
508 1288 m 0x7260
 449 1288 426 1237 426 1174 c 0
 426 1111 449 1061 508 1061 c 0
 567 1061 592 1111 592 1174 c 0
 592 1237 567 1288 508 1288 c 0x7260
629 231 m 1xa710
 629 455 l 1
 526 446 l 2
 376 434 315 381 315 264 c 0
 315 172 360 119 438 119 c 0
 499 119 561 151 629 231 c 1xa710
EndSplineSet
EndChar

StartChar: atilde
Encoding: 227 227 168
Width: 1075
GlyphClass: 2
Flags: HMW
HStem: -14 133<244 469> 0 72<664 1040> 451 98 928 80<439 534> 1130 178<574 637 574 656> 1210 180<332 394>
VStem: 45 270<218 323 218 331> 88 256<807 847> 629 289<231 455 455 455 555 674 674 684 127 769>
AnchorPoint: "Anchor-3" 483 991 basechar 0
AnchorPoint: "Anchor-2" 870 0 basechar 0
LayerCount: 2
Fore
SplineSet
231 1133 m 1x7480
 204 1143 160 1167 133 1198 c 1
 186 1313 266 1391 362 1391 c 0x7480
 446 1391 532 1309 616 1309 c 0x7880
 657 1309 702 1342 737 1389 c 1x7480
 764 1379 809 1354 836 1325 c 1
 783 1210 704 1130 608 1130 c 0x7880
 524 1130 436 1210 352 1210 c 0
 311 1210 268 1182 231 1133 c 1x7480
338 -14 m 0xb680
 150 -14 45 76 45 242 c 0x7680
 45 420 183 525 449 543 c 2
 629 555 l 1
 629 674 l 2
 629 864 590 928 477 928 c 0
 401 928 344 882 344 823 c 0
 344 790 360 760 389 737 c 1
 375 669 320 625 246 625 c 0
 156 625 88 688 88 774 c 0
 88 919 235 1008 477 1008 c 0
 768 1008 918 897 918 684 c 2
 918 127 l 1
 936 107 987 82 1040 72 c 1
 1032 0 l 1
 664 0 l 1x7580
 643 117 l 1
 553 27 457 -14 338 -14 c 0xb680
438 119 m 0
 499 119 561 151 629 231 c 1
 629 455 l 1
 526 446 l 2
 376 434 315 381 315 264 c 0
 315 172 360 119 438 119 c 0
EndSplineSet
EndChar

StartChar: ae
Encoding: 230 230 169
Width: 1626
GlyphClass: 2
Flags: HMW
HStem: -14 133<414 431> -14 141<1076 1221 1076 1230> 451 98 498 98<1282 1282 1282 1516> 907 100<1075 1190> 928 80<454 548>
VStem: 59 270<218 323 218 331> 102 256<807 847> 643 295<358 455 455 455 358 674 358 769> 1282 291<584 700>
AnchorPoint: "Anchor-5" 780 0 basechar 0
AnchorPoint: "Anchor-3" 813 991 basechar 0
LayerCount: 2
Fore
SplineSet
352 -14 m 0x56c0
 164 -14 59 76 59 242 c 0x66c0
 59 420 197 525 463 543 c 2
 643 555 l 1
 643 674 l 2
 643 864 605 928 492 928 c 0
 416 928 358 882 358 823 c 0
 358 790 374 760 403 737 c 1
 389 669 334 625 260 625 c 0
 170 625 102 688 102 774 c 0x65c0
 102 919 250 1008 492 1008 c 0
 644 1008 755 977 829 920 c 1
 907 977 1012 1008 1139 1008 c 0
 1463 1008 1559 846 1573 584 c 1
 1516 498 l 1
 938 498 l 1
 938 465 l 2
 938 252 981 127 1171 127 c 0
 1269 127 1376 160 1454 240 c 1
 1536 160 l 1
 1442 66 1337 -14 1122 -14 c 0
 938 -14 811 49 733 158 c 1
 657 66 510 -14 352 -14 c 0x56c0
938 580 m 1
 1085 584 1282 596 1282 596 c 1
 1282 805 1249 907 1130 907 c 0x5ac0
 991 907 942 770 938 580 c 1
453 119 m 0xa6c0
 514 119 575 151 643 231 c 1
 643 455 l 1
 541 446 l 2
 391 434 330 381 330 264 c 0
 330 172 375 119 453 119 c 0xa6c0
EndSplineSet
EndChar

StartChar: aeacute
Encoding: 509 509 170
Width: 1626
GlyphClass: 2
Flags: HMW
HStem: -14 133<414 431> -14 141<1076 1221 1076 1230> 451 98 498 98<1282 1282 1282 1516> 907 100<1075 1190> 928 80<454 548>
VStem: 59 270<218 323 218 331> 102 256<807 847> 643 295<358 455 455 455 358 674 358 769> 1282 291<584 700>
AnchorPoint: "Anchor-5" 780 0 basechar 0
AnchorPoint: "Anchor-3" 813 991 basechar 0
LayerCount: 2
Fore
SplineSet
758 1077 m 1x56c0
 688 1145 l 1
 852 1389 l 2
 887 1440 930 1458 969 1458 c 0
 1026 1458 1063 1419 1063 1362 c 0
 1063 1325 1044 1280 997 1247 c 2
 758 1077 l 1x56c0
352 -14 m 0
 164 -14 59 76 59 242 c 0x66c0
 59 420 197 525 463 543 c 2
 643 555 l 1
 643 674 l 2
 643 864 605 928 492 928 c 0
 416 928 358 882 358 823 c 0
 358 790 374 760 403 737 c 1
 389 669 334 625 260 625 c 0
 170 625 102 688 102 774 c 0x65c0
 102 919 250 1008 492 1008 c 0
 644 1008 755 977 829 920 c 1
 907 977 1012 1008 1139 1008 c 0
 1463 1008 1559 846 1573 584 c 1
 1516 498 l 1
 938 498 l 1
 938 465 l 2
 938 252 981 127 1171 127 c 0
 1269 127 1376 160 1454 240 c 1
 1536 160 l 1
 1442 66 1337 -14 1122 -14 c 0
 938 -14 811 49 733 158 c 1
 657 66 510 -14 352 -14 c 0
938 580 m 1
 1085 584 1282 596 1282 596 c 1
 1282 805 1249 907 1130 907 c 0x5ac0
 991 907 942 770 938 580 c 1
453 119 m 0xa6c0
 514 119 575 151 643 231 c 1
 643 455 l 1
 541 446 l 2
 391 434 330 381 330 264 c 0
 330 172 375 119 453 119 c 0xa6c0
EndSplineSet
EndChar

StartChar: cacute
Encoding: 263 263 171
Width: 921
GlyphClass: 2
Flags: HMW
HStem: -14 119<503 607> 907 94<462 545>
VStem: 51 301<362 640 362 652> 616 274<805 845>
AnchorPoint: "Anchor-4" 516 0 basechar 0
AnchorPoint: "Anchor-3" 547 991 basechar 0
LayerCount: 2
Fore
SplineSet
492 1077 m 1
 422 1145 l 1
 586 1389 l 2
 621 1440 663 1458 702 1458 c 0
 759 1458 797 1419 797 1362 c 0
 797 1325 778 1280 731 1247 c 2
 492 1077 l 1
537 -14 m 0
 218 -14 51 157 51 483 c 0
 51 821 220 1001 535 1001 c 0
 746 1001 891 916 891 793 c 0
 891 713 821 651 731 651 c 0
 668 651 608 688 592 737 c 1
 608 762 616 790 616 819 c 0
 616 870 573 907 516 907 c 0
 407 907 352 772 352 508 c 0
 352 217 418 104 588 104 c 0
 674 104 760 141 838 213 c 1
 911 139 l 1
 819 43 678 -14 537 -14 c 0
EndSplineSet
EndChar

StartChar: ccaron
Encoding: 269 269 172
Width: 921
GlyphClass: 2
Flags: HMW
HStem: -14 119<503 607> 907 94<462 545>
VStem: 51 301<362 640 362 652> 616 274<805 845>
AnchorPoint: "Anchor-4" 516 0 basechar 0
AnchorPoint: "Anchor-3" 547 991 basechar 0
LayerCount: 2
Fore
SplineSet
551 1087 m 0
 506 1087 471 1104 436 1143 c 2
 242 1362 l 1
 301 1438 l 1
 547 1268 l 1
 793 1438 l 1
 852 1362 l 1
 657 1143 l 2
 628 1110 586 1087 551 1087 c 0
537 -14 m 0
 218 -14 51 157 51 483 c 0
 51 821 220 1001 535 1001 c 0
 746 1001 891 916 891 793 c 0
 891 713 821 651 731 651 c 0
 668 651 608 688 592 737 c 1
 608 762 616 790 616 819 c 0
 616 870 573 907 516 907 c 0
 407 907 352 772 352 508 c 0
 352 217 418 104 588 104 c 0
 674 104 760 141 838 213 c 1
 911 139 l 1
 819 43 678 -14 537 -14 c 0
EndSplineSet
EndChar

StartChar: ccedilla
Encoding: 231 231 173
Width: 921
GlyphClass: 2
Flags: HMW
HStem: -430 86<443 487 443 535> -14 119<561 561> 907 94<462 545>
VStem: 51 301<362 640 362 652> 258 141<-278 -245 -278 -244> 539 152<-284 -219> 616 274<805 845>
AnchorPoint: "Anchor-4" 516 0 basechar 0
AnchorPoint: "Anchor-3" 547 991 basechar 0
LayerCount: 2
Fore
SplineSet
911 139 m 1xf4
 825 49 694 -8 561 -14 c 1
 549 -80 l 1
 635 -105 690 -146 690 -242 c 0
 690 -348 598 -430 471 -430 c 0
 319 -430 258 -340 258 -266 c 0
 258 -221 293 -178 354 -178 c 0
 372 -178 389 -183 418 -197 c 1
 406 -211 399 -233 399 -256 c 0xec
 399 -299 422 -344 465 -344 c 0
 510 -344 539 -313 539 -254 c 0
 539 -184 484 -156 418 -150 c 1
 375 -100 l 1xf4
 451 -10 l 1
 187 21 51 188 51 483 c 0
 51 821 220 1001 535 1001 c 0
 746 1001 891 916 891 793 c 0
 891 713 821 651 731 651 c 0
 668 651 608 688 592 737 c 1
 608 762 616 790 616 819 c 0xf2
 616 870 573 907 516 907 c 0
 407 907 352 772 352 508 c 0
 352 217 418 104 588 104 c 0
 674 104 760 141 838 213 c 1
 911 139 l 1xf4
EndSplineSet
EndChar

StartChar: ccircumflex
Encoding: 265 265 174
Width: 921
GlyphClass: 2
Flags: HMW
HStem: -14 119<503 607> 907 94<462 545>
VStem: 51 301<362 640 362 652> 616 274<805 845>
AnchorPoint: "Anchor-4" 516 0 basechar 0
AnchorPoint: "Anchor-3" 547 991 basechar 0
LayerCount: 2
Fore
SplineSet
301 1087 m 1
 242 1163 l 1
 436 1382 l 2
 471 1421 506 1438 555 1438 c 0
 598 1438 622 1421 657 1382 c 2
 852 1163 l 1
 793 1087 l 1
 547 1257 l 1
 301 1087 l 1
537 -14 m 0
 218 -14 51 157 51 483 c 0
 51 821 220 1001 535 1001 c 0
 746 1001 891 916 891 793 c 0
 891 713 821 651 731 651 c 0
 668 651 608 688 592 737 c 1
 608 762 616 790 616 819 c 0
 616 870 573 907 516 907 c 0
 407 907 352 772 352 508 c 0
 352 217 418 104 588 104 c 0
 674 104 760 141 838 213 c 1
 911 139 l 1
 819 43 678 -14 537 -14 c 0
EndSplineSet
EndChar

StartChar: cdotaccent
Encoding: 267 267 175
Width: 921
GlyphClass: 2
Flags: HMW
HStem: -14 119<503 607> 907 94<462 545> 1130 287<489 599>
VStem: 51 301<362 640 362 652> 381 326<1229 1320> 616 274<805 845>
AnchorPoint: "Anchor-4" 516 0 basechar 0
AnchorPoint: "Anchor-3" 547 991 basechar 0
LayerCount: 2
Fore
SplineSet
545 1130 m 0xf8
 434 1130 381 1184 381 1274 c 0
 381 1366 434 1417 545 1417 c 0
 654 1417 707 1366 707 1274 c 0
 707 1184 654 1130 545 1130 c 0xf8
537 -14 m 0xd4
 218 -14 51 157 51 483 c 0
 51 821 220 1001 535 1001 c 0
 746 1001 891 916 891 793 c 0
 891 713 821 651 731 651 c 0
 668 651 608 688 592 737 c 1
 608 762 616 790 616 819 c 0
 616 870 573 907 516 907 c 0
 407 907 352 772 352 508 c 0
 352 217 418 104 588 104 c 0
 674 104 760 141 838 213 c 1
 911 139 l 1
 819 43 678 -14 537 -14 c 0xd4
EndSplineSet
EndChar

StartChar: dcaron
Encoding: 271 271 176
Width: 1310
GlyphClass: 1
Flags: HMW
HStem: -14 123<462 495> 0 72<741 1118> 897 111<497 548 360 600>
VStem: 51 299<346 607 346 645> 707 289<479 858 858 858 958 1143 1143 1194> 1153 184<1249 1271>
LayerCount: 2
Fore
SplineSet
428 -14 m 0xb8
 186 -14 51 150 51 469 c 0
 51 821 217 1008 504 1008 c 0
 592 1008 648 989 707 958 c 1
 707 1143 l 2
 707 1245 669 1274 563 1278 c 1
 569 1358 l 1
 659 1374 879 1404 961 1427 c 1
 995 1407 l 1
 995 127 l 1
 1018 107 1067 82 1118 72 c 1
 1110 0 l 1
 741 0 l 1x78
 715 133 l 1
 656 35 561 -14 428 -14 c 0xb8
1208 989 m 1xbc
 1102 1028 l 1
 1137 1126 1153 1194 1153 1243 c 0
 1153 1298 1133 1329 1100 1356 c 1
 1120 1393 1151 1425 1210 1425 c 0
 1280 1425 1337 1370 1337 1294 c 0
 1337 1204 1267 1085 1208 989 c 1xbc
520 109 m 0
 641 109 707 233 707 479 c 2
 707 858 l 1
 678 878 626 897 573 897 c 0
 419 897 350 745 350 469 c 0
 350 223 403 109 520 109 c 0
EndSplineSet
EndChar

StartChar: dcroat
Encoding: 273 273 177
Width: 1222
GlyphClass: 1
Flags: HMW
HStem: -14 123<462 495> 0 72<741 1118> 897 111<497 548 360 600> 1063 139<428 700 428 707 428 700 995 1065>
VStem: 51 299<346 607 346 645> 707 289<479 858 858 858 958 1063>
LayerCount: 2
Fore
SplineSet
995 127 m 1x7c
 1018 107 1067 82 1118 72 c 1
 1110 0 l 1
 741 0 l 1x6c
 715 133 l 1
 656 35 561 -14 428 -14 c 0
 186 -14 51 150 51 469 c 0
 51 821 217 1008 504 1008 c 0
 592 1008 648 989 707 958 c 1xac
 707 1063 l 1
 428 1063 l 1
 428 1202 l 1
 700 1202 l 1
 686 1257 645 1274 563 1278 c 1
 569 1358 l 1
 659 1374 879 1404 961 1427 c 1
 995 1407 l 1
 995 1202 l 1
 1065 1202 l 1
 1065 1063 l 1
 995 1063 l 1
 995 127 l 1x7c
707 479 m 2
 707 858 l 1
 678 878 626 897 573 897 c 0
 419 897 350 745 350 469 c 0
 350 223 403 109 520 109 c 0xac
 641 109 707 233 707 479 c 2
EndSplineSet
EndChar

StartChar: eacute
Encoding: 233 233 178
Width: 1050
GlyphClass: 2
Flags: HMW
HStem: -14 141<482 627 482 636> 498 90 907 100<467 596>
VStem: 51 293<358 465 465 498 358 580 358 646> 688 291<584 700>
AnchorPoint: "Anchor-3" 524 991 basechar 0
AnchorPoint: "Anchor-2" 827 0 basechar 0
LayerCount: 2
Fore
SplineSet
469 1077 m 1
 399 1145 l 1
 563 1389 l 2
 598 1440 641 1458 680 1458 c 0
 737 1458 774 1419 774 1362 c 0
 774 1325 756 1280 709 1247 c 2
 469 1077 l 1
528 -14 m 0
 200 -14 51 186 51 487 c 0
 51 804 219 1008 545 1008 c 0
 869 1008 965 846 979 584 c 1
 922 498 l 1
 344 498 l 1
 344 465 l 2
 344 252 388 127 578 127 c 0
 676 127 782 160 860 240 c 1
 942 160 l 1
 848 66 743 -14 528 -14 c 0
344 580 m 1
 688 596 l 1
 688 805 656 907 537 907 c 0
 398 907 348 770 344 580 c 1
EndSplineSet
EndChar

StartChar: ebreve
Encoding: 277 277 179
Width: 1050
GlyphClass: 2
Flags: HMW
HStem: -14 141<482 627 482 636> 498 90 907 100<467 596> 1100 160<476 572 476 606> 1339 41G
VStem: 51 293<358 465 465 498 358 580 358 646> 231 123 688 291<584 700> 694 121
AnchorPoint: "Anchor-3" 524 991 basechar 0
AnchorPoint: "Anchor-2" 827 0 basechar 0
LayerCount: 2
Fore
SplineSet
524 1100 m 0xfa80
 360 1100 245 1208 231 1378 c 1
 268 1396 293 1401 354 1401 c 1
 368 1311 428 1260 524 1260 c 0
 620 1260 680 1311 694 1401 c 1
 751 1401 778 1394 815 1380 c 1
 801 1210 688 1100 524 1100 c 0xfa80
528 -14 m 0xfd
 200 -14 51 186 51 487 c 0
 51 804 219 1008 545 1008 c 0
 869 1008 965 846 979 584 c 1
 922 498 l 1
 344 498 l 1
 344 465 l 2
 344 252 388 127 578 127 c 0
 676 127 782 160 860 240 c 1
 942 160 l 1
 848 66 743 -14 528 -14 c 0xfd
344 580 m 1
 688 596 l 1
 688 805 656 907 537 907 c 0
 398 907 348 770 344 580 c 1
EndSplineSet
EndChar

StartChar: ecaron
Encoding: 283 283 180
Width: 1050
GlyphClass: 2
Flags: HMW
HStem: -14 141<482 627 482 636> 498 90 907 100<467 596>
VStem: 51 293<358 465 465 498 358 580 358 646> 688 291<584 700>
AnchorPoint: "Anchor-3" 524 991 basechar 0
AnchorPoint: "Anchor-2" 827 0 basechar 0
LayerCount: 2
Fore
SplineSet
528 1087 m 0
 483 1087 449 1104 414 1143 c 2
 219 1362 l 1
 279 1438 l 1
 524 1268 l 1
 770 1438 l 1
 829 1362 l 1
 635 1143 l 2
 606 1110 563 1087 528 1087 c 0
528 -14 m 0
 200 -14 51 186 51 487 c 0
 51 804 219 1008 545 1008 c 0
 869 1008 965 846 979 584 c 1
 922 498 l 1
 344 498 l 1
 344 465 l 2
 344 252 388 127 578 127 c 0
 676 127 782 160 860 240 c 1
 942 160 l 1
 848 66 743 -14 528 -14 c 0
344 580 m 1
 688 596 l 1
 688 805 656 907 537 907 c 0
 398 907 348 770 344 580 c 1
EndSplineSet
EndChar

StartChar: ecircumflex
Encoding: 234 234 181
Width: 1050
GlyphClass: 2
Flags: HMW
HStem: -14 141<482 627 482 636> 498 90 907 100<467 596>
VStem: 51 293<358 465 465 498 358 580 358 646> 688 291<584 700>
AnchorPoint: "Anchor-3" 524 991 basechar 0
AnchorPoint: "Anchor-2" 827 0 basechar 0
LayerCount: 2
Fore
SplineSet
279 1087 m 1
 219 1163 l 1
 414 1382 l 2
 449 1421 483 1438 532 1438 c 0
 575 1438 600 1421 635 1382 c 2
 829 1163 l 1
 770 1087 l 1
 524 1257 l 1
 279 1087 l 1
528 -14 m 0
 200 -14 51 186 51 487 c 0
 51 804 219 1008 545 1008 c 0
 869 1008 965 846 979 584 c 1
 922 498 l 1
 344 498 l 1
 344 465 l 2
 344 252 388 127 578 127 c 0
 676 127 782 160 860 240 c 1
 942 160 l 1
 848 66 743 -14 528 -14 c 0
344 580 m 1
 688 596 l 1
 688 805 656 907 537 907 c 0
 398 907 348 770 344 580 c 1
EndSplineSet
EndChar

StartChar: edieresis
Encoding: 235 235 182
Width: 1050
GlyphClass: 2
Flags: HMW
HStem: -14 141<482 627 482 636> 498 90 907 100<467 596> 1124 229<309 400 643 734>
VStem: 51 293<358 465 465 498 358 580 358 646> 223 268<1203 1277> 557 268<1203 1277> 688 291<584 700>
AnchorPoint: "Anchor-3" 524 991 basechar 0
AnchorPoint: "Anchor-2" 827 0 basechar 0
LayerCount: 2
Fore
SplineSet
356 1124 m 0xf6
 262 1124 223 1165 223 1241 c 0
 223 1313 262 1354 356 1354 c 0
 444 1354 492 1313 492 1241 c 0
 492 1165 444 1124 356 1124 c 0xf6
690 1124 m 0
 596 1124 557 1165 557 1241 c 0
 557 1313 596 1354 690 1354 c 0
 778 1354 825 1313 825 1241 c 0
 825 1165 778 1124 690 1124 c 0
528 -14 m 0xe9
 200 -14 51 186 51 487 c 0
 51 804 219 1008 545 1008 c 0
 869 1008 965 846 979 584 c 1
 922 498 l 1
 344 498 l 1
 344 465 l 2
 344 252 388 127 578 127 c 0
 676 127 782 160 860 240 c 1
 942 160 l 1
 848 66 743 -14 528 -14 c 0xe9
344 580 m 1
 688 596 l 1
 688 805 656 907 537 907 c 0
 398 907 348 770 344 580 c 1
EndSplineSet
EndChar

StartChar: edotaccent
Encoding: 279 279 183
Width: 1050
GlyphClass: 2
Flags: HMW
HStem: -14 141<482 627 482 636> 498 90 907 100<467 596> 1130 287<467 577>
VStem: 51 293<358 465 465 498 358 580 358 646> 358 326<1229 1320> 688 291<584 700>
AnchorPoint: "Anchor-3" 524 991 basechar 0
AnchorPoint: "Anchor-2" 827 0 basechar 0
LayerCount: 2
Fore
SplineSet
522 1130 m 0
 411 1130 358 1184 358 1274 c 0
 358 1366 411 1417 522 1417 c 0
 631 1417 684 1366 684 1274 c 0
 684 1184 631 1130 522 1130 c 0
528 -14 m 0xea
 200 -14 51 186 51 487 c 0
 51 804 219 1008 545 1008 c 0
 869 1008 965 846 979 584 c 1
 922 498 l 1
 344 498 l 1
 344 465 l 2
 344 252 388 127 578 127 c 0
 676 127 782 160 860 240 c 1
 942 160 l 1
 848 66 743 -14 528 -14 c 0xea
344 580 m 1
 688 596 l 1
 688 805 656 907 537 907 c 0
 398 907 348 770 344 580 c 1
EndSplineSet
EndChar

StartChar: egrave
Encoding: 232 232 184
Width: 1050
GlyphClass: 2
Flags: HMW
HStem: -14 141<482 627 482 636> 498 90 907 100<467 596>
VStem: 51 293<358 465 465 498 358 580 358 646> 688 291<584 700>
AnchorPoint: "Anchor-3" 524 991 basechar 0
AnchorPoint: "Anchor-2" 827 0 basechar 0
LayerCount: 2
Fore
SplineSet
586 1073 m 1
 346 1243 l 2
 299 1276 279 1311 279 1352 c 0
 279 1415 318 1454 375 1454 c 0
 416 1454 457 1435 492 1384 c 2
 655 1141 l 1
 586 1073 l 1
528 -14 m 0
 200 -14 51 186 51 487 c 0
 51 804 219 1008 545 1008 c 0
 869 1008 965 846 979 584 c 1
 922 498 l 1
 344 498 l 1
 344 465 l 2
 344 252 388 127 578 127 c 0
 676 127 782 160 860 240 c 1
 942 160 l 1
 848 66 743 -14 528 -14 c 0
344 580 m 1
 688 596 l 1
 688 805 656 907 537 907 c 0
 398 907 348 770 344 580 c 1
EndSplineSet
EndChar

StartChar: emacron
Encoding: 275 275 185
Width: 1050
GlyphClass: 2
Flags: HMW
HStem: -14 141<482 627 482 636> 498 90 907 100<467 596> 1155 139<207 844 207 844>
VStem: 51 293<358 465 465 498 358 580 358 646> 688 291<584 700>
AnchorPoint: "Anchor-3" 524 991 basechar 0
AnchorPoint: "Anchor-2" 827 0 basechar 0
LayerCount: 2
Fore
SplineSet
207 1155 m 1
 207 1294 l 1
 844 1294 l 1
 844 1155 l 1
 207 1155 l 1
528 -14 m 0
 200 -14 51 186 51 487 c 0
 51 804 219 1008 545 1008 c 0
 869 1008 965 846 979 584 c 1
 922 498 l 1
 344 498 l 1
 344 465 l 2
 344 252 388 127 578 127 c 0
 676 127 782 160 860 240 c 1
 942 160 l 1
 848 66 743 -14 528 -14 c 0
344 580 m 1
 688 596 l 1
 688 805 656 907 537 907 c 0
 398 907 348 770 344 580 c 1
EndSplineSet
EndChar

StartChar: eogonek
Encoding: 281 281 186
Width: 1050
GlyphClass: 2
Flags: HMW
HStem: -418 121<607 737> -14 141<482 543> 498 90 907 100<467 596>
VStem: 51 293<358 465 465 498 358 580 358 646> 465 178<-241 -219> 688 291<584 700>
AnchorPoint: "Anchor-3" 524 991 basechar 0
AnchorPoint: "Anchor-2" 827 0 basechar 0
LayerCount: 2
Fore
SplineSet
844 76 m 0
 727 -20 643 -123 643 -213 c 0
 643 -268 680 -297 719 -297 c 0
 756 -297 790 -275 819 -250 c 1
 872 -322 l 1
 819 -385 737 -418 657 -418 c 0
 557 -418 465 -357 465 -248 c 0
 465 -191 502 -139 549 -86 c 0
 574 -59 594 -35 610 -10 c 1xfe
 583 -12 557 -14 528 -14 c 0
 200 -14 51 186 51 487 c 0
 51 804 219 1008 545 1008 c 0
 869 1008 965 846 979 584 c 1
 922 498 l 1x7a
 344 498 l 1
 344 465 l 2
 344 252 388 127 578 127 c 0
 676 127 782 160 860 240 c 1
 942 160 l 1
 911 129 881 101 844 76 c 0
537 907 m 0x7a
 398 907 348 770 344 580 c 1
 688 596 l 1
 688 805 656 907 537 907 c 0x7a
EndSplineSet
EndChar

StartChar: eth
Encoding: 240 240 187
Width: 1171
GlyphClass: 1
Flags: HMW
HStem: -14 115<493 634 493 717> 860 115<519 610 421 621> 1348 41G<866 866>
VStem: 72 301<354 591 354 628> 756 301<489 547 317 569 317 620>
LayerCount: 2
Fore
SplineSet
563 -14 m 0
 256 -14 72 154 72 461 c 0
 72 795 250 975 592 975 c 0
 629 975 663 971 696 963 c 1
 669 1033 633 1090 584 1139 c 1
 305 1034 l 1
 260 1145 l 1
 469 1229 l 1
 410 1268 340 1300 258 1333 c 1
 307 1434 l 1
 432 1403 547 1357 647 1300 c 1
 866 1389 l 1
 918 1264 l 1
 774 1210 l 1
 952 1058 1057 842 1057 547 c 2
 1057 481 l 2
 1057 153 870 -14 563 -14 c 0
563 100 m 0
 704 100 756 229 756 489 c 2
 756 569 l 2
 756 669 747 758 733 834 c 1
 700 848 656 860 586 860 c 0
 453 860 373 715 373 467 c 0
 373 242 422 100 563 100 c 0
EndSplineSet
EndChar

StartChar: uni1EBD
Encoding: 7869 7869 188
Width: 1050
GlyphClass: 2
Flags: HMW
HStem: -14 141<482 627 482 636> 498 90 907 100<467 596> 1130 178<615 678 615 697> 1210 180<373 435>
VStem: 51 293<358 465 465 498 358 580 358 646> 688 291<584 700>
AnchorPoint: "Anchor-3" 524 991 basechar 0
AnchorPoint: "Anchor-2" 827 0 basechar 0
LayerCount: 2
Fore
SplineSet
272 1133 m 1xee
 245 1143 201 1167 174 1198 c 1
 227 1313 307 1391 403 1391 c 0xee
 487 1391 573 1309 657 1309 c 0xf6
 698 1309 743 1342 778 1389 c 1xee
 805 1379 850 1354 877 1325 c 1
 824 1210 745 1130 649 1130 c 0xf6
 565 1130 477 1210 393 1210 c 0
 352 1210 309 1182 272 1133 c 1xee
528 -14 m 0
 200 -14 51 186 51 487 c 0
 51 804 219 1008 545 1008 c 0
 869 1008 965 846 979 584 c 1
 922 498 l 1
 344 498 l 1
 344 465 l 2
 344 252 388 127 578 127 c 0
 676 127 782 160 860 240 c 1
 942 160 l 1
 848 66 743 -14 528 -14 c 0
344 580 m 1
 688 596 l 1
 688 805 656 907 537 907 c 0
 398 907 348 770 344 580 c 1
EndSplineSet
EndChar

StartChar: gbreve
Encoding: 287 287 189
Width: 1040
GlyphClass: 2
Flags: HMW
HStem: -449 115<459 625 459 696> 0 172<522 559 373 608> 301 100<473 506 473 473> 905 102<458 559> 1100 160<456 552 456 586> 1339 41G
VStem: 37 266<-220 -137> 80 289<564 737 548 760> 211 123 657 272<553 692 540 736> 674 121 758 221<1073 1086 1021 1096> 786 238<-219 -106> 807 172<992 1086>
AnchorPoint: "Anchor-3" 504 991 basechar 0
LayerCount: 2
Fore
SplineSet
504 1100 m 0xfca0
 340 1100 225 1208 211 1378 c 1
 248 1396 273 1401 334 1401 c 1
 348 1311 408 1260 504 1260 c 0
 600 1260 660 1311 674 1401 c 1
 731 1401 758 1394 795 1380 c 1
 781 1210 668 1100 504 1100 c 0xfca0
541 -449 m 0xfe08
 219 -449 37 -356 37 -190 c 0
 37 -84 86 -2 197 72 c 1
 177 105 166 146 166 195 c 1xfe08
 344 319 l 1
 178 364 80 483 80 645 c 0
 80 874 236 1008 506 1008 c 0
 617 1008 708 983 778 940 c 1
 796 956 807 979 807 1006 c 0xfd04
 807 1035 789 1057 758 1073 c 1xfd10
 758 1118 805 1161 864 1161 c 0
 934 1161 979 1118 979 1055 c 0xfd04
 979 987 926 912 854 877 c 1
 903 818 930 739 930 645 c 0xfd40
 930 434 764 301 506 301 c 2
 473 301 l 1
 403 213 l 1
 407 182 440 172 522 172 c 2
 608 172 l 2
 880 172 1024 64 1024 -137 c 0
 1024 -338 852 -449 541 -449 c 0xfe08
506 401 m 0xfd40
 621 401 657 461 657 645 c 0
 657 827 612 905 506 905 c 0
 410 905 369 829 369 645 c 0
 369 450 395 401 506 401 c 0xfd40
541 -334 m 0xfe08
 709 -334 786 -279 786 -160 c 0
 786 -54 711 0 559 0 c 2
 373 0 l 1
 324 -49 303 -97 303 -160 c 0
 303 -281 377 -334 541 -334 c 0xfe08
EndSplineSet
EndChar

StartChar: gcircumflex
Encoding: 285 285 190
Width: 1040
GlyphClass: 2
Flags: HMW
HStem: -449 115<459 625 459 696> 0 172<522 559 373 608> 301 100<473 506 473 473> 905 102<458 559>
VStem: 37 266<-220 -137> 80 289<564 737 548 760> 657 272<553 692 540 736> 758 221<1073 1086 1021 1096> 786 238<-219 -106> 807 172<992 1086>
AnchorPoint: "Anchor-3" 504 991 basechar 0
LayerCount: 2
Fore
SplineSet
264 1098 m 1xf480
 205 1174 l 1
 379 1393 l 2
 412 1434 449 1448 498 1448 c 0
 541 1448 567 1434 600 1393 c 2
 774 1174 l 1
 715 1098 l 1
 489 1268 l 1
 264 1098 l 1xf480
541 -449 m 0xf880
 219 -449 37 -356 37 -190 c 0
 37 -84 86 -2 197 72 c 1
 177 105 166 146 166 195 c 1xf880
 344 319 l 1
 178 364 80 483 80 645 c 0
 80 874 236 1008 506 1008 c 0
 617 1008 708 983 778 940 c 1
 796 956 807 979 807 1006 c 0xf440
 807 1035 789 1057 758 1073 c 1xf5
 758 1118 805 1161 864 1161 c 0
 934 1161 979 1118 979 1055 c 0xf440
 979 987 926 912 854 877 c 1
 903 818 930 739 930 645 c 0xf6
 930 434 764 301 506 301 c 2
 473 301 l 1
 403 213 l 1
 407 182 440 172 522 172 c 2
 608 172 l 2
 880 172 1024 64 1024 -137 c 0
 1024 -338 852 -449 541 -449 c 0xf880
506 401 m 0xf6
 621 401 657 461 657 645 c 0
 657 827 612 905 506 905 c 0
 410 905 369 829 369 645 c 0
 369 450 395 401 506 401 c 0xf6
541 -334 m 0xf880
 709 -334 786 -279 786 -160 c 0
 786 -54 711 0 559 0 c 2
 373 0 l 1
 324 -49 303 -97 303 -160 c 0
 303 -281 377 -334 541 -334 c 0xf880
EndSplineSet
EndChar

StartChar: uni0123
Encoding: 291 291 191
Width: 1040
GlyphClass: 2
Flags: HMW
HStem: -449 115<459 625 459 696> 0 172<522 559 373 608> 301 100<473 506 473 473> 905 102<458 559>
VStem: 37 266<-220 -137> 80 289<564 737 548 760> 424 184<1223 1225> 657 272<553 692 540 736> 758 221<1073 1086 1021 1096> 786 238<-219 -106> 807 172<992 1086>
AnchorPoint: "Anchor-3" 504 991 basechar 0
LayerCount: 2
Fore
SplineSet
549 1470 m 1xfa40
 647 1430 l 1
 622 1362 608 1296 608 1247 c 0
 608 1198 622 1166 657 1137 c 1
 637 1106 588 1083 545 1083 c 0
 475 1083 424 1127 424 1188 c 0
 424 1262 473 1370 549 1470 c 1xfa40
541 -449 m 0
 219 -449 37 -356 37 -190 c 0
 37 -84 86 -2 197 72 c 1
 177 105 166 146 166 195 c 1xf840
 344 319 l 1
 178 364 80 483 80 645 c 0
 80 874 236 1008 506 1008 c 0
 617 1008 708 983 778 940 c 1
 796 956 807 979 807 1006 c 0xf420
 807 1035 789 1057 758 1073 c 1xf480
 758 1118 805 1161 864 1161 c 0
 934 1161 979 1118 979 1055 c 0xf420
 979 987 926 912 854 877 c 1
 903 818 930 739 930 645 c 0xf5
 930 434 764 301 506 301 c 2
 473 301 l 1
 403 213 l 1
 407 182 440 172 522 172 c 2
 608 172 l 2
 880 172 1024 64 1024 -137 c 0
 1024 -338 852 -449 541 -449 c 0
506 401 m 0xf5
 621 401 657 461 657 645 c 0
 657 827 612 905 506 905 c 0
 410 905 369 829 369 645 c 0
 369 450 395 401 506 401 c 0xf5
541 -334 m 0xf840
 709 -334 786 -279 786 -160 c 0
 786 -54 711 0 559 0 c 2
 373 0 l 1
 324 -49 303 -97 303 -160 c 0
 303 -281 377 -334 541 -334 c 0xf840
EndSplineSet
EndChar

StartChar: gdotaccent
Encoding: 289 289 192
Width: 1040
GlyphClass: 2
Flags: HMW
HStem: -449 115<459 625 459 696> 0 172<522 559 373 608> 301 100<473 506 473 473> 905 102<458 559> 1130 287<446 556>
VStem: 37 266<-220 -137> 80 289<564 737 548 760> 338 326<1229 1320> 657 272<553 692 540 736> 758 221<1073 1086 1021 1096> 786 238<-219 -106> 807 172<992 1086>
AnchorPoint: "Anchor-3" 504 991 basechar 0
LayerCount: 2
Fore
SplineSet
502 1130 m 0xf920
 391 1130 338 1184 338 1274 c 0
 338 1366 391 1417 502 1417 c 0
 611 1417 664 1366 664 1274 c 0
 664 1184 611 1130 502 1130 c 0xf920
541 -449 m 0xf420
 219 -449 37 -356 37 -190 c 0
 37 -84 86 -2 197 72 c 1
 177 105 166 146 166 195 c 1xf420
 344 319 l 1
 178 364 80 483 80 645 c 0
 80 874 236 1008 506 1008 c 0
 617 1008 708 983 778 940 c 1
 796 956 807 979 807 1006 c 0xf210
 807 1035 789 1057 758 1073 c 1xf240
 758 1118 805 1161 864 1161 c 0
 934 1161 979 1118 979 1055 c 0xf210
 979 987 926 912 854 877 c 1
 903 818 930 739 930 645 c 0xf280
 930 434 764 301 506 301 c 2
 473 301 l 1
 403 213 l 1
 407 182 440 172 522 172 c 2
 608 172 l 2
 880 172 1024 64 1024 -137 c 0
 1024 -338 852 -449 541 -449 c 0xf420
506 401 m 0xf280
 621 401 657 461 657 645 c 0
 657 827 612 905 506 905 c 0
 410 905 369 829 369 645 c 0
 369 450 395 401 506 401 c 0xf280
541 -334 m 0xf420
 709 -334 786 -279 786 -160 c 0
 786 -54 711 0 559 0 c 2
 373 0 l 1
 324 -49 303 -97 303 -160 c 0
 303 -281 377 -334 541 -334 c 0xf420
EndSplineSet
EndChar

StartChar: hbar
Encoding: 295 295 193
Width: 1222
GlyphClass: 2
Flags: HMW
HStem: 0 80<674 674 674 1188 668 674> 2 84<70 70 70 582 61 70> 2 135<176 176 61 176> 870 137<612 850> 1063 139<-16 172 -16 176 -16 172 467 621>
VStem: 176 291<137 760 137 879 879 1063> 774 291<135 674 674 692>
AnchorPoint: "Anchor-3" 737 1366 basechar 0
LayerCount: 2
Fore
SplineSet
1065 135 m 1x96
 1088 117 1135 92 1194 80 c 1
 1188 0 l 1
 668 0 l 1
 674 80 l 1
 713 88 747 106 774 135 c 1x96
 774 674 l 2
 774 807 733 870 647 870 c 0
 577 870 508 828 467 760 c 1
 467 137 l 1
 496 112 539 94 590 82 c 1x36
 582 2 l 1
 61 2 l 1
 70 86 l 1x56
 119 96 143 106 176 137 c 1
 176 1063 l 1
 -16 1063 l 1
 -16 1202 l 1
 172 1202 l 1
 160 1259 123 1276 49 1280 c 1
 55 1360 l 1
 141 1376 352 1407 430 1430 c 1
 467 1409 l 1
 467 1202 l 1
 621 1202 l 1
 621 1063 l 1
 467 1063 l 1x3e
 467 879 l 1
 537 957 639 1008 758 1008 c 0
 942 1008 1065 891 1065 692 c 2
 1065 135 l 1x96
EndSplineSet
EndChar

StartChar: hcircumflex
Encoding: 293 293 194
Width: 1228
GlyphClass: 2
Flags: HMW
HStem: 0 80<674 674 674 1188 668 674> 2 84<61 70 70 70 70 582> 2 135<61 176 176 176> 870 137<612 850>
VStem: 176 291<137 760 879 1145 1145 1196> 774 291<135 674 674 692 135 740>
AnchorPoint: "Anchor-3" 737 1366 basechar 0
LayerCount: 2
Fore
SplineSet
492 1462 m 1x9c
 432 1538 l 1
 627 1757 l 2
 662 1796 696 1812 745 1812 c 0
 788 1812 813 1796 848 1757 c 2
 1042 1538 l 1
 983 1462 l 1
 737 1632 l 1
 492 1462 l 1x9c
61 2 m 1x5c
 70 86 l 1x5c
 119 96 143 106 176 137 c 1x3c
 176 1145 l 2
 176 1247 143 1276 49 1280 c 1
 55 1360 l 1
 141 1376 352 1407 430 1430 c 1
 467 1409 l 1
 467 879 l 1
 537 957 639 1008 758 1008 c 0
 942 1008 1065 891 1065 692 c 2
 1065 135 l 1
 1088 117 1135 92 1194 80 c 1
 1188 0 l 1
 668 0 l 1
 674 80 l 1
 713 88 747 106 774 135 c 1x9c
 774 674 l 2
 774 807 733 870 647 870 c 0
 577 870 508 828 467 760 c 1
 467 137 l 1
 496 112 539 94 590 82 c 1x3c
 582 2 l 1
 61 2 l 1x5c
EndSplineSet
EndChar

StartChar: iacute
Encoding: 237 237 195
Width: 630
GlyphClass: 2
Flags: HMW
HStem: 0 84<68 76 76 76 76 594> 0 135<68 182 182 182> 948 41G<471 471> 967 41G<436 436>
VStem: 182 289<135 725 725 775>
AnchorPoint: "Anchor-3" 305 991 basechar 0
LayerCount: 2
Fore
SplineSet
250 1077 m 1x98
 180 1145 l 1
 344 1389 l 2
 379 1440 422 1458 461 1458 c 0
 518 1458 555 1419 555 1362 c 0
 555 1325 536 1280 489 1247 c 2
 250 1077 l 1x98
68 0 m 1
 76 84 l 1x98
 125 94 149 104 182 135 c 1
 182 725 l 2
 182 825 149 854 55 858 c 1
 61 938 l 1
 147 954 358 985 436 1008 c 1x58
 471 989 l 1
 471 135 l 1
 496 117 543 92 602 80 c 1x68
 594 0 l 1
 68 0 l 1
EndSplineSet
EndChar

StartChar: ibreve
Encoding: 301 301 196
Width: 630
GlyphClass: 2
Flags: HMW
HStem: 0 84<68 76 76 76 76 594> 0 135<68 182 182 182> 948 41G<471 471> 967 41G<436 436> 1100 160<257 353 257 387> 1339 41G
VStem: 12 123 182 289<135 725 725 775> 475 121
AnchorPoint: "Anchor-3" 305 991 basechar 0
LayerCount: 2
Fore
SplineSet
305 1100 m 0x9e80
 141 1100 26 1208 12 1378 c 1
 49 1396 74 1401 135 1401 c 1
 149 1311 209 1260 305 1260 c 0
 401 1260 461 1311 475 1401 c 1
 532 1401 559 1394 596 1380 c 1
 582 1210 469 1100 305 1100 c 0x9e80
68 0 m 1
 76 84 l 1x9d
 125 94 149 104 182 135 c 1
 182 725 l 2
 182 825 149 854 55 858 c 1
 61 938 l 1
 147 954 358 985 436 1008 c 1x5d
 471 989 l 1
 471 135 l 1
 496 117 543 92 602 80 c 1x6d
 594 0 l 1x9d
 68 0 l 1
EndSplineSet
EndChar

StartChar: icircumflex
Encoding: 238 238 197
Width: 630
GlyphClass: 2
Flags: HMW
HStem: 0 84<68 76 76 76 76 594> 0 135<68 182 182 182> 948 41G<471 471> 967 41G<436 436>
VStem: 182 289<135 725 725 775>
AnchorPoint: "Anchor-3" 305 991 basechar 0
LayerCount: 2
Fore
SplineSet
59 1087 m 1x98
 0 1163 l 1
 195 1382 l 2
 230 1421 264 1438 313 1438 c 0
 356 1438 381 1421 416 1382 c 2
 610 1163 l 1
 551 1087 l 1
 305 1257 l 1
 59 1087 l 1x98
68 0 m 1
 76 84 l 1x98
 125 94 149 104 182 135 c 1
 182 725 l 2
 182 825 149 854 55 858 c 1
 61 938 l 1
 147 954 358 985 436 1008 c 1x58
 471 989 l 1
 471 135 l 1
 496 117 543 92 602 80 c 1x68
 594 0 l 1
 68 0 l 1
EndSplineSet
EndChar

StartChar: idieresis
Encoding: 239 239 198
Width: 636
GlyphClass: 2
Flags: HMW
HStem: 0 84<68 76 76 76 76 594> 0 135<68 182 182 182> 948 41G<471 471> 967 41G<436 436> 1124 229<97 187 430 521>
VStem: 12 266<1203 1277> 182 289<135 725 725 775> 344 127 344 268<1203 1277>
AnchorPoint: "Anchor-3" 305 991 basechar 0
LayerCount: 2
Fore
SplineSet
143 1124 m 0x9d
 51 1124 12 1165 12 1241 c 0
 12 1313 51 1354 143 1354 c 0
 231 1354 279 1313 279 1241 c 0
 279 1165 231 1124 143 1124 c 0x9d
477 1124 m 0
 383 1124 344 1165 344 1241 c 0x99
 344 1313 383 1354 477 1354 c 0
 565 1354 612 1313 612 1241 c 0x9880
 612 1165 565 1124 477 1124 c 0
68 0 m 1x9c
 76 84 l 1x9a
 125 94 149 104 182 135 c 1
 182 725 l 2
 182 825 149 854 55 858 c 1
 61 938 l 1
 147 954 358 985 436 1008 c 1x5a
 471 989 l 1
 471 135 l 1
 496 117 543 92 602 80 c 1x6a
 594 0 l 1x9a
 68 0 l 1x9c
EndSplineSet
EndChar

StartChar: i.loclTRK
Encoding: 65538 -1 199
Width: 630
GlyphClass: 2
Flags: HMW
HStem: 0 84<68 76 76 76 76 594> 0 135<68 182 182 182> 948 41G<471 471> 967 41G<436 436> 1130 287<248 357>
VStem: 139 326<1229 1320> 182 289<135 725 725 775>
AnchorPoint: "Anchor-3" 305 991 basechar 0
LayerCount: 2
Fore
SplineSet
303 1130 m 0x9c
 192 1130 139 1184 139 1274 c 0
 139 1366 192 1417 303 1417 c 0
 412 1417 465 1366 465 1274 c 0
 465 1184 412 1130 303 1130 c 0x9c
68 0 m 1
 76 84 l 1x9a
 125 94 149 104 182 135 c 1
 182 725 l 2
 182 825 149 854 55 858 c 1
 61 938 l 1
 147 954 358 985 436 1008 c 1x5a
 471 989 l 1
 471 135 l 1
 496 117 543 92 602 80 c 1x6a
 594 0 l 1x9a
 68 0 l 1
EndSplineSet
EndChar

StartChar: dotlessi
Encoding: 305 305 200
Width: 630
GlyphClass: 2
Flags: HMW
HStem: 0 84<68 76 76 76 76 594> 0 135<68 182 182 182> 948 41G<471 471> 967 41G<436 436>
VStem: 182 289<135 725 725 775>
AnchorPoint: "Anchor-3" 305 991 basechar 0
LayerCount: 2
Fore
SplineSet
68 0 m 1x98
 76 84 l 1x98
 125 94 149 104 182 135 c 1
 182 725 l 2
 182 825 149 854 55 858 c 1
 61 938 l 1
 147 954 358 985 436 1008 c 1x58
 471 989 l 1
 471 135 l 1
 496 117 543 92 602 80 c 1x68
 594 0 l 1
 68 0 l 1x98
EndSplineSet
EndChar

StartChar: igrave
Encoding: 236 236 201
Width: 630
GlyphClass: 2
Flags: HMW
HStem: 0 84<68 76 76 76 76 594> 0 135<68 182 182 182> 948 41G<471 471> 967 41G<436 436>
VStem: 182 289<135 725 725 775>
AnchorPoint: "Anchor-3" 305 991 basechar 0
LayerCount: 2
Fore
SplineSet
367 1073 m 1x98
 127 1243 l 2
 80 1276 59 1311 59 1352 c 0
 59 1415 99 1454 156 1454 c 0
 197 1454 237 1435 272 1384 c 2
 436 1141 l 1
 367 1073 l 1x98
68 0 m 1
 76 84 l 1x98
 125 94 149 104 182 135 c 1
 182 725 l 2
 182 825 149 854 55 858 c 1
 61 938 l 1
 147 954 358 985 436 1008 c 1x58
 471 989 l 1
 471 135 l 1
 496 117 543 92 602 80 c 1x68
 594 0 l 1
 68 0 l 1
EndSplineSet
EndChar

StartChar: imacron
Encoding: 299 299 202
Width: 630
GlyphClass: 2
Flags: HMW
HStem: 0 84<68 76 76 76 76 594> 0 135<68 182 182 182> 948 41G<471 471> 967 41G<436 436> 1155 139<-12 625 -12 625>
VStem: 182 289<135 725 725 775>
AnchorPoint: "Anchor-3" 305 991 basechar 0
LayerCount: 2
Fore
SplineSet
-12 1155 m 1x9c
 -12 1294 l 1
 625 1294 l 1
 625 1155 l 1
 -12 1155 l 1x9c
68 0 m 1
 76 84 l 1x9c
 125 94 149 104 182 135 c 1
 182 725 l 2
 182 825 149 854 55 858 c 1
 61 938 l 1
 147 954 358 985 436 1008 c 1x5c
 471 989 l 1
 471 135 l 1
 496 117 543 92 602 80 c 1x6c
 594 0 l 1
 68 0 l 1
EndSplineSet
EndChar

StartChar: iogonek
Encoding: 303 303 203
Width: 643
GlyphClass: 1
Flags: HMW
HStem: -418 121<163 289> 0 80<430 610> 0 135 948 41G<479 479> 967 41G<444 444> 1126 287<285 394>
VStem: 20 195<-244 -180> 176 326<1225 1316> 190 289<135 725 725 775>
LayerCount: 2
Fore
SplineSet
340 1126 m 0xcd
 229 1126 176 1180 176 1270 c 0
 176 1362 229 1413 340 1413 c 0
 449 1413 502 1362 502 1270 c 0
 502 1180 449 1126 340 1126 c 0xcd
190 135 m 2xcc80
 190 725 l 2
 190 825 157 854 63 858 c 1
 70 938 l 1
 156 954 366 985 444 1008 c 1xcc80
 479 989 l 1
 479 135 l 1xb480
 504 117 551 92 610 80 c 1
 602 0 l 1xcc80
 430 0 l 2
 276 0 215 -137 215 -213 c 0
 215 -274 239 -297 272 -297 c 0
 305 -297 346 -275 375 -250 c 1
 428 -322 l 1
 375 -385 293 -418 213 -418 c 0xce
 113 -418 20 -357 20 -248 c 0
 20 -113 190 -74 190 135 c 2xcc80
EndSplineSet
EndChar

StartChar: itilde
Encoding: 297 297 204
Width: 630
GlyphClass: 2
Flags: HMW
HStem: 0 84<68 76 76 76 76 594> 0 135<68 182 182 182> 948 41G<471 471> 967 41G<436 436> 1130 178<396 459 396 478> 1210 180<154 216>
VStem: 182 289<135 725 725 775>
AnchorPoint: "Anchor-3" 305 991 basechar 0
LayerCount: 2
Fore
SplineSet
53 1133 m 1x96
 26 1143 -18 1167 -45 1198 c 1
 8 1313 88 1391 184 1391 c 0x96
 268 1391 354 1309 438 1309 c 0x9a
 479 1309 524 1342 559 1389 c 1x96
 586 1379 630 1354 657 1325 c 1
 604 1210 526 1130 430 1130 c 0x9a
 346 1130 258 1210 174 1210 c 0
 133 1210 90 1182 53 1133 c 1x96
68 0 m 1
 76 84 l 1x96
 125 94 149 104 182 135 c 1
 182 725 l 2
 182 825 149 854 55 858 c 1
 61 938 l 1
 147 954 358 985 436 1008 c 1x56
 471 989 l 1
 471 135 l 1
 496 117 543 92 602 80 c 1x66
 594 0 l 1
 68 0 l 1
EndSplineSet
EndChar

StartChar: jcircumflex
Encoding: 309 309 205
Width: 608
GlyphClass: 2
Flags: HMW
HStem: -446 102<120 155 120 200> 948 41G<465 465> 967 41G<430 430>
VStem: -106 193<-297 -264 -297 -237> 176 289<127 725 725 775> 201 264<-255 -68>
AnchorPoint: "Anchor-3" 262 991 basechar 0
LayerCount: 2
Fore
SplineSet
16 1087 m 1xb8
 -43 1163 l 1
 152 1382 l 2
 187 1421 221 1438 270 1438 c 0
 313 1438 338 1421 373 1382 c 2
 567 1163 l 1
 508 1087 l 1
 262 1257 l 1
 16 1087 l 1xb8
147 -446 m 0
 18 -446 -106 -389 -106 -274 c 0
 -106 -198 -53 -147 23 -147 c 0
 58 -147 94 -164 117 -199 c 1
 99 -217 86 -248 86 -281 c 0
 86 -314 104 -344 135 -344 c 0xb4
 174 -344 201 -289 201 -221 c 0
 201 -84 176 -37 176 127 c 2
 176 725 l 2
 176 825 143 854 49 858 c 1
 55 938 l 1
 141 954 352 985 430 1008 c 1xb8
 465 989 l 1xd8
 465 -68 l 2
 465 -164 455 -258 412 -330 c 0
 363 -410 251 -446 147 -446 c 0
EndSplineSet
EndChar

StartChar: uni0237
Encoding: 567 567 206
Width: 608
GlyphClass: 2
Flags: HMW
HStem: -446 102<120 155 120 200> 948 41G<465 465> 967 41G<430 430>
VStem: -106 193<-297 -264 -297 -237> 176 289<127 725 725 775> 201 264<-255 -68>
AnchorPoint: "Anchor-3" 262 991 basechar 0
LayerCount: 2
Fore
SplineSet
147 -446 m 0xb8
 18 -446 -106 -389 -106 -274 c 0
 -106 -198 -53 -147 23 -147 c 0
 58 -147 94 -164 117 -199 c 1
 99 -217 86 -248 86 -281 c 0
 86 -314 104 -344 135 -344 c 0xb4
 174 -344 201 -289 201 -221 c 0
 201 -84 176 -37 176 127 c 2
 176 725 l 2
 176 825 143 854 49 858 c 1
 55 938 l 1
 141 954 352 985 430 1008 c 1xb8
 465 989 l 1xd8
 465 -68 l 2
 465 -164 455 -258 412 -330 c 0
 363 -410 251 -446 147 -446 c 0xb8
EndSplineSet
EndChar

StartChar: uni0137
Encoding: 311 311 207
Width: 1206
GlyphClass: 2
Flags: HMW
HStem: -446 43G<618 618> 0 84<61 70 70 70 70 590> 911 80<682 688 1143 1143>
VStem: 176 291<135 338 539 1143 1143 1194> 559 184<-201 -199>
AnchorPoint: "Anchor-5" 627 0 basechar 0
LayerCount: 2
Fore
SplineSet
61 0 m 1
 70 84 l 1
 119 94 145 104 176 135 c 1
 176 1143 l 2
 176 1245 143 1274 49 1278 c 1
 55 1358 l 1
 141 1374 352 1404 430 1427 c 1
 467 1407 l 1
 467 539 l 1
 754 815 l 2
 764 827 770 840 770 852 c 0
 770 899 711 911 666 911 c 1
 682 991 l 1
 1159 991 l 1
 1143 911 l 1
 1102 909 1020 897 963 831 c 2
 768 639 l 1
 1077 156 l 1
 1114 121 1162 96 1223 84 c 1
 1208 0 l 1
 823 0 l 1
 821 47 811 78 786 119 c 2
 578 449 l 1
 467 338 l 1
 467 135 l 1
 490 117 537 92 596 80 c 1
 590 0 l 1
 61 0 l 1
618 -446 m 1
 520 -406 l 1
 545 -338 559 -272 559 -223 c 0
 559 -174 545 -142 510 -113 c 1
 530 -82 580 -59 623 -59 c 0
 693 -59 743 -103 743 -164 c 0
 743 -238 694 -346 618 -446 c 1
EndSplineSet
EndChar

StartChar: kgreenlandic
Encoding: 312 312 208
Width: 1224
GlyphClass: 1
Flags: HMW
HStem: 0 84<74 82 82 82 82 602> 911 80<694 700 1155 1155> 969 41G<442 442>
VStem: 188 291<135 338 539 725 725 776>
LayerCount: 2
Fore
SplineSet
74 0 m 1xd0
 82 84 l 1
 131 94 157 104 188 135 c 1
 188 725 l 2
 188 827 155 856 61 860 c 1
 68 940 l 1
 154 956 364 987 442 1010 c 1xb0
 479 989 l 1
 479 539 l 1
 766 815 l 2
 776 827 782 840 782 852 c 0
 782 899 723 911 678 911 c 1
 694 991 l 1
 1171 991 l 1
 1155 911 l 1
 1114 909 1032 897 975 831 c 2
 780 639 l 1
 1090 156 l 1
 1127 121 1174 96 1235 84 c 1
 1221 0 l 1
 836 0 l 1
 834 47 824 78 799 119 c 2
 590 449 l 1
 479 338 l 1
 479 135 l 1
 502 117 549 92 608 80 c 1
 602 0 l 1
 74 0 l 1xd0
EndSplineSet
EndChar

StartChar: lacute
Encoding: 314 314 209
Width: 636
GlyphClass: 2
Flags: HMW
HStem: 0 84<61 70 70 70 70 590> 0 135<61 176 176 176>
VStem: 176 291<135 1143 1143 1194>
AnchorPoint: "Anchor-5" 334 0 basechar 0
AnchorPoint: "Anchor-3" 313 1366 basechar 0
LayerCount: 2
Fore
SplineSet
258 1452 m 1xa0
 188 1520 l 1
 352 1763 l 2
 387 1814 430 1833 469 1833 c 0
 526 1833 563 1794 563 1737 c 0
 563 1700 545 1655 498 1622 c 2
 258 1452 l 1xa0
61 0 m 1
 70 84 l 1xa0
 119 94 143 104 176 135 c 1
 176 1143 l 2
 176 1245 143 1274 49 1278 c 1
 55 1358 l 1
 141 1374 352 1404 430 1427 c 1
 467 1407 l 1
 467 135 l 1
 490 117 537 92 596 80 c 1x60
 590 0 l 1
 61 0 l 1
EndSplineSet
EndChar

StartChar: lcaron
Encoding: 318 318 210
Width: 890
GlyphClass: 2
Flags: HMW
HStem: 0 84<49 57 57 57 57 578> 0 135<49 164 164 164>
VStem: 164 291<135 1143 1143 1194> 610 184<1249 1271>
AnchorPoint: "Anchor-5" 322 0 basechar 0
AnchorPoint: "Anchor-3" 301 1366 basechar 0
LayerCount: 2
Fore
SplineSet
49 0 m 1xa0
 57 84 l 1xb0
 106 94 131 104 164 135 c 1
 164 1143 l 2
 164 1245 131 1274 37 1278 c 1
 43 1358 l 1
 129 1374 340 1404 418 1427 c 1
 455 1407 l 1
 455 135 l 1
 478 117 525 92 584 80 c 1x60
 578 0 l 1
 49 0 l 1xa0
666 989 m 1
 559 1028 l 1
 594 1126 610 1194 610 1243 c 0
 610 1298 590 1329 557 1356 c 1
 577 1393 609 1425 668 1425 c 0
 738 1425 795 1370 795 1294 c 0
 795 1204 725 1085 666 989 c 1
EndSplineSet
EndChar

StartChar: uni013C
Encoding: 316 316 211
Width: 636
GlyphClass: 2
Flags: HMW
HStem: -446 43G<326 326> 0 84<61 70 70 70 70 590> 0 135<61 176 176 176>
VStem: 176 291<135 1143 1143 1194> 266 184<-201 -199>
AnchorPoint: "Anchor-5" 334 0 basechar 0
AnchorPoint: "Anchor-3" 313 1366 basechar 0
LayerCount: 2
Fore
SplineSet
61 0 m 1xd0
 70 84 l 1xc8
 119 94 143 104 176 135 c 1
 176 1143 l 2
 176 1245 143 1274 49 1278 c 1
 55 1358 l 1
 141 1374 352 1404 430 1427 c 1
 467 1407 l 1
 467 135 l 1
 490 117 537 92 596 80 c 1xb0
 590 0 l 1
 61 0 l 1xd0
326 -446 m 1
 227 -406 l 1
 252 -338 266 -272 266 -223 c 0
 266 -174 252 -142 217 -113 c 1
 237 -82 287 -59 330 -59 c 0
 400 -59 451 -103 451 -164 c 0
 451 -238 402 -346 326 -446 c 1
EndSplineSet
EndChar

StartChar: ldot
Encoding: 320 320 212
Width: 780
GlyphClass: 2
Flags: HMW
HStem: 0 84<61 70 70 70 70 590> 0 135<61 176 176 176> 580 313<664 762>
VStem: 176 291<135 1143 1143 1194> 569 287<689 783 687 784>
AnchorPoint: "Anchor-5" 334 0 basechar 0
AnchorPoint: "Anchor-3" 313 1366 basechar 0
LayerCount: 2
Fore
SplineSet
61 0 m 1xb0
 70 84 l 1xb8
 119 94 143 104 176 135 c 1
 176 1143 l 2
 176 1245 143 1274 49 1278 c 1
 55 1358 l 1
 141 1374 352 1404 430 1427 c 1
 467 1407 l 1
 467 135 l 1
 490 117 537 92 596 80 c 1x70
 590 0 l 1
 61 0 l 1xb0
713 580 m 0
 615 580 569 643 569 735 c 0
 569 833 615 893 713 893 c 0
 811 893 856 831 856 735 c 0
 856 639 811 580 713 580 c 0
EndSplineSet
Ligature2: "Ligature Substitution lookup 11 subtable" l periodcentered
EndChar

StartChar: lslash
Encoding: 322 322 213
Width: 700
GlyphClass: 2
Flags: HMW
HStem: 0 84<104 104 104 625 96 104> 0 135<211 211 96 211>
VStem: 211 291<135 528 528 528 682 700 135 852 852 1143 1143 1194>
AnchorPoint: "Anchor-5" 369 0 basechar 0
AnchorPoint: "Anchor-3" 348 1366 basechar 0
LayerCount: 2
Fore
SplineSet
502 700 m 1xa0
 502 135 l 1
 525 117 572 92 631 80 c 1x60
 625 0 l 1
 96 0 l 1
 104 84 l 1xa0
 153 94 178 104 211 135 c 1x60
 211 528 l 1
 68 442 l 1
 0 557 l 1
 211 682 l 1
 211 1143 l 2
 211 1245 178 1274 84 1278 c 1
 90 1358 l 1
 176 1374 387 1404 465 1427 c 1
 502 1407 l 1
 502 852 l 1
 618 922 l 1
 684 809 l 1
 502 700 l 1xa0
EndSplineSet
EndChar

StartChar: nacute
Encoding: 324 324 214
Width: 1236
GlyphClass: 2
Flags: HMW
HStem: 0 80<70 596> 870 137<412 465> 948 41G<449 449>
VStem: 184 289<135 725 725 758 135 775> 782 289<135 674 674 692 135 740>
AnchorPoint: "Anchor-5" 643 0 basechar 0
AnchorPoint: "Anchor-3" 653 991 basechar 0
LayerCount: 2
Fore
SplineSet
598 1077 m 1xd8
 528 1145 l 1
 692 1389 l 2
 727 1440 770 1458 809 1458 c 0
 866 1458 903 1419 903 1362 c 0
 903 1325 885 1280 838 1247 c 2
 598 1077 l 1xd8
70 0 m 1
 76 84 l 1
 127 94 149 104 184 135 c 1
 184 725 l 2
 184 825 149 854 55 858 c 1
 61 938 l 1
 149 954 334 985 412 1008 c 1xd8
 449 989 l 1xb8
 465 870 l 1
 537 954 641 1008 766 1008 c 0
 948 1008 1071 891 1071 692 c 2
 1071 135 l 1
 1096 117 1143 92 1202 80 c 1
 1194 0 l 1
 676 0 l 1
 682 80 l 1
 721 88 755 106 782 135 c 1
 782 674 l 2
 782 807 741 870 655 870 c 0
 585 870 512 826 473 758 c 1
 473 135 l 1
 504 110 545 92 596 80 c 1
 588 0 l 1
 70 0 l 1
EndSplineSet
EndChar

StartChar: ncaron
Encoding: 328 328 215
Width: 1236
GlyphClass: 2
Flags: HMW
HStem: 0 80<70 596> 870 137<412 465> 948 41G<449 449>
VStem: 184 289<135 725 725 758 135 775> 782 289<135 674 674 692 135 740>
AnchorPoint: "Anchor-5" 643 0 basechar 0
AnchorPoint: "Anchor-3" 653 991 basechar 0
LayerCount: 2
Fore
SplineSet
657 1087 m 0xd8
 612 1087 578 1104 543 1143 c 2
 348 1362 l 1
 408 1438 l 1
 653 1268 l 1
 899 1438 l 1
 958 1362 l 1
 764 1143 l 2
 735 1110 692 1087 657 1087 c 0xd8
70 0 m 1
 76 84 l 1
 127 94 149 104 184 135 c 1
 184 725 l 2
 184 825 149 854 55 858 c 1
 61 938 l 1
 149 954 334 985 412 1008 c 1xd8
 449 989 l 1xb8
 465 870 l 1
 537 954 641 1008 766 1008 c 0
 948 1008 1071 891 1071 692 c 2
 1071 135 l 1
 1096 117 1143 92 1202 80 c 1
 1194 0 l 1
 676 0 l 1
 682 80 l 1
 721 88 755 106 782 135 c 1
 782 674 l 2
 782 807 741 870 655 870 c 0
 585 870 512 826 473 758 c 1
 473 135 l 1
 504 110 545 92 596 80 c 1
 588 0 l 1
 70 0 l 1
EndSplineSet
EndChar

StartChar: uni0146
Encoding: 326 326 216
Width: 1236
GlyphClass: 2
Flags: HMW
HStem: -446 43G<635 635> 0 80<70 596> 870 137<412 465> 948 41G<449 449>
VStem: 184 289<135 725 725 758 135 775> 575 184<-201 -199> 782 289<135 674 674 692 135 740>
AnchorPoint: "Anchor-5" 643 0 basechar 0
AnchorPoint: "Anchor-3" 653 991 basechar 0
LayerCount: 2
Fore
SplineSet
70 0 m 1xea
 76 84 l 1
 127 94 149 104 184 135 c 1
 184 725 l 2
 184 825 149 854 55 858 c 1
 61 938 l 1
 149 954 334 985 412 1008 c 1xee
 449 989 l 1xda
 465 870 l 1
 537 954 641 1008 766 1008 c 0
 948 1008 1071 891 1071 692 c 2
 1071 135 l 1
 1096 117 1143 92 1202 80 c 1
 1194 0 l 1
 676 0 l 1
 682 80 l 1
 721 88 755 106 782 135 c 1
 782 674 l 2
 782 807 741 870 655 870 c 0
 585 870 512 826 473 758 c 1
 473 135 l 1
 504 110 545 92 596 80 c 1
 588 0 l 1
 70 0 l 1xea
635 -446 m 1
 537 -406 l 1
 562 -338 575 -272 575 -223 c 0
 575 -174 561 -142 526 -113 c 1
 546 -82 596 -59 639 -59 c 0
 709 -59 760 -103 760 -164 c 0
 760 -238 711 -346 635 -446 c 1
EndSplineSet
EndChar

StartChar: ntilde
Encoding: 241 241 217
Width: 1236
GlyphClass: 2
Flags: HMW
HStem: 0 80<70 596> 870 137<412 465> 948 41G<449 449> 1130 178<744 807 744 826> 1210 180<502 564>
VStem: 184 289<135 725 725 758 135 775> 782 289<135 674 674 692 135 740>
AnchorPoint: "Anchor-5" 643 0 basechar 0
AnchorPoint: "Anchor-3" 653 991 basechar 0
LayerCount: 2
Fore
SplineSet
401 1133 m 1xce
 374 1143 330 1167 303 1198 c 1
 356 1313 436 1391 532 1391 c 0xce
 616 1391 702 1309 786 1309 c 0xd6
 827 1309 872 1342 907 1389 c 1xce
 934 1379 979 1354 1006 1325 c 1
 953 1210 874 1130 778 1130 c 0xd6
 694 1130 606 1210 522 1210 c 0
 481 1210 438 1182 401 1133 c 1xce
70 0 m 1
 76 84 l 1
 127 94 149 104 184 135 c 1
 184 725 l 2
 184 825 149 854 55 858 c 1
 61 938 l 1
 149 954 334 985 412 1008 c 1xce
 449 989 l 1xae
 465 870 l 1
 537 954 641 1008 766 1008 c 0
 948 1008 1071 891 1071 692 c 2
 1071 135 l 1
 1096 117 1143 92 1202 80 c 1
 1194 0 l 1
 676 0 l 1
 682 80 l 1
 721 88 755 106 782 135 c 1
 782 674 l 2
 782 807 741 870 655 870 c 0
 585 870 512 826 473 758 c 1
 473 135 l 1
 504 110 545 92 596 80 c 1
 588 0 l 1
 70 0 l 1
EndSplineSet
EndChar

StartChar: eng
Encoding: 331 331 218
Width: 1226
GlyphClass: 1
Flags: HMW
HStem: -336 100<733 776 733 800> 0 84<63 70 70 70 70 582> 870 137<406 459> 948 41G<442 442>
VStem: 178 289<135 725 725 758 135 775> 494 92 494 195<-181 -148 -181 -126> 776 289<287 674 674 692> 831 233<-155 43>
LayerCount: 2
Fore
SplineSet
63 0 m 1xe9
 70 84 l 1
 121 94 143 104 178 135 c 1
 178 725 l 2
 178 825 143 854 49 858 c 1
 55 938 l 1
 143 954 328 985 406 1008 c 1xe9
 442 989 l 1xd9
 459 870 l 1
 531 954 635 1008 760 1008 c 0
 942 1008 1065 891 1065 692 c 2
 1065 43 l 2
 1065 -53 1055 -147 1012 -219 c 0xe9
 963 -299 852 -336 748 -336 c 0
 619 -336 494 -279 494 -164 c 0
 494 -88 547 -37 623 -37 c 0
 658 -37 694 -53 717 -88 c 1
 699 -106 688 -135 688 -162 c 0
 688 -201 709 -236 758 -236 c 0
 795 -236 831 -199 831 -111 c 0xea80
 831 43 776 99 776 287 c 2
 776 674 l 2
 776 807 735 870 649 870 c 0
 579 870 506 826 467 758 c 1
 467 135 l 1xe9
 498 110 539 92 590 80 c 1
 582 0 l 1xed
 63 0 l 1xe9
EndSplineSet
EndChar

StartChar: oacute
Encoding: 243 243 219
Width: 1085
GlyphClass: 2
Flags: HMW
HStem: -14 115<476 609 476 707> 893 115<476 609>
VStem: 51 301<355 636 355 659> 733 301<355 636>
AnchorPoint: "Anchor-3" 545 989 basechar 0
LayerCount: 2
Fore
SplineSet
489 1075 m 1
 420 1143 l 1
 584 1386 l 2
 619 1437 661 1456 700 1456 c 0
 757 1456 795 1417 795 1360 c 0
 795 1323 776 1278 729 1245 c 2
 489 1075 l 1
543 -14 m 0
 215 -14 51 162 51 494 c 0
 51 826 215 1008 543 1008 c 0
 871 1008 1034 828 1034 496 c 0
 1034 164 871 -14 543 -14 c 0
543 100 m 0
 676 100 733 215 733 496 c 0
 733 777 676 893 543 893 c 0
 410 893 352 777 352 496 c 0
 352 215 410 100 543 100 c 0
EndSplineSet
EndChar

StartChar: obreve
Encoding: 335 335 220
Width: 1085
GlyphClass: 2
Flags: HMW
HStem: -14 115<476 609 476 707> 893 115<476 609> 1098 160<497 593 497 627> 1337 41G
VStem: 51 301<355 636 355 659> 252 123 715 121 733 301<355 636>
AnchorPoint: "Anchor-3" 545 989 basechar 0
LayerCount: 2
Fore
SplineSet
545 1098 m 0xf6
 381 1098 266 1206 252 1376 c 1
 289 1394 314 1399 375 1399 c 1
 389 1309 449 1257 545 1257 c 0
 641 1257 701 1309 715 1399 c 1
 772 1399 799 1392 836 1378 c 1
 822 1208 709 1098 545 1098 c 0xf6
543 -14 m 0xf9
 215 -14 51 162 51 494 c 0
 51 826 215 1008 543 1008 c 0
 871 1008 1034 828 1034 496 c 0
 1034 164 871 -14 543 -14 c 0xf9
543 100 m 0
 676 100 733 215 733 496 c 0
 733 777 676 893 543 893 c 0
 410 893 352 777 352 496 c 0
 352 215 410 100 543 100 c 0
EndSplineSet
EndChar

StartChar: ocircumflex
Encoding: 244 244 221
Width: 1085
GlyphClass: 2
Flags: HMW
HStem: -14 115<476 609 476 707> 893 115<476 609>
VStem: 51 301<355 636 355 659> 733 301<355 636>
AnchorPoint: "Anchor-3" 545 989 basechar 0
LayerCount: 2
Fore
SplineSet
299 1085 m 1
 240 1161 l 1
 434 1380 l 2
 469 1419 504 1436 553 1436 c 0
 596 1436 620 1419 655 1380 c 2
 850 1161 l 1
 791 1085 l 1
 545 1255 l 1
 299 1085 l 1
543 -14 m 0
 215 -14 51 162 51 494 c 0
 51 826 215 1008 543 1008 c 0
 871 1008 1034 828 1034 496 c 0
 1034 164 871 -14 543 -14 c 0
543 100 m 0
 676 100 733 215 733 496 c 0
 733 777 676 893 543 893 c 0
 410 893 352 777 352 496 c 0
 352 215 410 100 543 100 c 0
EndSplineSet
EndChar

